<svg width="362" height="216" viewBox="0 0 362 216" fill="none" xmlns="http://www.w3.org/2000/svg">
<path d="M67.1367 0.5L122.667 107.289L122.787 107.519L122.667 107.75L67.1367 214.539H109.017L164.667 107.519L109.017 0.5L67.1367 0.5Z" stroke="#1B1919" stroke-opacity="0.15"/>
<path d="M165.699 0.5L221.229 107.289L221.349 107.519L221.229 107.75L165.699 214.539H207.58L263.23 107.519L207.58 0.5L165.699 0.5Z" stroke="#1B1919" stroke-opacity="0.15"/>
<path d="M-32.4075 0.5L23.1226 107.289L23.2426 107.519L23.1226 107.75L-32.4075 214.539H9.47312L65.1232 107.519L9.47312 0.5L-32.4075 0.5Z" stroke="#1B1919" stroke-opacity="0.15"/>
<path d="M263.906 0.5L319.436 107.289L319.556 107.519L319.436 107.75L263.906 214.539H305.786L361.436 107.519L305.786 0.5L263.906 0.5Z" stroke="#1B1919" stroke-opacity="0.15"/>
</svg>
