<svg width="50" height="50" viewBox="0 0 50 50" fill="none" xmlns="http://www.w3.org/2000/svg">
<path d="M34.2632 5.0376C31.1237 5.0376 28.5697 7.5917 28.5697 10.7311C28.5697 13.8704 31.1238 16.4245 34.2632 16.4245C37.4025 16.4245 39.9566 13.8704 39.9566 10.7311C39.9566 7.5917 37.4026 5.0376 34.2632 5.0376ZM34.2632 15.1063C31.8507 15.1063 29.8881 13.1436 29.8881 10.7312C29.8881 8.31873 31.8507 6.35605 34.2632 6.35605C36.6756 6.35605 38.6383 8.31873 38.6383 10.7312C38.6383 13.1436 36.6757 15.1063 34.2632 15.1063Z" fill="white"/>
<path d="M35.8822 10.0719H34.9224V8.4668C34.9224 8.10275 34.6274 7.80762 34.2632 7.80762C33.8991 7.80762 33.6041 8.10275 33.6041 8.4668V10.731C33.6041 11.0951 33.8991 11.3902 34.2632 11.3902H35.8822C36.2463 11.3902 36.5414 11.0951 36.5414 10.731C36.5414 10.367 36.2463 10.0719 35.8822 10.0719Z" fill="white"/>
<path d="M43.5667 7.91367H42.3928C42.2818 7.59375 42.1517 7.27998 42.0031 6.97456L42.8336 6.14408C43.1031 5.8747 43.2515 5.51637 43.2515 5.13527C43.2515 4.90887 43.197 4.68316 43.0936 4.48251C42.927 4.15881 42.5293 4.03172 42.2058 4.19818C41.882 4.36482 41.7548 4.76227 41.9215 5.08597C41.9291 5.10082 41.9332 5.11787 41.9332 5.13527C41.9332 5.15566 41.9276 5.18555 41.9014 5.21183L40.7286 6.38464C40.5199 6.59347 40.4754 6.91567 40.6199 7.17319C40.9001 7.67268 41.1204 8.20371 41.2747 8.75153C41.3547 9.03568 41.6139 9.23194 41.9092 9.23194H43.5667C43.6264 9.23194 43.6748 9.28046 43.6748 9.34014V12.1219C43.6748 12.1816 43.6263 12.2301 43.5667 12.2301H41.9092C41.614 12.2301 41.3547 12.4263 41.2747 12.7106C41.1204 13.2585 40.9 13.7894 40.6199 14.2889C40.4754 14.5465 40.5198 14.8687 40.7286 15.0775L41.9015 16.2504C41.9277 16.2766 41.9332 16.3064 41.9332 16.3268C41.9332 16.3472 41.9276 16.3771 41.9014 16.4034L39.9345 18.3705C39.9083 18.3966 39.8785 18.4021 39.8581 18.4021C39.8376 18.4021 39.8077 18.3966 39.7815 18.3705L38.6087 17.1976C38.3998 16.9888 38.0775 16.9445 37.8201 17.0888C37.3205 17.369 36.7895 17.5894 36.2417 17.7436C35.9576 17.8237 35.7612 18.0829 35.7612 18.3781V20.0356C35.7612 20.0953 35.7126 20.1438 35.653 20.1438H32.8713C32.8116 20.1438 32.7632 20.0953 32.7632 20.0356V18.3781C32.7632 18.0829 32.5669 17.8237 32.2827 17.7436C31.7348 17.5893 31.2038 17.3689 30.7044 17.0888C30.4469 16.9444 30.1247 16.9886 29.9157 17.1976L28.743 18.3704C28.7005 18.4128 28.6323 18.4129 28.59 18.3705L26.623 16.4035C26.6227 16.4032 26.6225 16.4029 26.6223 16.4026C26.5797 16.359 26.5823 16.2918 26.6225 16.2511C26.6226 16.2509 26.6227 16.2506 26.623 16.2504L27.7958 15.0776C28.0046 14.8688 28.049 14.5466 27.9045 14.289C27.6302 13.8 27.4033 13.2559 27.2497 12.7107C27.1698 12.4265 26.9106 12.2302 26.6152 12.2302H24.9577C24.898 12.2302 24.8495 12.1816 24.8495 12.122V9.34023C24.8495 9.28055 24.8981 9.23203 24.9577 9.23203H26.6152C26.9105 9.23203 27.1698 9.03577 27.2497 8.75162C27.4041 8.2038 27.6244 7.67276 27.9045 7.17328C28.049 6.91576 28.0046 6.59355 27.7958 6.38473L26.623 5.21191C26.5807 5.16973 26.5804 5.10144 26.623 5.0589L28.5901 3.09182C28.6322 3.04972 28.7005 3.04945 28.7429 3.0919L29.9157 4.26472C30.1246 4.47354 30.4469 4.51793 30.7044 4.37353C31.2038 4.09333 31.7349 3.87308 32.2827 3.71883C32.5668 3.63876 32.7632 3.37957 32.7632 3.08435V1.42673C32.7632 1.36705 32.8117 1.31854 32.8713 1.31854H35.653C35.7127 1.31854 35.7612 1.36705 35.7612 1.42673V3.08435C35.7612 3.37957 35.9575 3.63885 36.2417 3.71883C36.7895 3.87308 37.3204 4.09333 37.8201 4.37361C38.0773 4.51802 38.3997 4.47363 38.6087 4.2648L39.7816 3.0919C39.8077 3.0658 39.8375 3.06035 39.8579 3.06035C39.8763 3.06035 39.9034 3.06483 39.9282 3.08628C40.2037 3.32438 40.6197 3.29432 40.858 3.01887C41.0962 2.74351 41.066 2.32726 40.7906 2.08907C40.5318 1.86521 40.2005 1.7419 39.8579 1.7419C39.4768 1.7419 39.1186 1.89035 38.8492 2.15974L38.0187 2.9903C37.7133 2.84186 37.3995 2.71169 37.0796 2.60068V1.42655C37.0796 0.639932 36.4397 0 35.653 0H32.8713C32.0848 0 31.4448 0.639932 31.4448 1.42655V2.60051C31.1248 2.71151 30.8111 2.84168 30.5057 2.99013L29.6752 2.15947C29.1176 1.60207 28.2152 1.60189 27.6577 2.15956L25.6907 4.12646C25.1332 4.68387 25.1331 5.58633 25.6906 6.14399L26.5212 6.97456C26.3728 7.27989 26.2425 7.59366 26.1315 7.91367H24.9576C24.8018 7.91367 24.6522 7.93969 24.5117 7.98601C24.0802 7.24649 23.2788 6.74815 22.3627 6.74815C20.9916 6.74815 19.8761 7.86366 19.8761 9.23484V10.8036H16.3211V9.23484C16.3211 7.86366 15.2056 6.74815 13.8344 6.74815C12.4632 6.74815 11.3478 7.86366 11.3478 9.23484V10.8036H7.7926V9.23484C7.7926 7.86366 6.67709 6.74815 5.30591 6.74815C3.93473 6.74815 2.81931 7.86366 2.81931 9.23484V10.8348C1.23262 11.0526 0.00610352 12.4163 0.00610352 14.0619V41.7418C0.00601563 43.5384 1.46764 45 3.2643 45H5.19183C5.55587 45 5.851 44.7049 5.851 44.3408C5.851 43.9768 5.55587 43.6816 5.19183 43.6816H3.2643C2.19467 43.6816 1.32437 42.8114 1.32437 41.7417V21.4621H35.653H35.696V41.7417C35.696 42.8113 34.8258 43.6816 33.7562 43.6816H8.26791C7.90387 43.6816 7.60873 43.9768 7.60873 44.3408C7.60873 44.7049 7.90387 45 8.26791 45H33.7562C35.5528 45 37.0144 43.5384 37.0144 41.7417V20.8029C37.0144 20.7226 36.9993 20.6459 36.973 20.5747C37.0413 20.4082 37.0795 20.2264 37.0795 20.0355V18.8617C37.3994 18.7507 37.7132 18.6205 38.0186 18.4721L38.849 19.3025C39.1183 19.5719 39.4767 19.7204 39.8579 19.7204C40.239 19.7204 40.5972 19.572 40.8666 19.3025L42.8335 17.3356C43.103 17.0662 43.2514 16.7079 43.2514 16.3268C43.2514 15.9457 43.1031 15.5875 42.8336 15.3181L42.003 14.4875C42.1515 14.1822 42.2817 13.8684 42.3928 13.5484H43.5666C44.3532 13.5484 44.9931 12.9085 44.9931 12.1219V9.34014C44.9932 8.5536 44.3532 7.91367 43.5667 7.91367ZM21.1945 11.4628V9.23484C21.1945 8.59061 21.7186 8.06651 22.3627 8.06651C23.0069 8.06651 23.531 8.59061 23.531 9.23484V9.34023V12.122V14.6767C23.531 15.3209 23.0069 15.8449 22.3627 15.8449C21.7186 15.8449 21.1945 15.3208 21.1945 14.6767V11.4628ZM12.666 11.4628V9.23484C12.666 8.59061 13.1901 8.06651 13.8343 8.06651C14.4784 8.06651 15.0026 8.59061 15.0026 9.23484V11.4628V14.6767C15.0026 15.3209 14.4785 15.8449 13.8343 15.8449C13.19 15.8449 12.666 15.3208 12.666 14.6767V11.4628ZM4.13758 11.4628V9.23484C4.13758 8.59061 4.66167 8.06651 5.30582 8.06651C5.94997 8.06651 6.47415 8.59061 6.47415 9.23484V11.4628V14.6767C6.47415 15.3209 5.95006 15.8449 5.30582 15.8449C4.66158 15.8449 4.13758 15.3208 4.13758 14.6767V11.4628ZM1.32437 20.1437V14.0618C1.32437 13.1452 1.96343 12.3751 2.81922 12.1734V14.6766C2.81922 16.0478 3.93473 17.1632 5.30582 17.1632C6.67691 17.1632 7.79251 16.0477 7.79251 14.6766V12.1219H11.3476V14.6766C11.3476 16.0478 12.4631 17.1632 13.8342 17.1632C15.2053 17.1632 16.3209 16.0477 16.3209 14.6766V12.1219H19.876V14.6766C19.876 16.0478 20.9915 17.1632 22.3626 17.1632C23.7337 17.1632 24.8492 16.0477 24.8492 14.6766V13.5444C24.8849 13.5471 24.921 13.5484 24.9574 13.5484H26.1312C26.2422 13.8684 26.3853 14.2086 26.5209 14.4875C25.6412 15.3672 25.6104 15.3838 25.5027 15.5502C25.1992 16.0158 25.1925 16.6254 25.5014 17.1012C25.5039 17.105 25.5058 17.109 25.5084 17.1127C25.6424 17.3148 27.6817 19.3381 27.8198 19.4405C28.387 19.861 29.1742 19.8031 29.6748 19.3026L30.5053 18.4721C30.8107 18.6205 31.1244 18.7507 31.4444 18.8617V20.0355C31.4444 20.0719 31.4458 20.1081 31.4484 20.1437H1.32437Z" fill="white"/>
<path d="M12.5024 30.6739H16.2986C16.9529 30.6739 17.4852 30.1416 17.4852 29.4873V25.6912C17.4852 25.0369 16.9529 24.5046 16.2986 24.5046H12.5024C11.8481 24.5046 11.3159 25.0369 11.3159 25.6912V29.4873C11.3159 30.1416 11.8481 30.6739 12.5024 30.6739ZM12.6342 25.823H16.1668V29.3555H12.6342V25.823Z" fill="white"/>
<path d="M20.7239 30.6739H24.5201C25.1743 30.6739 25.7066 30.1416 25.7066 29.4873V25.6912C25.7066 25.0369 25.1743 24.5046 24.5201 24.5046H20.7239C20.0696 24.5046 19.5374 25.0369 19.5374 25.6912V29.4873C19.5374 30.1416 20.0697 30.6739 20.7239 30.6739ZM20.8557 25.823H24.3882V29.3555H20.8557V25.823Z" fill="white"/>
<path d="M11.3159 39.4527C11.3159 40.1069 11.8481 40.6392 12.5024 40.6392H16.2986C16.9529 40.6392 17.4852 40.1069 17.4852 39.4527V35.6565C17.4852 35.0022 16.9529 34.47 16.2986 34.47H12.5024C11.8481 34.47 11.3159 35.0022 11.3159 35.6565V39.4527ZM12.6342 35.7882H16.1668V39.3207H12.6342V35.7882Z" fill="white"/>
<path d="M9.26358 39.4527V35.6565C9.26358 35.0022 8.73132 34.47 8.07706 34.47H4.28088C3.62663 34.47 3.09436 35.0022 3.09436 35.6565V39.4527C3.09436 40.1069 3.62663 40.6392 4.28088 40.6392H8.07706C8.73132 40.6392 9.26358 40.1069 9.26358 39.4527ZM7.94522 39.3208H4.41272V35.7883H7.94522V39.3208Z" fill="white"/>
<path d="M19.5374 39.4527C19.5374 40.1069 20.0696 40.6392 20.7239 40.6392H24.5201C25.1743 40.6392 25.7066 40.1069 25.7066 39.4527V35.6565C25.7066 35.0022 25.1743 34.47 24.5201 34.47H20.7239C20.0696 34.47 19.5374 35.0022 19.5374 35.6565V39.4527ZM20.8557 35.7882H24.3882V39.3207H20.8557V35.7882Z" fill="white"/>
<path d="M28.9454 30.6739H32.7417C33.3959 30.6739 33.9282 30.1416 33.9282 29.4873V25.6912C33.9282 25.0369 33.3959 24.5046 32.7417 24.5046H28.9454C28.2912 24.5046 27.7589 25.0369 27.7589 25.6912V29.4873C27.7589 30.1416 28.2912 30.6739 28.9454 30.6739ZM29.0773 25.823H32.6099V29.3555H29.0773V25.823Z" fill="white"/>
<path d="M27.7589 39.4527C27.7589 40.1069 28.2912 40.6392 28.9454 40.6392H32.7417C33.3959 40.6392 33.9282 40.1069 33.9282 39.4527V35.6565C33.9282 35.0022 33.3959 34.47 32.7417 34.47H28.9454C28.2912 34.47 27.7589 35.0022 27.7589 35.6565V39.4527ZM29.0773 35.7882H32.6099V39.3207H29.0773V35.7882Z" fill="white"/>
</svg>
