<svg width="398" height="184" viewBox="0 0 398 184" fill="none" xmlns="http://www.w3.org/2000/svg">
<path d="M103.137 -31.5L158.667 75.2887L158.787 75.5194L158.667 75.7501L103.137 182.539H145.017L200.667 75.5194L145.017 -31.5L103.137 -31.5Z" stroke="#1B1919" stroke-opacity="0.15"/>
<path d="M-94.6144 -31.5L-39.0843 75.2887L-38.9643 75.5194L-39.0843 75.7501L-94.6144 182.539H-52.7338L2.9163 75.5194L-52.7338 -31.5L-94.6144 -31.5Z" stroke="#1B1919" stroke-opacity="0.15"/>
<path d="M201.699 -31.5L257.229 75.2887L257.349 75.5194L257.229 75.7501L201.699 182.539H243.58L299.23 75.5194L243.58 -31.5L201.699 -31.5Z" stroke="#1B1919" stroke-opacity="0.15"/>
<path d="M3.59236 -31.5L59.1225 75.2887L59.2424 75.5194L59.1225 75.7501L3.59236 182.539H45.473L101.123 75.5194L45.473 -31.5L3.59236 -31.5Z" stroke="#1B1919" stroke-opacity="0.15"/>
<path d="M299.906 -31.5L355.436 75.2887L355.556 75.5194L355.436 75.7501L299.906 182.539H341.786L397.436 75.5194L341.786 -31.5L299.906 -31.5Z" stroke="#1B1919" stroke-opacity="0.15"/>
</svg>
