<svg width="497" height="167" viewBox="0 0 497 167" fill="none" xmlns="http://www.w3.org/2000/svg">
<path d="M591.176 0.5L535.646 107.289L535.526 107.519L535.646 107.75L591.176 214.539H549.296L493.646 107.519L549.296 0.5L591.176 0.5Z" stroke="#1B1919" stroke-opacity="0.15"/>
<path d="M294.863 0.5L239.333 107.289L239.213 107.519L239.333 107.75L294.863 214.539H252.983L197.332 107.519L252.983 0.5L294.863 0.5Z" stroke="#1B1919" stroke-opacity="0.15"/>
<path d="M492.614 0.5L437.084 107.289L436.964 107.519L437.084 107.75L492.614 214.539H450.734L395.084 107.519L450.734 0.5L492.614 0.5Z" stroke="#1B1919" stroke-opacity="0.15"/>
<path d="M196.301 0.5L140.771 107.289L140.651 107.519L140.771 107.75L196.301 214.539H154.42L98.7702 107.519L154.42 0.5L196.301 0.5Z" stroke="#1B1919" stroke-opacity="0.15"/>
<path d="M394.407 0.5L338.877 107.289L338.757 107.519L338.877 107.75L394.407 214.539H352.527L296.877 107.519L352.527 0.5L394.407 0.5Z" stroke="#1B1919" stroke-opacity="0.15"/>
<path d="M98.0943 0.5L42.5642 107.289L42.4442 107.519L42.5642 107.75L98.0943 214.539H56.2136L0.56356 107.519L56.2136 0.5L98.0943 0.5Z" stroke="#1B1919" stroke-opacity="0.15"/>
</svg>
