<svg width="296" height="299" viewBox="0 0 296 299" fill="none" xmlns="http://www.w3.org/2000/svg">
<g opacity="0.6">
<path d="M111.416 187.64C108.398 203.578 92.9733 214.155 77.144 211.293C61.1915 208.527 50.8086 193.317 53.922 177.5C56.9399 161.562 72.3651 150.985 88.1944 153.848C104.024 156.71 114.407 171.921 111.416 187.64ZM87.7543 155.57C72.7723 153.023 58.2095 162.92 55.4255 177.888C52.6415 192.856 62.4788 207.12 77.3377 209.764C92.3197 212.312 106.882 202.414 109.666 187.446C112.669 172.503 102.736 158.117 87.7543 155.57Z" fill="#878787"/>
<path d="M107.165 187.058C104.67 200.619 91.4348 209.667 77.8608 207.387C64.2867 205.107 55.4046 192.055 57.8994 178.495C60.3942 164.934 73.6295 155.885 87.2036 158.166C100.778 160.446 109.783 173.4 107.165 187.058ZM87.0099 159.694C74.3107 157.511 62.0334 166.001 59.6493 178.689C57.2652 191.376 65.6017 203.481 78.3008 205.665C91 207.848 103.277 199.357 105.661 186.67C107.922 174.08 99.5858 161.974 87.0099 159.694Z" fill="#878787"/>
<path d="M98.7172 185.457C96.9266 194.336 88.4132 200.255 79.5004 198.824C70.6153 197.174 64.8029 188.78 66.3747 179.877C68.1653 170.999 76.6787 165.079 85.5915 166.511C94.5998 168.063 100.508 176.578 98.7172 185.457ZM85.2746 168.136C77.2368 166.802 69.4626 172.139 68.0014 180.168C66.5403 188.198 71.7795 195.864 79.8173 197.198C87.8552 198.532 95.6294 193.196 97.0905 185.166C98.6472 177.257 93.408 169.592 85.2746 168.136Z" fill="#878787"/>
<path d="M92.9621 184.487C91.9008 190.236 86.3165 194.045 80.5616 193.074C74.8066 192.104 71.0682 186.597 72.1295 180.848C73.1908 175.098 78.7751 171.29 84.53 172.26C90.285 173.231 94.1466 178.64 92.9621 184.487Z" fill="#878787"/>
<path d="M61.5147 128.084C64.552 126.871 67.5615 125.877 70.6389 125.222L72.4588 133.615C75.8781 132.888 79.3654 132.5 82.8249 132.33L82.8103 123.694C86.0234 123.718 89.1134 123.839 92.2712 124.3L90.8502 132.888C91.2877 132.936 91.7252 132.985 92.0395 133.13C95.0741 133.688 98.081 134.465 100.937 135.556L104.08 127.381C107.032 128.594 109.984 129.807 112.661 131.432L108.165 138.904C111.157 140.675 113.998 142.761 116.497 144.92L122.413 138.492C124.694 140.626 126.946 142.98 128.857 145.405L121.958 150.839C124.059 153.508 126.01 156.492 127.619 159.548L135.446 155.546C136.864 158.36 138.035 161.368 138.988 164.352L130.671 166.972C131.692 170.295 132.37 173.691 132.707 177.16L141.363 176.239C141.632 179.368 141.778 182.594 141.486 185.772L132.9 185.263C132.774 187.131 132.525 189.096 132.153 191.158C131.959 192.686 131.547 194.19 131.039 195.573L139.404 197.829C138.579 200.837 137.412 203.918 136.054 206.756L128.293 203.239C126.785 206.392 124.962 209.4 122.948 212.166L129.831 217.357C127.845 219.904 125.763 222.33 123.49 224.514L117.496 218.425C114.977 220.802 112.143 223.034 109.242 224.926L113.757 232.179C111.102 233.878 108.256 235.333 105.314 236.667L102.003 228.662C98.843 229.972 95.4915 231.039 92.0721 231.767L93.55 240.233C90.4726 240.888 87.2041 241.301 84.0865 241.398L83.8531 232.737C80.3935 232.907 76.9893 232.64 73.5172 232.034L72.0007 240.5L71.782 240.476C68.6242 240.015 65.5217 239.117 62.5424 238.123L65.4669 229.923C62.1733 228.783 59.0306 227.327 56.162 225.46L51.5707 232.81C48.8931 231.185 46.2433 229.341 43.963 227.206L49.6882 220.535C47.0936 218.255 44.7455 215.78 42.5482 212.99L35.5534 218.303C33.6427 215.877 31.883 213.136 30.4651 210.322L38.1965 206.198C36.5875 203.141 35.3205 200.012 34.4231 196.591L26.0105 199.09C25.181 196.009 24.5702 192.953 24.2058 189.702L32.7667 188.659C32.3068 185.287 32.312 181.745 32.7546 178.252L24.1963 177.524C24.4177 175.777 24.5435 173.909 24.9835 172.187C25.2728 170.78 25.5343 169.591 25.8235 168.184L34.2158 170.222C35.096 166.777 36.3859 163.599 37.8946 160.446L30.1611 156.71C31.5189 153.871 33.3142 151.082 35.0818 148.51L42.1163 153.386C44.2535 150.524 46.5818 147.904 49.1012 145.527L43.354 139.243C45.627 137.06 48.3098 135.144 50.8693 133.324L55.6032 140.602C58.5047 138.71 61.5972 137.06 64.8809 135.653L61.5147 128.084ZM40.3477 175.219C35.9517 198.532 51.3148 220.826 74.5258 224.95C97.8599 228.977 120.471 213.33 124.963 190.139C129.359 166.826 113.995 144.532 90.7845 140.408C67.3548 136.26 44.7437 151.907 40.3477 175.219Z" fill="#878787"/>
</g>
<path d="M303.313 159.21C298.084 188.044 270.385 206.995 241.772 201.592C212.938 196.363 193.988 168.664 199.391 140.051C204.62 111.217 232.319 92.2664 260.932 97.6695C289.544 103.073 308.495 130.772 303.313 159.21ZM260.161 100.784C233.082 95.9637 206.93 113.696 202.11 140.775C197.29 167.854 215.243 193.831 242.101 198.826C269.18 203.646 295.331 185.914 300.151 158.835C305.367 131.803 287.24 105.604 260.161 100.784Z" fill="#878787"/>
<path d="M295.63 158.097C291.313 182.631 267.546 198.843 243.012 194.525C218.478 190.208 202.266 166.441 206.584 141.907C210.901 117.373 234.668 101.162 259.202 105.479C283.736 109.796 300.169 133.389 295.63 158.097ZM258.873 108.245C235.92 104.116 213.875 119.33 209.745 142.283C205.615 165.236 220.83 187.281 243.783 191.411C266.736 195.541 288.781 180.327 292.911 157.373C296.82 134.594 281.605 112.549 258.873 108.245Z" fill="#878787"/>
<path d="M280.36 155.081C277.249 171.142 261.963 181.749 245.855 179.034C229.794 175.923 219.187 160.637 221.902 144.529C225.012 128.467 240.299 117.86 256.407 120.576C272.689 123.512 283.47 139.019 280.36 155.081ZM255.857 123.516C241.33 120.988 227.37 130.551 224.842 145.078C222.315 159.606 231.877 173.566 246.405 176.093C260.932 178.621 274.892 169.058 277.42 154.531C280.121 140.225 270.559 126.264 255.857 123.516Z" fill="#878787"/>
<path d="M269.958 153.243C268.121 163.645 258.093 170.469 247.691 168.632C237.29 166.795 230.466 156.767 232.303 146.365C234.14 135.964 244.168 129.14 254.57 130.977C264.971 132.814 272.016 142.668 269.958 153.243Z" fill="#878787"/>
<path d="M212.419 50.6279C217.885 48.4721 223.304 46.7114 228.85 45.567L232.25 60.7986C238.413 59.527 244.702 58.8716 250.945 58.6114L250.8 42.965C256.6 43.053 262.18 43.3152 267.886 44.1935L265.439 59.7324C266.229 59.8263 267.02 59.9202 267.589 60.1882C273.074 61.2406 278.513 62.6883 283.683 64.7052L289.245 49.9371C294.59 52.1751 299.934 54.4131 304.79 57.3945L296.777 70.8694C302.202 74.1188 307.358 77.9375 311.899 81.8833L322.49 70.3177C326.636 74.2165 330.734 78.5106 334.216 82.9318L321.837 92.682C325.667 97.5453 329.23 102.978 332.176 108.538L346.25 101.393C348.848 106.511 351.003 111.977 352.764 117.396L337.787 122.028C339.674 128.063 340.946 134.226 341.601 140.515L357.215 138.964C357.743 144.637 358.05 150.484 357.567 156.238L342.061 155.197C341.86 158.58 341.437 162.136 340.794 165.867C340.465 168.633 339.741 171.352 338.843 173.85L353.973 178.052C352.526 183.491 350.462 189.057 348.05 194.18L333.992 187.701C331.312 193.394 328.062 198.819 324.465 203.801L336.961 213.301C333.411 217.888 329.686 222.255 325.613 226.179L314.711 215.066C310.195 219.338 305.111 223.343 299.9 226.731L308.149 239.934C303.38 242.974 298.262 245.572 292.97 247.949L286.884 233.4C281.197 235.73 275.162 237.618 269 238.889L271.784 254.248C266.238 255.393 260.343 256.095 254.717 256.228L254.177 240.535C247.935 240.795 241.786 240.265 235.51 239.118L232.889 254.436L232.494 254.389C226.787 253.511 221.175 251.842 215.783 249.999L220.95 235.184C214.989 233.074 209.296 230.393 204.092 226.97L195.905 240.224C191.05 237.243 186.241 233.866 182.096 229.967L192.339 217.959C187.624 213.792 183.351 209.277 179.347 204.193L166.793 213.722C163.311 209.301 160.097 204.31 157.499 199.193L171.398 191.827C168.452 186.268 166.122 180.581 164.456 174.371L149.304 178.783C147.764 173.19 146.62 167.644 145.918 161.749L161.357 159.977C160.48 153.862 160.441 147.445 161.192 141.122L145.734 139.686C146.109 136.525 146.311 133.143 147.082 130.028C147.584 127.483 148.04 125.333 148.543 122.788L163.72 126.595C165.261 120.366 167.546 114.626 170.226 108.933L156.215 102.059C158.628 96.9355 161.83 91.9059 164.985 87.2714L177.75 96.2018C181.569 91.045 185.736 86.3304 190.251 82.0578L179.791 70.5959C183.864 66.6716 188.68 63.2363 193.275 59.9752L201.92 73.2251C207.132 69.8368 212.691 66.8906 218.599 64.3865L212.419 50.6279ZM174.857 135.733C167.241 177.908 195.279 218.509 237.234 226.299C279.409 233.915 320.01 205.877 327.8 163.922C335.416 121.747 307.378 81.1458 265.423 73.356C223.073 65.5192 182.473 93.5569 174.857 135.733Z" fill="#878787"/>
</svg>
