<svg width="320" height="232" viewBox="0 0 320 232" fill="none" xmlns="http://www.w3.org/2000/svg">
<path d="M1.50837 0.5L61.4484 115.769L61.5684 116L61.4484 116.231L1.50838 231.5H46.7812L106.841 116L46.7813 0.5L1.50837 0.5Z" stroke="white" stroke-opacity="0.3"/>
<path d="M107.845 0.5L167.785 115.769L167.905 116L167.785 116.231L107.845 231.5H153.118L213.178 116L153.118 0.5L107.845 0.5Z" stroke="white" stroke-opacity="0.3"/>
<path d="M-105.887 0.5L-45.9475 115.769L-45.8275 116L-45.9475 116.231L-105.887 231.5H-60.6146L-0.554626 116L-60.6146 0.5L-105.887 0.5Z" stroke="white" stroke-opacity="0.3"/>
<path d="M213.797 0.5L273.738 115.769L273.857 116L273.738 116.231L213.798 231.5H259.07L319.13 116L259.07 0.5L213.797 0.5Z" stroke="white" stroke-opacity="0.3"/>
</svg>
