<svg width="458" height="215" viewBox="0 0 458 215" fill="none" xmlns="http://www.w3.org/2000/svg">
<path d="M163.137 0.5L218.667 107.289L218.787 107.519L218.667 107.75L163.137 214.539H205.017L260.667 107.519L205.017 0.5L163.137 0.5Z" stroke="#1B1919" stroke-opacity="0.15"/>
<path d="M-34.6144 0.5L20.9157 107.289L21.0357 107.519L20.9157 107.75L-34.6144 214.539H7.26621L62.9163 107.519L7.26621 0.5L-34.6144 0.5Z" stroke="#1B1919" stroke-opacity="0.15"/>
<path d="M261.699 0.5L317.229 107.289L317.349 107.519L317.229 107.75L261.699 214.539H303.58L359.23 107.519L303.58 0.5L261.699 0.5Z" stroke="#1B1919" stroke-opacity="0.15"/>
<path d="M63.5924 0.5L119.122 107.289L119.242 107.519L119.122 107.75L63.5924 214.539H105.473L161.123 107.519L105.473 0.5L63.5924 0.5Z" stroke="#1B1919" stroke-opacity="0.15"/>
<path d="M359.906 0.5L415.436 107.289L415.556 107.519L415.436 107.75L359.906 214.539H401.786L457.436 107.519L401.786 0.5L359.906 0.5Z" stroke="#1B1919" stroke-opacity="0.15"/>
</svg>
