<svg width="492" height="195" viewBox="0 0 492 195" fill="none" xmlns="http://www.w3.org/2000/svg">
<path d="M294.863 -20.5L239.333 86.2887L239.213 86.5194L239.333 86.7501L294.863 193.539H252.983L197.333 86.5194L252.983 -20.5L294.863 -20.5Z" stroke="#1B1919" stroke-opacity="0.15"/>
<path d="M492.614 -20.5L437.084 86.2887L436.964 86.5194L437.084 86.7501L492.614 193.539H450.734L395.084 86.5194L450.734 -20.5L492.614 -20.5Z" stroke="#1B1919" stroke-opacity="0.15"/>
<path d="M196.301 -20.5L140.771 86.2887L140.651 86.5194L140.771 86.7501L196.301 193.539H154.42L98.7702 86.5194L154.42 -20.5L196.301 -20.5Z" stroke="#1B1919" stroke-opacity="0.15"/>
<path d="M394.408 -20.5L338.877 86.2887L338.757 86.5194L338.877 86.7501L394.408 193.539H352.527L296.877 86.5194L352.527 -20.5L394.408 -20.5Z" stroke="#1B1919" stroke-opacity="0.15"/>
<path d="M56.2138 -20.5L98.0944 -20.5L42.5643 86.2887L42.4443 86.5194L42.5643 86.7501L98.0944 193.539H56.2138L0.563683 86.5194L56.2138 -20.5Z" stroke="#1B1919" stroke-opacity="0.15"/>
</svg>
