<svg width="193" height="132" viewBox="0 0 193 132" fill="none" xmlns="http://www.w3.org/2000/svg">
<g opacity="0.7">
<path d="M35.8884 116.669C19.6349 132.776 -6.74824 132.73 -22.8527 116.744C-39.1779 100.772 -39.0783 74.7936 -22.8108 58.9043C-6.55741 42.7977 19.8258 42.8437 35.9302 58.8297C52.0346 74.8158 51.9351 100.794 35.8884 116.669ZM34.0413 60.4792C18.6692 45.5373 -6.16859 45.3916 -21.3742 60.5578C-36.5798 75.7239 -36.5567 100.167 -21.4053 115.123C-6.03323 130.065 18.8046 130.21 34.0102 115.044C49.4506 100.081 49.4135 75.4212 34.0413 60.4792Z" fill="#878787"/>
<path d="M31.4136 112.592C17.6693 126.355 -4.94686 126.284 -18.8963 112.778C-32.8458 99.2726 -32.7289 77.0033 -18.9847 63.2409C-5.24037 49.4784 17.3758 49.549 31.3253 63.0548C45.2748 76.5606 45.3786 98.8157 31.4136 112.592ZM29.8779 64.6758C16.8675 51.9825 -4.18924 52.0297 -17.1065 64.8659C-30.0237 77.702 -30.0179 98.4356 -17.0075 111.129C-3.9971 123.822 17.0597 123.775 29.977 110.939C42.6734 98.1169 42.6676 77.3834 29.8779 64.6758Z" fill="#878787"/>
<path d="M22.878 103.976C13.6965 112.861 -0.930117 112.93 -10.1422 104.139C-19.1475 95.1161 -19.1887 80.7141 -10.242 71.6258C-1.06042 62.7406 13.5662 62.6712 22.7782 71.4625C32.0043 80.4711 32.0595 95.0905 22.878 103.976ZM21.1101 73.0977C12.8371 65.119 -0.464844 65.103 -8.58456 73.265C-16.7043 81.427 -16.7471 94.5249 -8.47408 102.504C-0.201095 110.482 13.1009 110.498 21.2206 102.336C29.3543 94.3917 29.3971 81.2939 21.1101 73.0977Z" fill="#878787"/>
<path d="M16.9666 98.2453C11.1353 104.077 1.60032 104.037 -4.31095 98.3067C-10.2222 92.5765 -10.1621 83.1878 -4.33079 77.3558C1.50054 71.5238 11.0355 71.5641 16.9468 77.2943C22.858 83.0245 23.0187 92.399 16.9666 98.2453Z" fill="#878787"/>
<path d="M25.5325 7.55515C30.0319 8.57477 34.3245 9.82594 38.4243 11.526L33.8261 22.7349C38.3815 24.6239 42.7441 26.9619 46.8999 29.5314L53.7898 19.4843C57.5041 22.0823 60.9977 24.6945 64.2984 27.7556L55.7792 36.5981C56.2487 37.0043 56.7183 37.4106 56.9671 37.8311C60.0471 40.9064 62.9203 44.2133 65.3661 47.766L75.5567 40.7801C78.0165 44.5501 80.4762 48.3202 82.2876 52.3502L71.0879 57.4369C73.1481 61.8875 74.7808 66.5838 75.958 71.0913L87.9741 68.3528C88.9165 72.6571 89.6521 77.193 89.9322 81.54L77.5693 82.3366C77.8774 87.1183 77.758 92.1457 77.183 96.9843L89.4792 98.5928C88.8762 102.997 87.8317 107.429 86.5524 111.658L74.7925 108.051C73.3204 112.729 71.3929 117.218 69.0098 121.519L79.8059 127.371C77.6155 131.222 75.2044 135.088 72.3238 138.547L62.7542 131.088C61.1141 133.158 59.2533 135.242 57.1717 137.341C55.7243 138.962 54.0422 140.38 52.3461 141.58L60.2616 150.892C56.8974 153.727 53.0777 156.374 49.2299 158.587L43.0245 148.292C38.7493 150.75 34.2252 152.788 29.6732 154.39L33.5201 165.928C29.1748 167.299 24.8155 168.453 20.4282 169.172L18.3334 157.304C13.5045 158.051 8.42692 158.378 3.54206 158.257L2.98771 170.296C-1.45562 170.146 -5.92695 169.561 -10.4123 168.759L-7.85704 156.809C-12.5772 155.803 -17.3253 154.363 -21.8806 152.474L-26.9343 163.494C-31.0342 161.794 -35.162 159.659 -38.8623 157.278L-32.2072 147.028C-36.3631 144.459 -40.1054 141.426 -43.655 137.945L-52.1882 146.57L-52.423 146.367C-55.7238 143.306 -58.611 139.781 -61.2775 136.243L-51.3217 129.054C-54.237 125.095 -56.7247 120.89 -58.5641 116.425L-69.7779 121.295C-71.5893 117.265 -73.194 113.003 -74.1364 108.699L-62.1483 105.525C-63.3395 100.801 -64.0891 96.0473 -64.4112 91.0483L-76.7881 91.6275C-77.0682 87.2805 -76.9208 82.6877 -76.3178 78.2838L-64.0356 79.675C-63.4607 74.8364 -62.4302 70.1867 -60.7374 65.4943L-72.5113 61.6696C-71.0112 57.4262 -69.2764 53.3859 -67.1001 49.3171L-56.318 54.9517C-54.1556 50.6656 -51.317 46.5541 -48.0088 42.8489L-57.3716 35.1586C-55.7175 33.306 -54.0774 31.2361 -52.1886 29.5866C-50.7272 28.1829 -49.4727 27.0109 -48.0113 25.6072L-39.8891 34.6869C-36.1114 31.388 -32.0708 28.7269 -27.7956 26.2689L-33.7942 15.7428C-29.9464 13.5306 -25.6292 11.7247 -21.5186 10.1503L-17.2441 21.4422C-12.4713 19.8252 -7.67047 18.6429 -2.84163 17.8952L-4.49494 5.9979C-0.107627 5.2787 4.54246 5.19733 8.97178 5.1302L8.6522 17.3729C13.5371 17.4947 18.4499 18.0511 23.3908 19.0423L25.5325 7.55515ZM-36.7604 45.398C-60.5133 68.9719 -60.4909 107.165 -36.8178 130.52C-12.924 153.861 25.8641 153.763 49.631 130.406C73.3839 106.832 73.3615 68.6395 49.6884 45.2841C25.7805 21.7256 -13.0076 21.824 -36.7604 45.398Z" fill="#878787"/>
</g>
<g opacity="0.7">
<path d="M154.617 154.559C144.257 164.826 127.439 164.797 117.174 154.607C106.768 144.426 106.831 127.867 117.201 117.739C127.561 107.472 144.378 107.501 154.644 117.691C164.909 127.881 164.846 144.44 154.617 154.559ZM153.44 118.742C143.641 109.218 127.809 109.125 118.116 118.793C108.424 128.46 108.439 144.04 118.097 153.574C127.895 163.098 143.727 163.191 153.42 153.524C163.262 143.986 163.238 128.267 153.44 118.742Z" fill="#878787"/>
<path d="M151.765 151.961C143.004 160.733 128.588 160.688 119.696 152.079C110.804 143.47 110.879 129.275 119.64 120.503C128.401 111.73 142.817 111.775 151.709 120.384C160.6 128.993 160.667 143.179 151.765 151.961ZM150.786 121.417C142.493 113.326 129.071 113.356 120.837 121.539C112.603 129.721 112.607 142.937 120.9 151.028C129.193 159.119 142.615 159.089 150.849 150.907C158.942 142.734 158.938 129.518 150.786 121.417Z" fill="#878787"/>
<path d="M146.324 146.469C140.471 152.132 131.148 152.177 125.276 146.573C119.536 140.821 119.51 131.641 125.212 125.848C131.065 120.184 140.388 120.14 146.26 125.744C152.141 131.486 152.176 140.805 146.324 146.469ZM145.197 126.786C139.924 121.7 131.445 121.69 126.269 126.893C121.093 132.096 121.066 140.445 126.339 145.53C131.613 150.616 140.092 150.626 145.267 145.424C150.452 140.36 150.479 132.011 145.197 126.786Z" fill="#878787"/>
<path d="M142.556 142.816C138.839 146.533 132.761 146.507 128.993 142.855C125.225 139.202 125.263 133.218 128.98 129.5C132.697 125.783 138.775 125.809 142.543 129.461C146.311 133.114 146.414 139.089 142.556 142.816Z" fill="#878787"/>
<path d="M148.016 85.0075C150.884 85.6575 153.62 86.455 156.234 87.5387L153.303 94.6835C156.207 95.8876 158.987 97.3779 161.636 99.0157L166.028 92.6115C168.396 94.2675 170.623 95.9326 172.727 97.8838L167.296 103.52C167.596 103.779 167.895 104.038 168.053 104.306C170.017 106.266 171.848 108.374 173.407 110.639L179.903 106.186C181.471 108.589 183.039 110.992 184.193 113.561L177.054 116.803C178.368 119.64 179.408 122.634 180.159 125.507L187.818 123.761C188.419 126.505 188.888 129.396 189.066 132.167L181.186 132.675C181.382 135.723 181.306 138.928 180.94 142.012L188.777 143.037C188.393 145.844 187.727 148.67 186.912 151.365L179.416 149.066C178.477 152.048 177.249 154.91 175.73 157.651L182.611 161.381C181.215 163.836 179.678 166.3 177.842 168.505L171.742 163.751C170.697 165.07 169.511 166.399 168.184 167.736C167.261 168.769 166.189 169.673 165.108 170.439L170.153 176.374C168.009 178.181 165.574 179.869 163.122 181.279L159.166 174.717C156.441 176.284 153.557 177.582 150.656 178.604L153.108 185.958C150.338 186.832 147.559 187.568 144.763 188.026L143.427 180.461C140.349 180.937 137.113 181.146 133.999 181.068L133.646 188.743C130.813 188.647 127.963 188.274 125.104 187.763L126.733 180.145C123.724 179.505 120.698 178.587 117.794 177.382L114.573 184.407C111.959 183.323 109.328 181.962 106.969 180.445L111.211 173.911C108.562 172.273 106.177 170.34 103.914 168.121L98.4751 173.619L98.3255 173.489C96.2215 171.538 94.3811 169.292 92.6814 167.036L99.0275 162.454C97.1692 159.93 95.5835 157.25 94.4109 154.404L87.263 157.508C86.1084 154.939 85.0855 152.223 84.4848 149.479L92.1263 147.456C91.367 144.445 90.8892 141.415 90.6839 138.228L82.7945 138.597C82.616 135.826 82.71 132.899 83.0943 130.092L90.9233 130.979C91.2898 127.894 91.9466 124.93 93.0257 121.939L85.5207 119.501C86.4768 116.797 87.5827 114.221 88.9699 111.628L95.8427 115.219C97.221 112.487 99.0305 109.866 101.139 107.505L95.1711 102.603C96.2254 101.422 97.2709 100.102 98.4749 99.051C99.4064 98.1562 100.206 97.4091 101.138 96.5144L106.315 102.302C108.723 100.199 111.298 98.5029 114.024 96.9362L110.2 90.2266C112.653 88.8164 115.405 87.6653 118.025 86.6618L120.749 93.8595C123.792 92.8288 126.852 92.0751 129.93 91.5986L128.876 84.0149C131.673 83.5565 134.637 83.5046 137.46 83.4618L137.256 91.2656C140.37 91.3432 143.502 91.6979 146.651 92.3297L148.016 85.0075ZM108.309 109.129C93.1685 124.156 93.1827 148.501 108.273 163.388C123.503 178.267 148.228 178.204 163.377 163.316C178.518 148.289 178.504 123.944 163.414 109.057C148.174 94.0401 123.45 94.1029 108.309 109.129Z" fill="#878787"/>
</g>
</svg>
