<svg width="293" height="125" viewBox="0 0 293 125" fill="none" xmlns="http://www.w3.org/2000/svg">
<g opacity="0.7">
<path d="M204.383 151.725C219.344 175.238 250.692 182.298 274.13 167.653C297.827 153.086 304.713 122.204 289.677 98.9455C274.716 75.4327 243.368 68.3733 219.93 83.0175C196.492 97.6617 189.605 128.543 204.383 151.725ZM221.728 85.4859C244.015 71.8843 273.554 78.4088 287.525 100.522C301.495 122.635 294.877 151.66 272.848 165.338C250.562 178.939 221.022 172.415 207.052 150.302C192.748 128.367 199.442 99.0875 221.728 85.4859Z" fill="#878787"/>
<path d="M210.797 148.09C223.41 168.142 250.291 174.156 270.501 161.877C290.71 149.597 296.576 123.116 283.963 103.064C271.35 83.0124 244.469 76.9978 224.26 89.2774C204.05 101.557 197.926 127.961 210.797 148.09ZM225.542 91.593C244.417 80.0252 269.414 85.7592 281.294 104.488C293.175 123.217 287.577 147.841 268.702 159.408C249.827 170.976 224.83 165.242 212.949 146.513C201.327 127.861 206.925 103.237 225.542 91.593Z" fill="#878787"/>
<path d="M223.258 140.157C231.767 153.186 249.121 157.213 262.433 149.255C275.561 140.967 279.494 123.873 271.318 110.666C262.809 97.637 245.456 93.6105 232.144 101.568C218.757 109.78 214.749 127.129 223.258 140.157ZM233.684 103.96C245.661 96.7143 261.465 100.282 268.908 112.166C276.351 124.049 272.87 139.617 260.892 146.863C248.915 154.109 233.112 150.541 225.669 138.657C218.151 127.028 221.631 111.46 233.684 103.96Z" fill="#878787"/>
<path d="M231.825 134.945C237.178 143.445 248.514 145.968 257.08 140.756C265.646 135.544 268.106 124.377 262.753 115.878C257.399 107.378 246.064 104.855 237.498 110.067C228.932 115.279 226.213 126.37 231.825 134.945Z" fill="#878787"/>
<path d="M246.105 24.9217C240.486 24.9195 235.05 25.248 229.723 26.1618L232.161 40.7146C226.242 41.7298 220.43 43.3302 214.801 45.2614L209.327 31.4707C204.215 33.5547 199.361 35.7152 194.615 38.4609L202.349 51.2604C201.682 51.6163 201.015 51.9722 200.606 52.4045C196.119 55.2266 191.814 58.3795 187.952 61.9396L177.732 50.8944C173.794 54.7089 169.856 58.5233 166.618 62.8214L178.548 71.8829C174.901 76.6133 171.695 81.751 169.082 86.7871L155.549 80.2945C153.269 85.1526 151.172 90.3416 149.667 95.4291L164.136 99.7088C162.481 105.305 161.267 111.308 160.645 117.21L145.607 115.805C145.135 121.198 145.181 126.744 145.56 132.112L160.5 130.999C160.987 136.952 162.066 142.804 163.737 148.554L149.336 152.593C150.899 157.758 152.72 163 155.209 167.885L168.586 161.607C169.976 164.507 171.624 167.485 173.53 170.538C174.812 172.854 176.428 174.991 178.119 176.875L166.207 185.799C169.438 190.075 173.261 194.248 177.234 197.913L187.38 187.36C191.795 191.432 196.619 195.072 201.593 198.203L193.913 210.869C198.704 213.669 203.571 216.215 208.588 218.253L214.276 204.721C219.81 206.911 225.752 208.669 231.587 209.841L228.999 224.29C234.317 225.31 239.785 225.821 245.329 226.077L245.516 211.195C251.394 211.274 257.421 210.844 263.341 209.828L266.372 224.28C271.7 223.366 277.178 221.943 282.215 220.114L277.075 206.145C282.703 204.214 287.966 201.621 293.121 198.443L300.93 210.988L301.263 210.81C306.009 208.064 310.389 204.657 314.51 201.174L304.624 189.951C309.154 186.035 313.242 181.711 316.631 176.904L328.637 185.712C331.875 181.413 334.93 176.785 337.21 171.926L323.827 164.925C326.516 159.634 328.688 154.191 330.418 148.341L344.962 152.366C346.467 147.278 347.531 141.784 348.002 136.391L333.039 134.731C333.661 128.829 333.691 123.029 332.946 116.999L347.961 115.631C347.324 110.187 346.353 104.92 344.865 99.5011L330.539 103.286C329.127 97.6122 326.864 91.9636 323.934 86.6708L337.128 80.0616C335.663 77.4152 334.273 74.5145 332.474 72.0461C331.117 69.9849 329.943 68.2545 328.586 66.1933L316.491 74.7873C312.894 69.8504 308.812 65.6003 304.397 61.5281L314.36 50.6436C310.387 46.9786 305.746 43.6696 301.288 40.6913L293.167 52.9502C287.934 49.7427 282.551 47.0439 277.017 44.8538L282.189 31.169C277.172 29.1318 271.671 27.7813 266.428 26.5072L263.507 41.1341C257.672 39.9615 251.687 39.2977 245.551 39.1426L246.105 24.9217ZM309.887 86.6652C331.742 121.069 321.417 166.425 287.002 187.781C252.329 209.061 206.287 198.485 184.357 164.335C162.502 129.931 172.827 84.5753 207.241 63.2193C241.989 41.6852 288.032 52.2613 309.887 86.6652Z" fill="#878787"/>
</g>
<g opacity="0.7">
<path d="M53.1505 164.713C62.6871 179.701 82.6691 184.201 97.6091 174.866C112.714 165.58 117.104 145.895 107.519 131.07C97.9822 116.082 78.0002 111.582 63.0603 120.917C48.1203 130.252 43.7305 149.936 53.1505 164.713ZM64.2068 122.49C78.4129 113.82 97.242 117.979 106.147 132.075C115.052 146.17 110.833 164.671 96.792 173.39C82.5859 182.06 63.7568 177.901 54.8517 163.806C45.734 149.824 50.0007 131.16 64.2068 122.49Z" fill="#878787"/>
<path d="M57.2389 162.396C65.2789 175.177 82.4132 179.011 95.2954 171.184C108.178 163.357 111.917 146.477 103.877 133.696C95.8368 120.914 78.7025 117.08 65.8203 124.907C52.9381 132.735 49.0342 149.566 57.2389 162.396ZM66.6374 126.383C78.669 119.01 94.6025 122.665 102.176 134.603C109.749 146.541 106.18 162.237 94.1489 169.611C82.1173 176.984 66.1838 173.329 58.6107 161.391C51.2024 149.502 54.7705 133.806 66.6374 126.383Z" fill="#878787"/>
<path d="M65.1821 157.34C70.606 165.645 81.6675 168.211 90.1528 163.139C98.5214 157.856 101.028 146.959 95.8167 138.541C90.3928 130.236 79.3313 127.67 70.846 132.742C62.3128 137.976 59.7582 149.035 65.1821 157.34ZM71.8278 134.267C79.4625 129.648 89.5358 131.922 94.2802 139.497C99.0246 147.072 96.8057 156.995 89.171 161.614C81.5363 166.233 71.463 163.958 66.7186 156.383C61.9263 148.971 64.1452 139.047 71.8278 134.267Z" fill="#878787"/>
<path d="M79.745 83.8856C76.1634 83.8842 72.6985 84.0936 69.3024 84.6761L70.857 93.9524C67.0836 94.5995 63.3789 95.6197 59.791 96.8507L56.3017 88.0601C53.0431 89.3885 49.9493 90.7657 46.9242 92.5158L51.8541 100.675C51.4288 100.901 51.0034 101.128 50.7428 101.404C47.8824 103.203 45.1387 105.212 42.6765 107.482L36.1622 100.441C33.6519 102.873 31.1417 105.304 29.0777 108.044L36.6824 113.82C34.3577 116.835 32.3144 120.11 30.6485 123.32L22.0221 119.182C20.5688 122.278 19.2322 125.586 18.273 128.829L27.4958 131.557C26.4406 135.124 25.6669 138.951 25.2705 142.713L15.6849 141.817C15.3845 145.255 15.4134 148.79 15.655 152.212L25.1782 151.502C25.4886 155.297 26.1763 159.027 27.2413 162.692L18.062 165.267C19.0583 168.559 20.2192 171.9 21.8055 175.014L30.3324 171.012C31.2183 172.861 32.2689 174.759 33.4841 176.705C34.3013 178.181 35.331 179.544 36.4088 180.744L28.8157 186.433C30.8753 189.158 33.3121 191.819 35.8449 194.155L42.3123 187.428C45.1265 190.023 48.2014 192.344 51.3721 194.339L46.4766 202.413C49.5306 204.198 52.6326 205.821 55.8305 207.12L59.4565 198.494C62.9838 199.89 66.7717 201.01 70.4909 201.758L68.8412 210.968C72.2309 211.618 75.7166 211.944 79.2502 212.107L79.3697 202.621C83.116 202.671 86.9582 202.397 90.7317 201.75L92.6636 210.961C96.0597 210.379 99.5517 209.472 102.762 208.306L99.4857 199.402C103.074 198.171 106.428 196.518 109.714 194.492L114.692 202.489L114.904 202.376C117.929 200.625 120.721 198.454 123.348 196.233L117.046 189.079C119.934 186.583 122.54 183.827 124.7 180.763L132.353 186.377C134.417 183.637 136.364 180.687 137.817 177.59L129.287 173.127C131.001 169.755 132.385 166.285 133.488 162.556L142.759 165.122C143.718 161.879 144.396 158.376 144.697 154.939L135.159 153.881C135.555 150.119 135.574 146.422 135.099 142.578L144.67 141.706C144.264 138.236 143.645 134.879 142.697 131.424L133.566 133.837C132.665 130.22 131.223 126.62 129.355 123.246L137.765 119.033C136.831 117.346 135.946 115.497 134.799 113.924C133.934 112.61 133.186 111.507 132.321 110.193L124.611 115.671C122.318 112.524 119.716 109.815 116.902 107.219L123.253 100.281C120.72 97.9453 117.762 95.836 114.92 93.9375L109.743 101.752C106.408 99.7071 102.976 97.9868 99.4491 96.5908L102.746 87.8678C99.5478 86.5692 96.0413 85.7084 92.6995 84.8962L90.8372 94.2198C87.1181 93.4724 83.303 93.0492 79.392 92.9504L79.745 83.8856ZM120.401 123.242C134.332 145.172 127.75 174.083 105.814 187.696C83.7124 201.26 54.3638 194.519 40.385 172.751C26.4541 150.821 33.0356 121.91 54.9723 108.297C77.1216 94.5711 106.47 101.313 120.401 123.242Z" fill="#878787"/>
</g>
</svg>
