<svg width="734" height="470" viewBox="0 0 734 470" fill="none" xmlns="http://www.w3.org/2000/svg">
<path d="M52.985 1.65993C68.8746 15.7161 93.3201 14.1882 107.376 -1.70134C121.432 -17.5909 119.905 -42.0364 104.015 -56.0926C88.1254 -70.1487 63.6799 -68.6208 49.6238 -52.7313C35.5676 -36.8417 37.0954 -12.3962 52.985 1.65993ZM51.1516 -51.2034C64.2911 -66.1763 87.2087 -67.7042 102.487 -54.5647C117.46 -41.4253 118.988 -18.5076 105.848 -3.22918C92.7089 11.7437 69.7913 13.2715 54.5129 0.13209C39.54 -13.3129 38.0122 -36.2306 51.1516 -51.2034Z" fill="url(#paint0_radial)"/>
<path d="M56.059 -2.90166C69.5853 9.04615 90.4896 7.82073 102.786 -5.9652C114.775 -19.4448 113.546 -40.2768 99.7121 -52.531C86.1858 -64.4788 65.2815 -63.2533 52.9848 -49.4674C41.303 -35.6815 42.5327 -14.8495 56.059 -2.90166ZM54.8293 -47.9356C66.2037 -60.4962 85.5709 -61.7216 98.4824 -50.6929C111.086 -39.3578 112.316 -20.0575 101.249 -7.1906C89.8748 5.36992 70.5075 6.59531 57.5961 -4.43343C44.992 -15.7685 43.7623 -35.0688 54.8293 -47.9356Z" fill="url(#paint1_radial)"/>
<g opacity="0.6">
<g opacity="0.6">
<path opacity="0.6" d="M410.559 108.097C423.978 108.097 435.042 97.0322 435.042 83.6135C435.042 70.1948 423.978 59.1303 410.559 59.1303C397.14 59.1303 386.076 70.1948 386.076 83.6135C386.076 97.2676 396.905 108.097 410.559 108.097ZM410.559 74.1969C415.738 74.1969 419.976 78.4344 419.976 83.6135C419.976 88.7926 415.738 93.0301 410.559 93.0301C405.38 93.0301 401.142 88.7926 401.142 83.6135C400.907 78.4344 405.38 74.1969 410.559 74.1969Z" fill="#878787"/>
<path opacity="0.6" d="M410.559 126.93C434.336 126.93 453.875 107.626 453.875 83.6135C453.875 59.8366 434.571 40.2971 410.559 40.2971C386.782 40.2971 367.243 59.6012 367.243 83.6135C367.243 107.626 386.547 126.93 410.559 126.93ZM410.559 47.8304C430.334 47.8304 446.342 63.8386 446.342 83.6135C446.342 103.388 430.334 119.397 410.559 119.397C390.784 119.397 374.776 103.388 374.776 83.6135C374.776 64.074 390.784 47.8304 410.559 47.8304Z" fill="#878787"/>
<path opacity="0.6" d="M338.757 78.9052C338.757 80.5531 338.522 82.201 338.522 83.849V84.0844H345.113C345.113 85.4968 345.113 87.1448 345.349 88.5573L338.757 89.0281C338.757 90.676 338.993 92.3239 339.228 93.9718L345.82 93.0301C346.055 94.4426 346.291 96.0905 346.526 97.503L339.934 98.9155C340.17 100.563 340.641 102.211 341.111 103.624L347.468 101.741C347.938 103.153 348.409 104.565 348.88 105.978L342.524 108.332C342.995 109.98 343.701 111.393 344.407 112.805L350.528 110.215C351.234 111.628 351.705 112.805 352.411 114.218L346.526 117.278C347.232 118.69 348.174 120.103 348.88 121.515L354.53 117.984C355.236 119.161 356.178 120.574 356.884 121.751L351.47 125.517C352.411 126.93 353.353 128.107 354.53 129.52L359.709 125.282C360.651 126.459 361.593 127.636 362.77 128.578L357.826 133.051C359.003 134.228 360.18 135.405 361.357 136.582L365.83 131.638C367.007 132.58 367.949 133.522 369.126 134.463L364.888 139.642C366.065 140.584 367.478 141.761 368.89 142.703L372.657 137.288C373.834 138.23 375.011 138.936 376.424 139.642L372.892 145.292C374.305 146.234 375.717 146.94 377.13 147.646L380.19 141.761C381.603 142.467 382.78 143.174 384.192 143.644L381.603 149.765C383.015 150.471 384.663 150.942 386.076 151.649L388.194 145.292C389.607 145.763 391.019 146.234 392.432 146.705L390.549 153.061C392.197 153.532 393.609 153.767 395.257 154.238L396.669 147.646C398.082 147.882 399.494 148.117 401.142 148.353L400.201 154.944C401.849 155.18 403.496 155.415 405.144 155.415L405.615 148.824C407.028 148.824 408.44 149.059 409.853 149.059C409.853 149.059 409.853 149.059 410.088 149.059V155.651C411.736 155.651 413.384 155.651 415.032 155.415L414.561 148.824C415.973 148.824 417.621 148.588 419.034 148.353L419.976 154.944C421.623 154.709 423.271 154.474 424.919 154.003L423.507 147.411C424.919 147.176 426.332 146.705 427.744 146.234L429.628 152.59C431.275 152.119 432.688 151.649 434.336 151.178L432.217 144.822C433.63 144.351 435.042 143.88 436.455 143.174L439.044 149.294C440.457 148.588 442.105 147.882 443.517 147.176L440.457 141.29C441.869 140.584 443.046 139.878 444.223 139.172L447.755 144.822C449.167 143.88 450.58 143.174 451.757 142.232L447.99 136.817C449.167 135.876 450.344 135.169 451.521 134.228L455.759 139.407C456.936 138.465 458.348 137.288 459.525 136.111L455.052 131.167C456.229 130.226 457.171 129.049 458.113 128.107L463.057 132.58C464.234 131.403 465.175 130.226 466.352 128.813L461.173 124.576C462.115 123.399 463.057 122.222 463.763 121.045L469.177 124.811C470.119 123.399 471.061 121.986 471.767 120.809L466.117 117.278C466.823 116.101 467.529 114.688 468.236 113.276L474.121 116.336C474.827 114.924 475.534 113.511 476.24 111.863L470.119 109.274C470.825 107.861 471.296 106.449 471.767 105.036L478.123 107.155C478.594 105.507 479.065 104.095 479.536 102.447L473.179 100.563C473.65 99.1509 473.886 97.7384 474.356 96.3259L480.948 97.7384C481.184 96.0905 481.654 94.4426 481.654 92.7947L475.063 91.8531C475.298 90.4406 475.298 89.0281 475.534 87.3802L482.125 87.851C482.125 86.2031 482.361 84.5552 482.361 83.1427H475.769C475.769 81.7302 475.769 80.0823 475.534 78.6698L482.125 78.199C482.125 76.5511 481.89 74.9032 481.654 73.2553L475.063 74.1969C474.827 72.7844 474.592 71.1365 474.356 69.724L480.948 68.3115C480.713 66.6636 480.242 65.0157 479.771 63.6032L473.415 65.4866C472.944 64.0741 472.473 62.6616 472.002 61.2491L478.359 59.1303C477.888 57.4824 477.181 56.0699 476.475 54.6574L470.354 57.247C469.648 55.8345 469.177 54.6575 468.471 53.245L474.356 50.1846C473.65 48.7721 472.709 47.3596 472.002 45.9471L466.352 49.4783C465.646 48.3012 464.704 46.8887 463.998 45.7116L469.413 41.945C468.471 40.5325 467.529 39.3555 466.352 37.943L461.173 42.1804C460.232 41.0033 459.29 39.8263 458.348 38.8846L463.292 34.4117C462.115 33.2347 460.938 32.0576 459.761 30.8805L455.288 35.8242C454.111 34.8825 453.169 33.9409 451.992 32.9992L456.229 27.8201C455.052 26.8784 453.64 25.7014 452.227 24.7597L448.461 30.1743C447.284 29.2326 446.107 28.5263 444.694 27.8201L448.225 22.1701C446.813 21.2284 445.4 20.5222 443.988 19.816L440.927 25.7013C439.515 24.9951 438.338 24.2889 436.925 23.818L439.515 17.6972C438.102 16.991 436.455 16.5201 435.042 15.8139L432.923 22.1701C431.511 21.6993 430.098 21.2285 428.686 20.7576L430.569 14.4014C428.921 13.9306 427.509 13.4598 425.861 13.2244L424.448 19.816C423.036 19.5805 421.623 19.3452 419.976 19.1097L420.917 12.5181C419.269 12.2827 417.621 12.0473 415.973 12.0473L415.503 18.6389C414.09 18.6389 412.678 18.4035 411.03 18.4035V11.8118C409.382 11.8118 407.734 11.8119 406.086 12.0473L406.557 18.6389C405.144 18.6389 403.496 18.8743 402.084 19.1097L401.142 12.5181C399.494 12.7535 397.846 12.9889 396.199 13.4597L397.611 20.0514C396.199 20.2868 394.786 20.7576 393.374 21.2285L391.49 14.8723C389.842 15.3431 388.43 15.8139 386.782 16.2847L388.901 22.641C387.488 23.1118 386.076 23.5826 384.663 24.2889L382.074 18.1681C380.661 18.8743 379.013 19.5806 377.601 20.2868L380.661 26.1722C379.249 26.8784 378.072 27.5847 376.895 28.2909L373.363 22.641C371.951 23.5826 370.538 24.2889 369.361 25.2305L373.128 30.6451C371.951 31.5867 370.774 32.293 369.597 33.2347L365.359 28.0555C364.182 28.9972 362.77 30.1743 361.593 31.3513L366.065 36.295C364.888 37.2367 363.947 38.4138 363.005 39.3554L358.061 34.8826C356.884 36.0596 355.943 37.2367 354.765 38.6492L359.945 42.8867C359.003 44.0637 358.061 45.2408 357.355 46.4179L351.94 42.6513C350.999 44.0638 350.057 45.4762 349.351 46.6533L355.001 50.1846C354.295 51.3616 353.588 52.7741 352.882 54.1866L346.997 51.1262C346.291 52.5387 345.584 54.1866 344.878 55.5991L350.999 58.1887C350.293 59.6012 349.822 61.0137 349.351 62.4261L342.995 60.3074C342.524 61.9553 342.053 63.3678 341.582 65.0157L347.938 66.899C347.468 68.3115 347.232 69.724 346.761 71.1365L340.17 69.724C339.934 71.3719 339.463 73.0198 339.228 74.6677L345.82 75.6094C345.584 77.0219 345.584 78.4344 345.349 80.0823L338.757 78.9052ZM410.559 29.7034C440.457 29.7034 464.704 53.9512 464.704 83.849C464.704 113.747 440.457 137.994 410.559 137.994C380.661 137.994 356.413 113.747 356.413 83.849C356.413 53.9512 380.661 29.7034 410.559 29.7034Z" fill="#878787"/>
</g>
<g opacity="0.6">
<path opacity="0.6" d="M664.101 376.47C677.285 376.47 688.114 365.877 688.114 352.458C688.114 339.275 677.52 328.445 664.101 328.445C650.683 328.445 640.089 339.039 640.089 352.458C640.089 365.877 650.683 376.47 664.101 376.47Z" fill="#878787"/>
<path opacity="0.6" d="M664.101 434.618C618.901 434.618 582.177 397.893 582.177 352.693C582.177 307.493 618.901 270.769 664.101 270.769C709.301 270.769 746.026 307.493 746.026 352.693C746.026 397.893 709.066 434.618 664.101 434.618ZM664.101 437.914C711.184 437.914 749.322 399.776 749.322 352.693C749.322 305.61 711.184 267.473 664.101 267.473C617.018 267.473 578.881 305.61 578.881 352.693C578.645 399.776 616.783 437.914 664.101 437.914Z" fill="#878787"/>
<path opacity="0.6" d="M549.925 328.446C548.277 336.45 547.335 344.454 547.335 352.693V352.929H560.989C560.989 360.227 561.696 367.289 563.344 374.351L549.925 377.176C551.573 385.181 554.162 392.949 557.458 400.247L569.935 394.597C572.996 401.189 576.527 407.31 580.764 413.195L569.7 421.435C574.408 428.026 580.058 434.147 585.943 439.562L595.125 429.203C600.539 433.912 606.189 438.149 612.545 441.916L605.718 453.922C612.781 457.924 620.314 461.22 628.083 463.809L632.32 450.626C639.147 452.745 645.974 454.393 653.272 455.099L651.86 468.753C659.864 469.459 668.103 469.459 676.107 468.753L674.695 455.099C681.993 454.393 689.055 452.745 695.647 450.626L699.884 463.809C707.653 461.22 715.186 457.924 722.013 453.922L715.186 441.916C721.307 438.384 727.193 434.147 732.607 429.203L742.024 439.091C748.145 433.676 753.559 427.555 758.267 420.964L747.203 412.96C751.44 407.074 754.972 400.953 758.032 394.362L770.509 400.012C773.805 392.478 776.394 384.71 778.042 376.706L764.624 373.881C766.036 367.054 766.742 359.991 766.742 352.693H780.396C780.396 344.454 779.455 336.45 777.807 328.446L764.388 331.27C762.976 324.208 760.622 317.381 757.797 310.789L770.274 305.139C766.978 297.842 762.74 290.544 758.032 283.952L746.968 292.192C742.73 286.306 738.022 281.127 732.607 276.183L741.788 265.825C735.668 260.41 729.076 255.467 722.013 251.465L715.186 263.471C709.066 259.94 702.474 256.879 695.647 254.761L699.884 241.577C692.116 238.988 684.112 237.34 676.107 236.634L674.695 250.288C671.164 249.817 667.633 249.817 664.101 249.817C660.335 249.817 656.803 250.052 653.272 250.288L651.86 236.634C643.856 237.575 635.851 239.223 628.083 241.577L632.32 254.761C625.493 257.115 618.902 259.94 612.781 263.471L605.954 251.465C598.891 255.467 592.3 260.41 586.179 265.825L595.36 276.183C589.945 280.892 585.237 286.306 581 292.192L569.935 284.187C565.227 290.779 560.989 297.842 557.694 305.375L570.406 311.025C567.581 317.616 565.227 324.443 563.814 331.506L549.925 328.446ZM664.101 258.292C716.128 258.292 758.503 300.667 758.503 352.693C758.503 404.72 716.128 447.095 664.101 447.095C612.074 447.095 569.7 404.72 569.7 352.693C569.464 300.667 611.839 258.292 664.101 258.292Z" fill="#878787"/>
</g>
<g opacity="0.6">
<path opacity="0.6" d="M231.408 207.677C268.839 207.677 298.972 177.309 298.972 140.113C298.972 102.682 268.603 72.5489 231.408 72.5489C193.977 72.5489 163.843 102.917 163.843 140.113C163.608 177.309 193.977 207.677 231.408 207.677ZM231.408 107.626C249.299 107.626 263.895 122.221 263.895 140.113C263.895 158.005 249.299 172.6 231.408 172.6C213.516 172.6 198.92 158.005 198.92 140.113C198.92 121.986 213.516 107.626 231.408 107.626Z" fill="#878787"/>
<path opacity="0.6" d="M140.302 140.113C140.302 144.586 140.537 149.059 141.243 153.296L125.706 155.651C125.941 157.769 126.412 159.653 126.648 161.536L141.95 158.476C142.891 162.713 144.068 166.951 145.716 171.188L130.885 176.603C131.591 178.486 132.298 180.369 133.239 182.253L147.6 176.132C149.483 180.134 151.366 184.136 153.72 187.903L140.302 196.142C141.243 197.79 142.421 199.673 143.598 201.321L156.545 192.375C159.135 195.907 161.725 199.438 165.02 202.498L153.485 213.327C154.898 214.74 156.31 216.152 157.723 217.565L168.552 206.265C171.847 209.325 175.143 212.15 178.674 214.74L169.729 227.688C171.377 228.865 173.024 230.042 174.908 230.984L183.147 217.565C186.914 219.919 190.681 222.038 194.918 223.686L188.562 238.046C190.445 238.752 192.329 239.694 194.212 240.4L199.626 225.569C203.628 226.981 208.101 228.394 212.339 229.336L209.043 244.638C210.926 245.108 213.045 245.344 215.164 245.815L217.518 230.277C221.755 230.984 226.228 231.219 230.701 231.219V246.756H231.408C233.291 246.756 235.174 246.756 237.057 246.521L236.116 230.984C240.589 230.748 245.062 230.277 249.299 229.336L252.359 244.638C254.478 244.167 256.362 243.696 258.245 243.225L254.243 228.159C258.48 226.981 262.718 225.569 266.72 223.921L272.841 238.281C274.724 237.575 276.607 236.633 278.255 235.692L271.428 221.567C275.43 219.684 279.197 217.329 282.728 214.975L291.674 227.923C293.322 226.746 294.97 225.569 296.618 224.392L286.966 211.915C290.497 209.325 293.793 206.265 296.853 202.969L308.153 213.798C309.565 212.386 310.978 210.738 312.155 209.325L300.149 199.202C302.974 195.907 305.563 192.375 307.917 188.609L321.101 197.084C322.278 195.436 323.219 193.552 324.161 191.905L310.507 184.371C312.626 180.605 314.509 176.603 316.157 172.365L330.753 177.78C331.459 175.896 332.165 174.013 332.636 171.894L317.805 167.186C319.217 162.948 320.159 158.711 320.865 154.238L336.403 156.592C336.638 154.474 336.874 152.59 337.109 150.471L321.572 148.824C321.807 145.763 322.042 142.703 322.042 139.642C322.042 138.23 322.042 136.817 321.807 135.405L337.58 134.699C337.58 132.58 337.344 130.697 337.109 128.578L321.572 130.226C321.101 125.753 320.395 121.515 319.217 117.278L334.284 113.511C333.813 111.628 333.342 109.509 332.636 107.626L317.805 112.334C316.392 108.097 314.745 103.859 312.861 100.093L326.986 93.2656C326.044 91.3822 325.103 89.7343 324.161 87.851L310.507 95.6197C308.388 91.8531 306.034 88.0864 303.209 84.5552L315.686 74.9031C314.509 73.2552 313.097 71.6073 311.92 70.1948L300.149 80.3177C297.324 77.0219 294.028 73.7261 290.732 70.9011L301.09 59.1303C299.678 57.7178 298.03 56.5407 296.382 55.3637L286.73 67.8407C283.199 65.0157 279.432 62.6615 275.666 60.5428L283.434 46.8887C281.786 45.947 279.903 45.0054 278.02 44.0637L271.193 58.1886C267.191 56.3053 263.189 54.6574 258.951 53.2449L263.659 38.4138C261.776 37.7075 259.893 37.2367 257.774 36.7659L254.007 51.8324C249.77 50.6554 245.532 49.9491 241.06 49.4783L242.707 33.9409C240.589 33.7054 238.705 33.47 236.587 33.47L235.88 49.0075C234.468 49.0075 232.82 48.772 231.408 48.772C228.583 48.772 225.522 49.0074 222.697 49.2429L221.285 33.7055C219.166 33.9409 217.283 34.1763 215.164 34.4117L217.518 49.9491C213.045 50.6554 208.808 51.597 204.57 53.0095L200.097 37.9429C198.214 38.6492 196.331 39.12 194.447 39.8262L199.862 54.422C195.624 56.0699 191.622 57.7178 187.856 59.8365L180.322 46.1825C178.674 47.1241 176.791 48.3012 175.143 49.2429L183.383 62.6616C179.616 65.0157 176.085 67.6053 172.789 70.4302L162.666 58.4241C161.018 59.8366 159.606 61.0136 158.193 62.4261L169.022 73.7261C165.727 76.7865 162.902 80.0823 160.077 83.6135L147.6 73.9615C146.423 75.6094 145.245 77.2573 144.068 78.9052L157.016 87.851C154.427 91.3822 152.073 95.1489 150.189 99.1509L136.064 92.0885C135.123 93.9718 134.181 95.8551 133.475 97.503L147.835 103.624C146.187 107.626 144.539 111.863 143.598 116.101L128.531 112.099C128.06 113.982 127.589 116.101 127.119 117.984L142.421 121.045C141.479 125.282 141.008 129.755 140.773 134.228L125.235 133.286C125.235 135.405 125 137.288 125 139.407V140.113H140.302ZM231.408 61.9553C274.253 61.9553 309.33 96.7968 309.33 139.878C309.33 182.723 274.489 217.8 231.408 217.8C188.326 217.8 153.485 182.959 153.485 139.878C153.485 97.0322 188.562 61.9553 231.408 61.9553Z" fill="#878787"/>
</g>
<g opacity="0.6">
<path opacity="0.6" d="M693.058 214.74C716.364 214.74 735.197 195.907 735.197 172.6C735.197 149.294 716.364 130.461 693.058 130.461C669.752 130.461 650.918 149.294 650.918 172.6C651.154 195.907 669.987 214.74 693.058 214.74ZM693.058 152.59C704.122 152.59 713.303 161.536 713.303 172.836C713.303 184.136 704.358 193.082 693.058 193.082C681.993 193.082 672.812 184.136 672.812 172.836C672.812 161.536 681.993 152.59 693.058 152.59Z" fill="#878787"/>
<path opacity="0.6" d="M636.558 172.836C636.558 175.661 636.793 178.486 637.264 181.075L627.612 182.488C627.848 183.665 628.083 185.077 628.318 186.255L637.735 184.371C638.206 187.196 639.148 189.786 640.089 192.375L630.908 195.671C631.379 196.848 631.85 198.025 632.32 199.202L641.266 195.436C642.443 198.025 643.62 200.379 645.033 202.734L636.793 207.913C637.5 209.09 638.206 210.031 638.912 210.973L646.916 205.323C648.564 207.677 650.212 209.796 652.095 211.679L645.033 218.271C645.975 219.213 646.681 220.154 647.622 220.861L654.45 213.798C656.333 215.681 658.452 217.565 660.806 218.977L655.156 226.981C656.097 227.688 657.274 228.394 658.216 229.1L663.395 220.861C665.749 222.273 668.104 223.686 670.693 224.627L666.691 233.573C667.868 234.044 669.045 234.515 670.222 234.985L673.518 225.804C676.108 226.746 678.697 227.452 681.522 228.158L679.639 237.575C680.816 237.81 682.229 238.046 683.406 238.281L684.818 228.629C687.408 229.1 690.233 229.336 693.058 229.336V238.988H693.293C694.47 238.988 695.647 238.988 696.824 238.988L696.353 229.336C699.178 229.1 701.768 228.865 704.593 228.394L706.476 238.046C707.653 237.81 708.83 237.575 710.243 237.104L707.889 227.688C710.478 226.981 713.068 226.04 715.657 225.098L719.424 234.044C720.601 233.573 721.778 233.102 722.955 232.396L718.718 223.686C721.072 222.508 723.662 221.096 725.78 219.448L731.43 227.452C732.372 226.746 733.549 226.04 734.491 225.333L728.605 217.565C730.724 215.917 732.843 214.034 734.726 212.15L741.789 218.977C742.73 218.036 743.437 217.094 744.378 216.152L737.08 209.796C738.964 207.677 740.612 205.559 742.024 203.204L750.264 208.384C750.97 207.206 751.676 206.265 752.147 205.088L743.672 200.379C745.084 198.025 746.261 195.436 747.203 192.846L756.384 196.377C756.855 195.2 757.326 194.023 757.561 192.846L748.38 190.021C749.086 187.432 749.793 184.842 750.264 182.017L759.916 183.43C760.151 182.252 760.386 180.84 760.386 179.663L750.734 178.721C750.97 176.838 750.97 174.955 750.97 173.071C750.97 172.13 750.97 171.423 750.97 170.482L760.622 170.011C760.622 168.834 760.386 167.421 760.386 166.244L750.734 167.186C750.499 164.361 750.028 161.771 749.322 158.946L758.739 156.592C758.503 155.415 758.032 154.238 757.797 153.061L748.616 155.886C747.674 153.296 746.732 150.707 745.555 148.353L754.266 144.115C753.795 142.938 753.089 141.761 752.618 140.819L744.143 145.528C742.73 143.174 741.318 140.819 739.67 138.701L747.439 132.815C746.732 131.874 745.791 130.932 745.084 129.99L737.787 136.346C735.903 134.228 734.02 132.344 731.901 130.461L738.257 123.163C737.316 122.457 736.374 121.515 735.432 120.809L729.547 128.578C727.428 126.93 725.074 125.282 722.72 124.105L727.428 115.63C726.251 114.924 725.31 114.453 724.132 113.982L719.895 122.692C717.541 121.515 714.951 120.338 712.362 119.632L715.422 110.451C714.245 109.98 713.068 109.745 711.891 109.509L709.537 118.926C706.947 118.219 704.122 117.749 701.533 117.513L702.474 107.861C701.297 107.626 699.885 107.626 698.708 107.626L698.237 117.278C697.295 117.278 696.353 117.278 695.412 117.278C693.528 117.278 691.881 117.278 689.997 117.513L689.056 107.861C687.878 108.097 686.466 108.097 685.289 108.332L686.701 117.984C683.876 118.455 681.287 118.926 678.697 119.867L675.872 110.451C674.695 110.922 673.518 111.157 672.341 111.628L675.637 120.809C673.047 121.751 670.458 122.928 668.104 124.34L663.395 115.865C662.218 116.572 661.277 117.042 660.099 117.749L665.279 125.988C662.924 127.401 660.806 129.049 658.687 130.932L652.331 123.399C651.389 124.105 650.447 125.047 649.506 125.988L656.333 133.051C654.45 134.934 652.566 137.053 650.683 139.171L642.914 133.051C642.208 133.992 641.502 134.934 640.56 136.111L648.564 141.761C646.916 144.115 645.504 146.469 644.327 148.823L635.616 144.351C635.145 145.528 634.439 146.705 633.968 147.882L642.914 151.648C641.737 154.238 641.031 156.828 640.325 159.417L630.908 156.828C630.673 158.005 630.202 159.182 629.966 160.594L639.383 162.478C638.912 165.067 638.441 167.892 638.441 170.717L628.789 170.246C628.789 171.423 628.789 172.836 628.789 174.013V174.248L636.558 172.836ZM693.058 124.34C719.66 124.34 741.553 145.998 741.553 172.836C741.553 199.438 719.895 221.331 693.058 221.331C666.456 221.331 644.562 199.673 644.562 172.836C644.797 145.998 666.456 124.34 693.058 124.34Z" fill="#878787"/>
</g>
<g opacity="0.6">
<path opacity="0.6" d="M552.985 176.603C536.977 176.603 524.029 189.551 524.029 205.559C524.029 221.567 536.977 234.515 552.985 234.515C568.993 234.515 581.941 221.567 581.941 205.559C581.941 189.551 568.993 176.603 552.985 176.603ZM552.985 232.867C537.918 232.867 525.677 220.625 525.677 205.559C525.677 190.492 537.918 178.251 552.985 178.251C568.052 178.251 580.293 190.492 580.293 205.559C580.293 220.625 568.052 232.867 552.985 232.867Z" fill="#878787"/>
<path opacity="0.6" d="M552.985 180.84C539.331 180.84 528.267 191.905 528.267 205.559C528.267 219.213 539.331 230.277 552.985 230.277C566.639 230.277 577.704 219.213 577.704 205.559C577.704 191.905 566.639 180.84 552.985 180.84ZM552.985 228.629C540.273 228.629 529.915 218.271 529.915 205.559C529.915 192.846 540.273 182.488 552.985 182.488C565.698 182.488 576.056 192.846 576.056 205.559C576.056 218.271 565.698 228.629 552.985 228.629Z" fill="#878787"/>
<path opacity="0.6" d="M552.985 189.315C544.039 189.315 536.741 196.613 536.741 205.559C536.741 214.505 544.039 221.802 552.985 221.802C561.931 221.802 569.229 214.505 569.229 205.559C569.229 196.613 561.931 189.315 552.985 189.315ZM552.985 220.155C544.981 220.155 538.389 213.563 538.389 205.559C538.389 197.555 544.981 190.963 552.985 190.963C560.989 190.963 567.581 197.555 567.581 205.559C567.581 213.563 560.989 220.155 552.985 220.155Z" fill="#878787"/>
<path opacity="0.6" d="M552.985 194.965C547.1 194.965 542.391 199.674 542.391 205.559C542.391 211.444 547.1 216.153 552.985 216.153C558.871 216.153 563.579 211.444 563.579 205.559C563.579 199.674 558.871 194.965 552.985 194.965Z" fill="#878787"/>
<path opacity="0.6" d="M495.308 196.142C494.838 199.203 494.602 202.498 494.602 205.559V205.794H503.077C503.077 209.326 503.548 212.621 504.254 216.153L495.779 218.036C496.486 221.096 497.427 224.157 498.369 226.982L506.373 223.921C507.55 227.217 509.198 230.277 511.081 233.102L503.783 237.811C505.431 240.4 507.55 242.99 509.669 245.344L516.025 239.459C518.379 242.048 520.969 244.167 523.794 246.286L518.85 253.348C521.44 255.232 524.029 256.879 526.854 258.292L530.621 250.523C533.681 251.936 536.977 253.348 540.273 254.054L538.154 262.294C541.214 263 544.275 263.706 547.571 263.942L548.277 255.467C549.689 255.702 551.337 255.702 552.75 255.702C554.633 255.702 556.752 255.467 558.635 255.467L559.577 263.942C562.637 263.471 565.933 263 568.758 262.059L566.404 253.819C569.7 252.877 572.996 251.465 576.056 250.052L580.058 257.586C582.883 256.173 585.473 254.29 588.062 252.407L582.883 245.579C585.708 243.461 588.062 241.107 590.416 238.517L597.008 244.167C599.127 241.813 601.01 239.223 602.658 236.634L595.36 232.161C597.243 229.336 598.656 226.04 599.833 222.98L607.837 225.805C609.014 222.744 609.72 219.684 610.191 216.623L601.716 214.975C602.187 211.915 602.658 209.09 602.658 205.794C602.658 205.323 602.658 205.088 602.658 204.617L611.133 204.382C611.133 201.321 610.662 198.026 610.191 194.965L601.716 196.613C601.01 193.082 600.068 189.786 598.891 186.726L606.895 183.43C605.718 180.605 604.306 177.78 602.658 174.955L595.36 179.428C593.477 176.603 591.358 173.778 589.004 171.188L595.125 165.303C593.006 162.949 590.652 160.83 588.062 158.947L582.883 165.774C580.058 163.655 577.233 162.007 574.173 160.359L577.939 152.59C575.114 151.178 572.054 150.236 568.993 149.295L566.639 157.534C563.343 156.592 560.048 156.122 556.516 155.651L556.987 147.176C555.575 147.176 554.398 146.94 552.985 146.94C551.102 146.94 549.454 146.94 547.571 147.176L548.277 155.651C544.746 155.886 541.45 156.592 538.154 157.77L535.564 149.53C532.504 150.472 529.679 151.649 526.854 153.061L530.621 160.83C527.56 162.478 524.735 164.126 521.91 166.48L516.496 159.653C514.142 161.536 511.788 163.655 509.669 166.009L516.025 171.894C513.671 174.484 511.552 177.309 509.904 180.134L502.606 175.661C500.958 178.486 499.546 181.311 498.369 184.136L506.373 187.196C505.196 190.257 504.254 193.788 503.548 197.084L495.308 196.142ZM552.985 248.169C529.444 248.169 510.375 229.1 510.375 205.559C510.375 182.017 529.444 162.949 552.985 162.949C576.527 162.949 595.595 182.017 595.595 205.559C595.595 229.1 576.527 248.169 552.985 248.169Z" fill="#878787"/>
</g>
<g opacity="0.6">
<path opacity="0.6" d="M399.965 211.915C375.953 211.915 356.649 231.454 356.649 255.231C356.649 279.244 376.188 298.548 399.965 298.548C423.978 298.548 443.282 279.008 443.282 255.231C443.282 231.454 423.742 211.915 399.965 211.915ZM399.965 296.194C377.365 296.194 359.003 277.831 359.003 255.231C359.003 232.632 377.365 214.269 399.965 214.269C422.565 214.269 440.928 232.632 440.928 255.231C440.928 277.831 422.565 296.194 399.965 296.194Z" fill="#878787"/>
<path opacity="0.6" d="M399.965 218.271C379.484 218.271 363.005 234.986 363.005 255.231C363.005 275.713 379.719 292.192 399.965 292.192C420.446 292.192 436.925 275.477 436.925 255.231C436.925 234.986 420.211 218.271 399.965 218.271ZM399.965 289.837C380.896 289.837 365.359 274.3 365.359 255.231C365.359 236.163 380.896 220.625 399.965 220.625C419.034 220.625 434.571 236.163 434.571 255.231C434.571 274.3 419.034 289.837 399.965 289.837Z" fill="#878787"/>
<path opacity="0.6" d="M399.965 230.984C386.546 230.984 375.717 241.813 375.717 255.231C375.717 268.65 386.546 279.479 399.965 279.479C413.384 279.479 424.213 268.65 424.213 255.231C424.213 241.813 413.384 230.984 399.965 230.984ZM399.965 277.125C387.959 277.125 378.072 267.238 378.072 255.231C378.072 243.225 387.959 233.338 399.965 233.338C411.971 233.338 421.859 243.225 421.859 255.231C421.859 267.238 411.971 277.125 399.965 277.125Z" fill="#878787"/>
<path opacity="0.6" d="M399.965 239.459C391.255 239.459 384.192 246.521 384.192 255.232C384.192 263.942 391.255 271.004 399.965 271.004C408.676 271.004 415.738 263.942 415.738 255.232C415.738 246.521 408.676 239.459 399.965 239.459Z" fill="#878787"/>
<path opacity="0.6" d="M313.803 241.342C313.097 246.05 312.626 250.758 312.626 255.467V255.702H325.339C325.339 260.881 325.81 266.06 326.987 271.004L314.51 273.594C315.451 278.302 316.864 282.775 318.512 287.248L330.518 282.54C332.401 287.483 334.755 291.956 337.58 296.194L326.751 303.256C329.341 307.258 332.166 311.025 335.462 314.321L344.878 305.61C348.409 309.377 352.176 312.908 356.414 315.733L348.88 326.091C352.647 328.916 356.884 331.27 360.886 333.389L366.536 321.854C371.009 324.208 375.953 325.856 380.897 327.268L377.601 339.745C382.074 340.923 386.782 341.629 391.49 342.1L392.668 329.387C394.786 329.623 397.14 329.623 399.495 329.623C402.32 329.623 405.38 329.387 408.205 329.152L409.617 341.864C414.326 341.393 419.034 340.452 423.507 339.039L419.976 326.798C424.919 325.385 429.863 323.502 434.336 321.148L440.457 332.448C444.694 330.329 448.696 327.739 452.463 324.914L444.694 314.791C448.696 311.731 452.463 308.2 455.994 304.198L465.646 312.673C468.707 309.141 471.532 305.375 474.121 301.373L463.292 294.546C465.882 290.308 468.236 285.6 470.119 280.656L482.125 284.894C483.773 280.421 484.95 275.948 485.892 271.24L473.18 268.885C473.886 264.413 474.357 259.94 474.357 255.231C474.357 254.525 474.357 254.054 474.357 253.348L487.069 253.113C487.069 248.404 486.363 243.696 485.657 238.988L472.944 241.342C472.003 236.163 470.59 231.219 468.471 226.511L480.242 221.567C478.359 217.329 476.24 213.092 473.886 209.09L463.057 215.917C460.232 211.444 457.171 207.442 453.64 203.675L462.821 194.73C459.525 191.434 455.994 188.138 452.228 185.313L444.459 195.436C440.457 192.375 435.984 189.786 431.276 187.432L436.69 175.896C432.453 173.778 427.98 172.13 423.507 170.953L419.976 183.194C415.032 181.782 410.088 180.84 404.909 180.605L405.851 167.892C403.967 167.657 401.849 167.657 399.73 167.657C397.14 167.657 394.315 167.892 391.726 168.128L392.903 180.84C387.724 181.311 382.545 182.253 377.836 183.901L374.07 171.659C369.597 173.071 365.124 174.719 360.886 176.838L366.536 188.373C361.828 190.728 357.591 193.553 353.589 196.613L345.584 186.49C341.818 189.315 338.522 192.611 335.226 196.142L344.643 204.852C341.112 208.619 338.051 212.857 335.462 217.329L324.397 210.738C322.043 214.74 319.924 218.977 318.276 223.45L330.282 228.159C328.399 232.867 326.987 237.811 326.28 242.99L313.803 241.342ZM399.965 319.029C364.889 319.029 336.168 290.544 336.168 255.231C336.168 220.154 364.653 191.434 399.965 191.434C435.278 191.434 463.763 219.919 463.763 255.231C463.528 290.308 435.042 319.029 399.965 319.029Z" fill="#878787"/>
</g>
</g>
<path d="M636.119 13.2843C646.478 22.4655 662.251 21.2884 671.432 11.1656C680.613 0.8073 679.436 -14.9655 669.313 -24.1467C658.955 -33.3279 643.182 -32.1509 634.001 -22.028C624.82 -11.6697 625.761 4.1031 636.119 13.2843ZM645.536 -11.9052C649.067 -15.9072 655.188 -16.378 659.19 -12.8468C663.192 -9.31559 663.663 -3.19475 660.132 0.807314C656.601 4.80937 650.48 5.28019 646.478 1.74896C642.24 -1.78227 642.005 -7.90311 645.536 -11.9052Z" fill="#878787"/>
<path d="M623.407 27.6447C641.77 43.6529 669.784 42.005 685.792 23.6426C701.801 5.28019 700.153 -22.7342 681.79 -38.7425C663.428 -54.7507 635.413 -53.1028 619.405 -34.7404C603.397 -16.378 605.28 11.6364 623.407 27.6447ZM625.291 -29.5613C638.709 -44.6279 661.78 -46.0404 676.847 -32.8571C691.913 -19.4384 693.326 3.6323 680.142 18.6989C666.724 33.7655 643.653 35.1779 628.586 21.9947C613.284 8.57601 611.872 -14.4947 625.291 -29.5613Z" fill="#878787"/>
<path d="M586.447 1.04266L579.62 1.74895C579.855 3.39685 580.091 5.04478 580.326 6.69268L586.918 5.51561C587.153 6.9281 587.389 8.57599 587.86 9.98848L581.268 11.6364C581.739 13.2843 582.21 14.9322 582.68 16.5801L589.272 14.4614C589.743 15.8739 590.214 17.2864 590.685 18.6988L584.328 21.053C585.035 22.7009 585.505 24.1134 586.212 25.7613L592.332 22.9363C593.039 24.3488 593.745 25.7613 594.451 26.9384L588.566 30.2342C589.272 31.6467 590.214 33.0592 591.155 34.4717L596.805 30.705C597.512 31.8821 598.453 33.2946 599.395 34.4717L593.98 38.4737C594.922 39.8862 596.099 41.0633 597.041 42.4758L602.22 38.0029C603.162 39.18 604.339 40.357 605.28 41.2987L600.572 46.007C601.749 47.1841 602.926 48.3612 604.103 49.5382L608.576 44.3591C609.753 45.3008 610.93 46.2424 612.107 47.1841L607.87 52.5986C609.282 53.5403 610.459 54.482 611.872 55.4236L615.639 49.7737C616.816 50.7153 618.228 51.4216 619.405 52.1278L616.109 58.0132C617.522 58.9549 618.934 59.6611 620.582 60.3674L623.643 54.2465C625.055 54.9528 626.468 55.4236 627.88 56.1299L625.291 62.4861C626.938 63.1923 628.351 63.6632 629.999 64.134L632.118 57.7778C633.53 58.2486 634.943 58.7194 636.591 58.9548L634.943 65.5465C636.591 66.0173 638.238 66.2527 639.886 66.4882L641.063 59.8965C642.476 60.1319 644.124 60.3674 645.536 60.6028L644.83 67.4298C646.478 67.6652 648.126 67.6652 649.774 67.9006L650.009 61.0736C651.422 61.0736 653.07 61.0736 654.482 61.0736L654.717 67.9006C656.365 67.9006 658.013 67.6652 659.661 67.6652L658.955 60.8382C660.367 60.6028 662.015 60.6028 663.428 60.3674L664.605 66.959C666.253 66.7236 667.901 66.2527 669.549 66.0173L667.901 59.4257C669.313 59.1903 670.726 58.7195 672.374 58.2486L674.257 64.8402C675.905 64.3694 677.553 63.8986 678.965 63.1923L676.611 56.8361C678.024 56.3653 679.436 55.659 680.849 54.9528L683.674 61.0736C685.086 60.3674 686.734 59.6611 688.146 58.7195L684.851 52.8341C686.263 52.1278 687.44 51.4216 688.853 50.4799L692.619 56.1299C694.032 55.1882 695.444 54.2466 696.621 53.3049L692.619 47.8903C693.796 46.9487 694.974 46.007 696.151 45.0654L700.623 50.2445C701.801 49.0674 703.213 48.1258 704.39 46.9487L699.682 42.0049C700.859 41.0633 701.801 39.8862 702.742 38.7091L707.686 43.182L707.921 42.9466C709.098 41.7696 710.04 40.357 711.217 39.18L705.803 34.9425C706.744 33.7654 707.686 32.5884 708.392 31.1759L714.042 34.9425C714.984 33.53 715.925 32.1175 716.632 30.705L710.746 27.4092C711.453 25.9967 712.159 24.8196 712.865 23.4071L718.986 26.4676C719.692 25.0551 720.398 23.4071 721.105 21.9946L714.748 19.4051C715.219 17.9926 715.925 16.5801 716.396 15.1676L722.753 17.2863C723.223 15.6384 723.694 13.9905 724.165 12.578L717.573 10.9301C718.044 9.51764 718.28 7.86974 718.515 6.45725L725.107 7.63433C725.342 5.98642 725.578 4.3385 725.813 2.69059L718.986 1.98438C719.221 0.571884 719.221 -1.07608 719.221 -2.48857L726.048 -2.25314C726.048 -3.90105 726.048 -5.54897 726.048 -7.19688L719.221 -6.96145C719.221 -8.37394 718.986 -10.0218 718.986 -11.4343L725.813 -12.1405C725.578 -13.7885 725.342 -15.4364 725.107 -17.0843L718.515 -15.9072C718.28 -17.3197 718.044 -18.9676 717.573 -20.3801L724.165 -22.028C723.694 -23.6759 723.223 -25.3238 722.753 -26.9718L716.161 -24.853C715.69 -26.2655 715.219 -27.678 714.748 -29.0905L721.105 -31.4446C720.398 -33.0925 719.928 -34.505 719.221 -36.1529L713.1 -33.3279C712.394 -34.7404 711.688 -36.1529 710.982 -37.33L716.867 -40.6258C716.161 -42.0383 715.219 -43.4508 714.278 -44.8633L708.628 -41.0967C707.921 -42.2738 706.98 -43.6863 706.038 -44.8633L711.453 -48.8654C710.511 -50.2778 709.334 -51.4549 708.392 -52.8674L703.213 -48.3946C702.271 -49.5716 701.094 -50.7487 700.153 -51.6904L704.861 -56.3987C703.684 -57.5757 702.507 -58.7528 701.33 -59.9299L696.857 -54.7507C695.68 -55.6924 694.503 -56.6341 693.326 -57.5757L697.563 -62.9903C696.151 -63.9319 694.974 -64.8736 693.561 -65.8153L689.794 -60.1653C688.617 -61.107 687.205 -61.8132 686.028 -62.5195L689.324 -68.4049C687.911 -69.3465 686.499 -70.0528 684.851 -70.759L681.79 -64.6382C680.378 -65.3445 678.965 -65.8153 677.553 -66.5215L680.142 -72.8777C678.494 -73.584 677.082 -74.0548 675.434 -74.5256L673.315 -68.1694C671.903 -68.6403 670.49 -69.1111 668.842 -69.3465L670.49 -75.9381C668.842 -76.4089 667.194 -76.6443 665.547 -76.8798L664.37 -70.2882C662.957 -70.5236 661.309 -70.759 659.897 -70.9944L660.603 -77.8215C658.955 -78.0569 657.307 -78.0569 655.659 -78.2923L655.424 -71.4652C654.011 -71.4652 652.363 -71.4652 650.951 -71.4652L650.715 -78.2923C649.068 -78.2923 647.42 -78.0568 645.772 -78.0568L646.478 -71.2298C645.065 -70.9944 643.418 -70.9944 642.005 -70.759L640.828 -77.3506C639.18 -77.1152 637.532 -76.6444 635.884 -76.409L637.532 -69.8173C636.12 -69.5819 634.707 -69.1111 633.059 -68.6402L630.941 -75.2319C629.293 -74.7611 627.645 -74.2902 626.232 -73.584L628.586 -67.2278C627.174 -66.757 625.761 -66.0507 624.349 -65.3444L621.524 -71.4652C620.111 -70.759 618.464 -70.0527 617.051 -69.1111L620.347 -63.2257C618.934 -62.5195 617.757 -61.8132 616.345 -60.8715L612.578 -66.5215C611.166 -65.5798 609.753 -64.6382 608.576 -63.6966L612.578 -58.282C611.401 -57.3403 610.224 -56.3987 609.047 -55.457L604.574 -60.6361C603.397 -59.459 601.984 -58.5174 600.807 -57.3403L605.516 -52.632C604.339 -51.4549 603.397 -50.5133 602.455 -49.3362L597.276 -53.8091C596.099 -52.632 595.157 -51.2195 594.216 -50.0424L599.63 -45.805C598.689 -44.6279 597.747 -43.4508 597.041 -42.0383L591.391 -45.805C590.449 -44.3925 589.507 -42.98 588.801 -41.5675L594.687 -38.2717C593.98 -36.8592 593.274 -35.6821 592.568 -34.2696L586.447 -37.33C585.741 -35.9175 585.035 -34.2696 584.328 -32.8571L590.685 -30.2676C590.214 -28.8551 589.507 -27.4426 589.037 -26.0301L582.68 -28.1488C582.21 -26.5009 581.739 -24.853 581.268 -23.4405L587.86 -21.7926C587.389 -20.3801 587.153 -18.7322 586.918 -17.3197L580.326 -18.4968C580.091 -16.8489 579.855 -15.201 579.62 -13.5531L586.447 -12.8468C586.212 -11.4343 586.212 -9.78645 586.212 -8.37396L579.385 -8.60931C579.385 -6.96141 579.385 -5.31356 579.385 -3.66565L586.212 -3.90101C586.212 -2.01769 586.212 -0.605251 586.447 1.04266ZM611.166 -41.8029C631.176 -64.6382 666.253 -66.7569 689.088 -46.7466C711.923 -26.7363 714.042 8.34058 694.032 31.1759C674.022 54.0112 638.945 56.1299 616.109 36.1196C593.274 15.8738 591.155 -18.9676 611.166 -41.8029Z" fill="#878787"/>
<path d="M260.867 47.6549C270.99 56.6007 286.292 55.659 295.238 45.5361C304.184 35.4133 303.242 20.1113 293.119 11.1655C282.996 2.21971 267.694 3.16136 258.749 13.2842C249.803 23.4071 250.745 38.9445 260.867 47.6549Z" fill="#878787"/>
<path d="M219.435 94.7377C255.453 126.519 310.54 122.988 342.321 86.969C374.103 50.9505 370.571 -4.13672 334.553 -35.9178C298.534 -67.6989 243.447 -64.1676 211.666 -28.1491C179.885 7.86945 183.416 62.9567 219.435 94.7377ZM214.256 -25.7949C244.86 -60.401 297.828 -63.6968 332.434 -33.3282C367.04 -2.7242 370.336 50.2442 339.967 84.8503C309.363 119.456 256.395 122.752 222.024 92.3836C186.947 61.7796 183.652 8.81111 214.256 -25.7949Z" fill="#878787"/>
<path d="M158.462 18.2278C157.755 26.4673 157.756 34.9423 158.697 43.1818L172.587 41.5339C173.528 48.8318 174.941 55.8942 177.295 62.9567L163.876 67.4296C166.466 75.1983 169.997 82.967 174.235 90.0295L186.241 82.967C190.007 89.0878 194.245 95.2086 199.189 100.623L188.83 110.04C194.48 116.161 200.837 121.811 207.428 126.519L215.668 115.219C221.788 119.456 228.145 123.223 234.736 126.048L229.086 138.996C236.62 142.292 244.624 144.881 252.863 146.529L255.688 132.64C262.986 134.052 270.284 134.758 277.582 134.758L277.817 148.883C286.057 148.883 294.532 147.942 302.536 146.058L299.476 132.404C306.538 130.756 313.6 128.402 320.192 125.577L326.077 138.29C333.611 134.758 340.909 130.521 347.5 125.577L339.025 114.277C344.911 110.04 350.325 105.096 355.269 99.4461L365.863 108.863L366.098 108.627C371.513 102.271 376.456 95.6794 380.458 88.3815L368.217 81.5545C371.748 75.1983 374.808 68.3712 376.927 61.3088L390.346 65.5462C392.935 57.5421 394.583 49.538 395.29 41.0631L381.165 39.6506C381.871 32.3527 381.871 25.0548 380.929 17.7569L394.819 16.109C393.877 7.86949 391.994 -0.370057 389.404 -8.13876L375.986 -3.66588C373.631 -10.4929 370.571 -17.32 366.804 -23.6762L378.811 -30.7386C374.573 -37.8011 369.629 -44.6281 363.979 -50.7489L353.621 -41.3323C351.267 -43.9219 348.442 -46.5114 345.617 -49.101C342.792 -51.4552 339.967 -53.8093 337.142 -55.928L345.382 -67.4634C344.44 -68.1696 343.263 -68.8759 342.321 -69.5822L347.029 -77.8217C349.384 -76.4092 351.973 -75.2321 354.563 -74.2905L351.031 -65.1092C352.209 -64.6384 353.386 -64.1676 354.563 -63.6968L357.623 -73.1134C360.213 -72.1717 363.038 -71.4655 365.863 -71.23L364.215 -61.3426C365.392 -61.1072 366.804 -60.8718 367.981 -60.8718L369.158 -70.7592C371.983 -70.5238 374.808 -70.2884 377.633 -70.5238L378.104 -60.6364C379.281 -60.6364 380.694 -60.8718 381.871 -60.8718L380.929 -70.7592C383.754 -70.9947 386.579 -71.4654 389.169 -72.1717L391.523 -62.5197C392.7 -62.7551 394.113 -63.2259 395.29 -63.4614L392.465 -72.878C395.054 -73.5842 397.644 -74.7613 400.233 -75.9384L404.471 -66.9926C405.648 -67.4634 406.825 -68.1696 408.002 -68.6405L403.294 -77.3509C405.648 -78.7634 408.002 -80.1758 410.356 -81.8237L416.242 -73.8196C417.183 -74.5259 418.36 -75.4675 419.302 -76.1738L412.946 -83.7071C415.064 -85.5904 417.183 -87.4737 419.067 -89.5925L426.6 -83.0008L426.835 -83.2362C427.777 -84.1779 428.483 -85.1196 429.189 -86.0612L421.421 -92.182C423.069 -94.5361 424.717 -96.6549 426.129 -99.2444L434.839 -94.3008C435.546 -95.4779 436.016 -96.6549 436.723 -97.5966L427.777 -102.069C428.954 -104.659 430.131 -107.249 431.073 -109.838L440.489 -106.778C440.96 -107.955 441.196 -109.132 441.666 -110.544L432.014 -113.134C432.721 -115.724 433.191 -118.549 433.662 -121.374L443.55 -120.196C443.785 -121.374 443.785 -122.786 443.785 -123.963L433.898 -124.434C434.133 -127.259 434.133 -130.084 433.662 -132.909L443.55 -133.851C443.55 -135.028 443.314 -136.44 443.079 -137.617L433.191 -136.205C432.721 -139.03 432.25 -141.619 431.308 -144.444L440.96 -147.269C440.489 -148.446 440.254 -149.623 439.783 -150.8L430.366 -147.505C429.425 -150.094 428.248 -152.684 426.835 -155.273L435.546 -159.982C434.839 -161.159 434.369 -162.336 433.662 -163.277L425.187 -158.098C423.775 -160.452 422.127 -162.807 420.244 -164.925L427.777 -171.282C427.071 -172.223 426.129 -173.165 425.187 -174.107L417.889 -167.28C416.712 -168.692 415.3 -169.869 413.887 -171.046C413.181 -171.752 412.475 -172.223 411.769 -172.93L417.889 -180.698C416.948 -181.404 415.771 -182.346 414.829 -183.052L409.179 -175.048C406.825 -176.696 404.471 -178.109 402.117 -179.521L406.59 -188.467C405.412 -188.938 404.235 -189.644 403.058 -190.115L399.056 -180.934C396.467 -182.111 393.877 -183.052 391.052 -183.759L393.642 -193.411C392.465 -193.646 391.052 -194.117 389.875 -194.352L387.756 -184.7C384.931 -185.171 382.106 -185.642 379.517 -185.877L380.223 -195.765C379.046 -195.765 377.633 -196 376.456 -196V-186.113C373.631 -186.113 370.806 -185.877 367.981 -185.642L366.569 -195.529C365.392 -195.294 363.979 -195.059 362.802 -194.823L364.686 -184.936C361.861 -184.465 359.271 -183.759 356.681 -182.817L353.386 -192.234C352.209 -191.763 351.031 -191.292 349.854 -190.821L353.621 -181.64C351.032 -180.463 348.442 -179.286 346.088 -177.873L340.909 -186.348C339.732 -185.642 338.79 -184.936 337.613 -184.229L343.263 -175.99C340.909 -174.342 338.79 -172.694 336.671 -170.811L329.844 -178.109C328.902 -177.167 327.961 -176.225 327.019 -175.519L334.082 -168.692C333.375 -167.986 332.905 -167.515 332.198 -166.809C331.021 -165.396 329.609 -163.748 328.667 -162.336L320.663 -168.221C319.957 -167.28 319.25 -166.102 318.544 -164.925L327.019 -159.511C325.607 -157.157 324.194 -154.567 323.017 -152.213L313.836 -156.215C313.365 -155.038 312.894 -153.861 312.423 -152.684L321.84 -149.153C320.898 -146.563 319.957 -143.738 319.486 -141.148L309.834 -143.267C309.598 -142.09 309.363 -140.678 309.128 -139.5L319.015 -137.853C318.544 -135.028 318.309 -132.203 318.309 -129.378L308.421 -129.613C308.421 -128.436 308.421 -127.024 308.421 -125.846L318.309 -126.317C318.544 -123.492 318.78 -120.667 319.25 -117.842L309.363 -115.959C309.598 -114.782 309.834 -113.369 310.069 -112.192L319.721 -114.546C320.427 -111.957 321.369 -109.132 322.311 -106.542L313.13 -102.776C313.6 -101.599 314.071 -100.422 314.778 -99.2444L323.723 -103.482C324.9 -100.892 326.313 -98.5382 327.961 -96.1841L319.721 -90.5341C320.427 -89.3571 321.134 -88.4153 322.075 -87.4737L330.08 -93.5945C331.727 -91.4758 333.611 -89.3571 335.729 -87.2383L328.667 -80.1759C329.609 -79.4696 330.315 -78.528 331.257 -77.8217L331.492 -77.5863L338.084 -85.1195C340.202 -83.2362 342.557 -81.5884 344.675 -80.1759L339.732 -72.4071C334.788 -75.4675 329.609 -78.2925 324.194 -80.4112L318.544 -67.4634C311.717 -70.2884 304.655 -72.6426 297.592 -74.0551L300.417 -87.9445C292.178 -89.5925 283.938 -90.2987 275.699 -90.2987L275.934 -76.1738C268.636 -76.1738 261.338 -75.2321 254.04 -73.5842L250.98 -87.2383C242.976 -85.355 234.972 -82.7654 227.438 -79.2341L233.324 -66.5217C226.732 -63.4613 220.376 -59.9302 214.491 -55.4573L206.016 -66.7572C199.424 -61.8134 193.303 -56.1635 187.653 -50.0427L198.247 -40.8615C193.303 -35.2115 189.066 -29.3261 185.534 -22.9699L173.293 -29.7969C169.291 -22.499 165.76 -14.9658 163.405 -6.96169L176.824 -2.72417C174.705 4.33829 173.293 11.4007 172.587 18.6986L158.462 18.2278ZM343.263 -91.0049C322.782 -109.132 320.898 -140.207 338.79 -160.688C356.917 -181.169 387.992 -183.052 408.473 -165.161C428.954 -147.034 430.837 -115.959 412.946 -95.4779C395.054 -74.9967 363.744 -72.8779 343.263 -91.0049ZM204.603 -34.2699C239.68 -74.0551 300.888 -78.0571 340.673 -42.7448C380.458 -7.66788 384.46 53.5401 349.148 93.3253C314.071 133.11 252.863 137.113 213.078 101.8C173.293 66.7233 169.526 5.51531 204.603 -34.2699Z" fill="#878787"/>
<path d="M706.274 210.326C734.994 235.516 778.546 232.691 803.736 204.206C828.925 175.485 826.1 131.933 797.615 106.744C768.894 81.5543 725.342 84.3793 700.153 112.865C674.963 141.585 677.553 185.137 706.274 210.326ZM726.99 136.641C738.996 122.987 759.948 121.575 773.602 133.581C787.257 145.587 788.669 166.539 776.663 180.193C764.657 193.847 743.705 195.26 730.051 183.018C716.397 171.248 714.984 150.296 726.99 136.641Z" fill="#878787"/>
<path d="M720.869 70.9606L715.455 55.894C713.571 56.6003 711.453 57.3065 709.569 58.2482L715.69 73.0793C711.453 74.7272 707.451 76.846 703.684 79.2002L695.444 65.5461C693.797 66.4877 691.913 67.6648 690.265 68.8419L699.211 82.0251C695.444 84.6147 691.913 87.4397 688.617 90.5001L677.788 78.7293C676.376 80.1418 674.728 81.5543 673.315 82.9668L684.851 94.0313C683.909 94.973 682.967 96.1501 682.026 97.0917C679.907 99.4459 678.024 101.8 676.14 104.39L663.193 94.973C662.015 96.6209 660.838 98.5042 659.661 100.152L673.08 108.627C670.726 112.394 668.607 116.396 666.724 120.633L652.128 114.042C651.186 115.925 650.48 117.808 649.774 119.692L664.84 125.342C663.193 129.579 662.015 133.817 661.074 138.289L645.536 134.758C645.066 136.877 644.83 138.76 644.359 140.879L660.132 143.469C659.426 147.941 658.955 152.414 658.955 156.887L642.947 156.652C642.947 158.771 642.947 160.889 642.947 162.773L658.955 162.066C659.191 166.539 659.661 171.012 660.603 175.485L644.83 178.545C645.301 180.664 645.772 182.547 646.243 184.666L661.78 180.9C662.957 185.137 664.37 189.61 666.018 193.612L651.186 199.733C651.893 201.616 652.834 203.499 653.776 205.383L668.136 198.556C670.02 202.558 672.374 206.56 674.963 210.326L661.78 219.272C662.957 220.92 664.134 222.568 665.311 224.216L678.024 214.564C680.849 218.095 683.674 221.626 686.97 224.687L675.67 236.222C677.082 237.635 678.495 238.812 679.907 239.989L680.378 240.224L690.972 228.218C694.503 231.278 698.034 233.868 701.801 236.458L693.09 249.876C694.738 251.053 696.622 251.995 698.505 253.172L706.274 239.283C710.276 241.401 714.278 243.52 718.515 244.933L712.63 259.764C714.513 260.47 716.396 261.176 718.515 261.882L723.459 246.58C727.696 247.993 732.169 248.935 736.642 249.641L734.053 265.414C736.171 265.649 738.29 266.12 740.173 266.355L741.821 250.347C746.294 250.818 750.767 251.053 755.24 250.818L755.711 266.826C757.83 266.826 759.948 266.591 761.832 266.355L760.419 250.347C764.892 249.876 769.365 249.17 773.838 248.228L777.604 263.766C779.723 263.295 781.606 262.824 783.49 262.118L778.782 246.816C783.019 245.403 787.256 243.991 791.494 241.872L798.321 256.232C800.204 255.291 802.088 254.349 803.736 253.408L796.202 239.283C800.204 237.164 803.971 234.81 807.502 231.985L817.154 244.697C818.802 243.52 820.45 242.108 822.098 240.93L811.74 228.689C815.035 225.864 818.331 222.568 821.392 219.272L833.398 229.866L833.633 229.631C835.046 228.218 836.223 226.57 837.635 224.922L825.158 215.035C827.983 211.504 830.573 207.737 832.692 203.735L846.581 211.739C847.523 209.856 848.7 208.208 849.406 206.324L835.046 199.262C837.165 195.26 838.812 191.022 840.225 186.785L855.527 191.729C856.233 189.845 856.704 187.727 857.175 185.843L841.637 181.841C842.814 177.604 843.756 173.131 844.227 168.658L860.235 170.541C860.471 168.423 860.706 166.539 860.706 164.42L844.698 163.479C844.933 159.006 844.933 154.533 844.462 150.06L860.471 148.648C860.235 146.529 860 144.646 859.764 142.527L843.992 144.881C843.285 140.408 842.344 135.935 841.167 131.698L856.469 126.989C855.998 125.106 855.292 122.987 854.585 121.104L839.519 126.519C838.106 122.281 836.223 118.279 834.104 114.277L848.229 106.744C847.287 104.86 846.346 103.213 845.169 101.329L831.515 109.804C829.16 106.038 826.571 102.271 823.51 98.7396L835.752 88.6168C834.34 86.9689 833.162 85.5564 831.75 83.9085L819.979 94.7376C818.096 92.6188 815.977 90.5001 813.623 88.6168C812.446 87.6751 811.269 86.498 810.092 85.5564L819.979 73.0793C818.331 71.6668 816.683 70.4898 815.035 69.3127L805.854 82.2606C802.088 79.671 798.321 77.3168 794.319 75.1981L801.617 61.0732C799.733 60.1315 797.85 59.1898 795.967 58.4836L789.611 73.0793C785.373 71.196 781.136 69.7835 776.898 68.6065L781.136 53.069C779.252 52.5982 777.134 52.1274 775.015 51.6566L771.719 67.194C767.246 66.2523 762.773 65.5461 758.3 65.3107L759.007 49.7732C756.888 49.5378 754.769 49.5378 752.886 49.5378V65.5461C748.413 65.5461 743.94 65.7815 739.467 66.4877L737.348 50.7149C735.23 50.9503 733.346 51.4212 731.228 51.6566L734.288 67.4294C729.344 68.371 725.107 69.5481 720.869 70.9606ZM804.442 98.975C837.4 127.931 840.46 178.31 811.504 211.268C782.548 244.226 732.169 247.287 699.211 218.331C666.253 189.375 663.193 138.996 692.149 106.037C721.34 73.0793 771.484 69.7835 804.442 98.975Z" fill="#878787"/>
<path d="M441.667 13.9905C453.908 24.8196 472.741 23.6425 483.571 11.4009C494.4 -0.840707 493.223 -19.6739 480.981 -30.503C468.739 -41.3322 449.906 -40.1551 439.077 -27.9135C428.248 -15.6719 429.425 3.16137 441.667 13.9905ZM440.254 -26.7364C450.377 -38.2717 468.033 -39.4488 479.804 -29.326C491.339 -19.2031 492.516 -1.54695 482.393 10.2238C472.271 21.7592 454.614 22.9363 442.844 12.8134C431.308 2.45512 430.131 -15.201 440.254 -26.7364Z" fill="#878787"/>
<path d="M444.492 10.6946C454.85 19.8758 470.858 18.9342 480.275 8.3405C489.456 -2.01778 488.515 -18.026 477.921 -27.4426C467.563 -36.6238 451.554 -35.6821 442.138 -25.0884C433.192 -14.4947 434.134 1.51345 444.492 10.6946ZM443.55 -23.9114C452.261 -33.5634 467.092 -34.5051 476.979 -26.0302C486.631 -17.3198 487.573 -2.48859 479.098 7.39885C470.388 17.0509 455.556 17.9925 445.669 9.51757C436.017 0.807205 435.075 -14.0239 443.55 -23.9114Z" fill="#878787"/>
<path d="M450.377 4.10302C457.204 10.2238 467.798 9.51756 473.919 2.69052C480.039 -4.13653 479.333 -14.7302 472.506 -20.851C465.679 -26.9718 455.085 -26.2656 448.965 -19.4385C442.844 -12.376 443.55 -1.78236 450.377 4.10302ZM450.142 -18.2614C455.556 -24.3822 464.973 -25.0885 471.329 -19.6739C477.45 -14.2594 478.156 -4.84277 472.742 1.51344C467.327 7.63424 457.91 8.3405 451.554 2.92595C445.198 -2.48861 444.727 -11.9052 450.142 -18.2614Z" fill="#878787"/>
<path d="M469.446 -1.07618C473.448 -5.54907 472.977 -12.3761 468.504 -16.3782C464.031 -20.3802 457.204 -19.9094 453.202 -15.4365C449.2 -10.9636 449.671 -4.13659 454.144 -0.134533C458.617 3.63211 465.444 3.39671 469.446 -1.07618Z" fill="#878787"/>
<path d="M438.842 -54.0446C435.781 -52.6321 432.721 -50.7488 429.896 -48.3946L424.481 -55.2216C421.892 -53.3383 419.538 -50.9841 417.419 -48.63L423.775 -42.7446C423.54 -42.5092 423.304 -42.2738 423.069 -41.8029C420.95 -39.4488 419.067 -36.8593 417.654 -34.2697L410.121 -38.7426C408.473 -35.9176 407.061 -33.0926 405.884 -30.0322L414.123 -26.7364C412.711 -23.4406 411.769 -20.1448 411.298 -16.6135L402.588 -18.026C402.117 -14.9656 401.881 -11.6698 401.646 -8.37401H410.356C410.356 -4.84278 410.592 -1.31149 411.298 1.98432L402.823 3.63219C403.529 6.69259 404.471 9.98842 405.413 12.8134L413.652 9.753C414.829 13.0488 416.477 16.1092 418.361 19.1696L411.063 23.8779C412.711 26.4675 414.829 29.0571 416.948 31.6466L423.54 25.7612C424.952 27.1737 426.129 28.5862 427.777 29.9987C428.954 30.9404 430.131 31.882 431.308 32.8237L426.129 39.8862C428.719 41.7695 431.544 43.4174 434.369 44.8299L438.371 37.0612C441.431 38.7091 444.727 39.8862 448.258 40.8278L445.904 49.3028C448.965 50.2444 452.26 50.7153 455.321 50.9507L456.262 42.2403C459.794 42.4757 463.325 42.4757 466.856 42.2403L467.798 50.9507C471.094 50.7153 474.154 50.009 477.214 49.0674L474.86 40.5924C478.156 39.6508 481.452 38.4737 484.748 36.8258L488.75 44.5945C491.575 43.182 494.4 41.2987 496.989 39.4153L491.81 32.3529C494.635 30.2341 497.225 27.88 499.579 25.2904L506.17 31.1758C508.289 28.8217 510.173 26.2321 512.056 23.4071L504.758 18.6988C506.641 15.6384 508.289 12.578 509.466 9.28218L517.706 12.3426C518.883 9.28218 519.589 6.22178 520.295 2.92597L511.585 1.27803C512.291 -2.2532 512.527 -5.78443 512.527 -9.31566L521.237 -9.55109C521.237 -12.8469 520.766 -15.9072 520.295 -19.2031L511.585 -17.5552C510.879 -21.0864 509.937 -24.3822 508.76 -27.678L517 -30.9738C515.823 -34.0342 514.41 -36.8592 512.762 -39.6842L505.229 -35.2113C503.345 -38.2717 501.227 -40.8613 498.873 -43.6863L505.229 -49.8071C504.052 -51.2195 502.639 -52.3966 501.227 -53.5737C500.285 -54.5154 499.108 -55.457 498.166 -56.1633L492.752 -49.3363C489.927 -51.455 486.866 -53.3383 483.806 -54.7508L487.573 -62.7549C484.748 -64.1674 481.687 -65.3445 478.627 -66.2861L476.273 -57.8112C472.977 -58.7529 469.446 -59.4591 465.914 -59.6945L466.621 -68.4049C463.325 -68.6403 460.264 -68.6403 456.969 -68.4049L457.675 -59.6945C454.144 -59.4591 450.612 -58.7529 447.317 -57.8112L444.727 -66.2861C441.667 -65.3445 438.606 -64.1674 435.781 -62.7549L438.842 -54.0446ZM489.927 -40.8613C507.818 -25.0885 509.702 2.45514 493.693 20.5821C477.921 38.4737 450.377 40.357 432.25 24.3487C414.358 8.57592 412.475 -18.9677 428.483 -37.0946C444.492 -54.9862 472.035 -56.8695 489.927 -40.8613Z" fill="#878787"/>
<path d="M515.587 166.304C533.949 182.547 561.964 180.664 577.972 162.302C594.216 143.939 592.332 115.925 573.97 99.9167C555.608 83.673 527.593 85.5564 511.585 103.919C495.577 122.281 497.46 150.296 515.587 166.304ZM513.704 105.567C529.006 88.3813 555.372 86.498 572.557 101.8C589.743 117.102 591.391 143.469 576.324 160.654C561.022 177.839 534.656 179.722 517.47 164.42C500.05 149.354 498.402 122.752 513.704 105.567Z" fill="#878787"/>
<path d="M520.06 161.596C535.597 175.485 559.61 173.837 573.499 158.3C587.389 142.762 585.741 118.75 570.203 104.861C554.666 90.971 530.654 92.6189 516.764 108.156C502.875 123.694 504.287 147.706 520.06 161.596ZM518.412 109.804C531.36 95.2085 553.724 93.796 568.32 106.744C582.916 119.692 584.328 142.056 571.38 156.652C558.433 171.248 536.068 172.66 521.472 159.712C507.112 146.764 505.7 124.4 518.412 109.804Z" fill="#878787"/>
<path d="M528.535 151.708C538.893 160.654 554.43 159.712 563.612 149.589C572.557 139.231 571.616 123.694 561.493 114.512C551.135 105.567 535.597 106.508 526.416 116.631C517.235 126.989 518.176 142.762 528.535 151.708ZM528.299 118.279C536.539 109.098 550.664 108.156 559.845 116.396C569.026 124.635 569.968 138.76 561.728 147.941C553.489 157.123 539.364 158.064 530.183 149.825C521.001 141.821 520.06 127.696 528.299 118.279Z" fill="#878787"/>
<path d="M534.42 145.116C541.012 151.002 551.135 150.296 557.02 143.704C562.905 137.112 562.199 126.99 555.608 121.104C549.016 115.219 538.893 115.925 533.008 122.517C527.122 129.108 527.593 139.231 534.42 145.116Z" fill="#878787"/>
<path d="M519.118 47.8899C514.41 49.3024 509.937 50.9503 505.7 53.069L511.349 64.8398C506.641 67.1939 502.168 70.0189 497.931 73.0793L489.927 62.721C486.16 65.7814 482.629 68.8418 479.333 72.3731L488.985 81.3188C488.514 81.7897 488.043 82.2605 487.808 82.7313C484.748 86.2626 481.923 90.0292 479.568 94.0313L468.268 87.2042C465.914 91.4417 463.56 95.6792 461.912 100.152L474.154 104.86C472.271 109.804 470.858 114.983 469.916 119.927L456.969 117.808C456.262 122.517 455.791 127.46 455.791 132.169H468.975C468.975 137.348 469.446 142.762 470.387 147.941L457.439 150.531C458.381 155.239 459.794 159.948 461.441 164.42L473.683 159.712C475.566 164.656 477.921 169.364 480.745 173.837L469.681 180.9C472.271 184.902 475.096 188.904 478.391 192.435L488.043 183.725C489.927 185.843 492.045 187.962 494.4 190.081C496.047 191.729 497.931 193.141 499.814 194.318L492.045 204.912C495.812 207.737 500.05 210.326 504.287 212.445L510.172 200.91C514.881 203.264 519.824 205.147 524.768 206.56L521.472 219.272C526.181 220.449 530.889 221.391 535.597 221.862L537.01 208.914C542.189 209.385 547.603 209.385 552.783 208.914L554.195 221.862C558.903 221.391 563.612 220.449 568.32 219.272L564.789 206.56C569.732 205.147 574.676 203.264 579.385 200.91L585.505 212.445C589.743 210.326 593.98 207.737 597.747 204.912L589.978 194.318C594.216 191.258 597.982 187.727 601.514 183.725L611.166 192.435L611.401 192.199C614.697 188.668 617.522 184.666 620.111 180.664L609.047 173.602C611.872 169.129 614.226 164.42 615.874 159.477L628.115 163.95C629.763 159.477 631.176 154.768 631.882 150.06L618.934 147.471C619.876 142.291 620.347 137.112 620.347 131.698L633.53 131.462C633.53 126.754 633.059 121.81 632.118 117.102L619.17 119.456C618.228 114.277 616.816 109.333 614.697 104.39L626.938 99.4458C625.055 94.9729 622.936 90.7355 620.347 86.498L609.282 93.325C606.693 88.8521 603.397 84.6147 599.63 80.848L609.047 71.9022C607.164 70.0189 605.28 67.9002 603.161 66.2523C601.514 64.8398 600.101 63.6627 598.453 62.2502L590.449 72.6085C586.212 69.3127 581.739 66.7231 577.03 64.3689L582.68 52.5982C578.443 50.4794 573.735 48.8315 569.262 47.419L565.495 59.8961C560.316 58.4836 555.137 57.5419 549.958 57.0711L550.899 44.1232C546.191 43.6524 541.247 43.8878 536.539 44.1232L537.716 57.3065C532.537 57.7773 527.358 58.719 522.179 60.1314L519.118 47.8899ZM587.859 84.3792C614.697 108.156 617.286 149.354 593.745 176.191C569.968 203.029 528.77 205.618 501.933 182.077C475.096 158.3 472.506 117.102 496.047 90.2646C519.824 63.1919 561.022 60.6023 587.859 84.3792Z" fill="#878787"/>
<path d="M49.0012 -87.0362C44.9695 -85.1754 40.9377 -82.6943 37.2161 -79.593L30.083 -88.5868C26.6715 -86.1058 23.5702 -83.0044 20.779 -79.903L29.1526 -72.1497C28.8425 -71.8395 28.5324 -71.5294 28.2222 -70.9091C25.431 -67.8078 22.9499 -64.3964 21.0891 -60.9849L11.1649 -66.8774C8.99391 -63.1558 7.1331 -59.4342 5.58243 -55.4024L16.4371 -51.0606C14.5763 -46.7187 13.3358 -42.3769 12.7155 -37.7248L1.24057 -39.5856C0.6203 -35.5538 0.310137 -31.212 2.93322e-06 -26.8702H11.475C11.475 -22.2181 11.7851 -17.5661 12.7155 -13.2242L1.55067 -11.0533C2.48108 -7.02155 3.72163 -2.67964 4.96217 1.04197L15.8169 -2.98978C17.3675 1.35209 19.5385 5.38384 22.0195 9.41558L12.4054 15.6183C14.5763 19.0297 17.3675 22.4412 20.1587 25.8527L28.8425 18.0993C30.7033 19.9602 32.254 21.821 34.4249 23.6818C35.9756 24.9223 37.5263 26.1628 39.0769 27.4034L32.254 36.7074C35.6655 39.1885 39.3871 41.3594 43.1087 43.2202L48.381 32.9858C52.4127 35.1567 56.7546 36.7074 61.4066 37.9479L58.3052 49.1128C62.337 50.3533 66.6789 50.9736 70.7106 51.2837L71.9511 39.8087C76.6031 40.1189 81.2551 40.1189 85.9072 39.8087L87.1477 51.2837C91.4896 50.9736 95.5213 50.0431 99.5531 48.8026L96.4517 37.6378C100.794 36.3973 105.135 34.8466 109.477 32.6756L114.75 42.9101C118.471 41.0493 122.193 38.5682 125.604 36.0871L118.781 26.7831C122.503 23.9919 125.914 20.8906 129.016 17.4791L137.7 25.2324C140.491 22.1311 142.972 18.7196 145.453 14.998L135.839 8.79532C138.32 4.76358 140.491 0.731835 142.041 -3.61004L152.896 0.42171C154.447 -3.61003 155.377 -7.64178 156.308 -11.9837L144.833 -14.1546C145.763 -18.8066 146.073 -23.4587 146.073 -28.1107L157.548 -28.4208C157.548 -32.7627 156.928 -36.7944 156.308 -41.1362L144.833 -38.9654C143.902 -43.6174 142.662 -47.9592 141.111 -52.3011L151.966 -56.643C150.415 -60.6747 148.554 -64.3963 146.383 -68.118L136.459 -62.2254C133.978 -66.2572 131.187 -69.6687 128.085 -73.3903L136.459 -81.4537C134.908 -83.3145 133.048 -84.8652 131.187 -86.4159C129.946 -87.6564 128.396 -88.8969 127.155 -89.8273L120.022 -80.8335C116.3 -83.6247 112.269 -86.1057 108.237 -87.9665L113.199 -98.5111C109.477 -100.372 105.446 -101.923 101.414 -103.163L98.3125 -91.9983C93.9706 -93.2389 89.3187 -94.1692 84.6666 -94.4794L85.5971 -105.954C81.2552 -106.264 77.2234 -106.264 72.8815 -105.954L73.8119 -94.4794C69.1599 -94.1692 64.5079 -93.2389 60.1661 -91.9983L56.7546 -103.163C52.7228 -101.923 48.6911 -100.372 44.9695 -98.5111L49.0012 -87.0362ZM116.3 -69.6686C139.871 -48.8896 142.352 -12.6039 121.262 11.2764C100.483 34.8466 64.1978 37.3276 40.3174 16.2385C16.7472 -4.54046 14.2662 -40.8261 35.3553 -64.7065C56.4445 -88.2767 92.7301 -90.7577 116.3 -69.6686Z" fill="#878787"/>
<defs>
<radialGradient id="paint0_radial" cx="0" cy="0" r="1" gradientUnits="userSpaceOnUse" gradientTransform="translate(-151.545 213.332) rotate(180) scale(707.734)">
<stop stop-color="white"/>
<stop offset="0.0794066" stop-color="#E1E1E1"/>
<stop offset="0.2753" stop-color="#9E9E9E"/>
<stop offset="0.4611" stop-color="#666666"/>
<stop offset="0.6316" stop-color="#3A3A3A"/>
<stop offset="0.7837" stop-color="#1A1A1A"/>
<stop offset="0.9116" stop-color="#070707"/>
<stop offset="1"/>
</radialGradient>
<radialGradient id="paint1_radial" cx="0" cy="0" r="1" gradientUnits="userSpaceOnUse" gradientTransform="translate(-153.397 213.605) rotate(180) scale(712.016 709.555)">
<stop stop-color="white"/>
<stop offset="0.0794066" stop-color="#E1E1E1"/>
<stop offset="0.2753" stop-color="#9E9E9E"/>
<stop offset="0.4611" stop-color="#666666"/>
<stop offset="0.6316" stop-color="#3A3A3A"/>
<stop offset="0.7837" stop-color="#1A1A1A"/>
<stop offset="0.9116" stop-color="#070707"/>
<stop offset="1"/>
</radialGradient>
</defs>
</svg>
