<svg width="150" height="239" viewBox="0 0 150 239" fill="none" xmlns="http://www.w3.org/2000/svg">
<g opacity="0.6">
<path d="M78.3027 131.422C85.1697 154.32 109.4 167.457 132.163 160.835C155.121 154.335 168.007 130.449 161.018 107.744C154.152 84.8457 129.921 71.708 107.158 78.3307C84.3961 84.9535 71.5097 108.839 78.3027 131.422ZM108.068 80.7878C129.636 74.7572 152.499 87.0315 158.874 108.543C165.25 130.055 153.018 152.47 131.645 158.624C110.076 164.655 87.2132 152.381 80.8378 130.869C74.1455 109.426 86.4987 86.8184 108.068 80.7878Z" fill="#878787"/>
<path d="M84.4444 129.916C90.1802 149.41 110.967 160.643 130.513 155.22C150.059 149.796 161.076 129.305 155.341 109.811C149.605 90.3175 128.818 79.0841 109.272 84.5077C89.7261 89.9313 78.5131 110.299 84.4444 129.916ZM109.79 86.7181C128.069 81.5709 147.366 92.1333 152.806 110.364C158.245 128.595 147.882 147.615 129.604 152.763C111.325 157.91 92.0282 147.347 86.5885 129.117C81.3443 111.01 91.7073 91.9886 109.79 86.7181Z" fill="#878787"/>
<path d="M96.5813 126.275C100.567 139.014 113.953 146.384 126.797 142.92C139.567 139.14 146.8 125.946 143.131 113.138C139.145 100.399 125.759 93.028 112.915 96.4924C99.9495 100.149 92.5956 113.535 96.5813 126.275ZM113.629 98.8261C125.205 95.6381 137.418 102.269 140.791 113.814C144.164 125.359 137.66 137.398 126.083 140.586C114.507 143.774 102.294 137.144 98.921 125.599C95.4268 114.246 101.931 102.207 113.629 98.8261Z" fill="#878787"/>
<path d="M104.868 123.97C107.305 132.234 116.073 136.96 124.36 134.656C132.646 132.351 137.281 123.706 134.844 115.442C132.407 107.178 123.638 102.452 115.352 104.756C107.066 107.061 102.235 115.582 104.868 123.97Z" fill="#878787"/>
<path d="M142.313 36.4786C137.675 35.1664 133.112 34.17 128.501 33.6819L127.12 46.2635C121.997 45.7211 116.826 45.6868 111.729 45.9684L110.427 33.308C105.721 33.8362 101.21 34.4877 96.6526 35.6475L100.052 48.0167C99.4182 48.1549 98.7845 48.2931 98.3462 48.5546C93.9838 49.8377 89.6955 51.4365 85.6766 53.4745L79.8162 41.9738C75.6759 44.2042 71.5357 46.4346 67.8603 49.2274L75.5954 59.4896C71.4818 62.5439 67.6376 66.0374 64.3058 69.5851L54.6486 61.0697C51.6337 64.5483 48.6928 68.3427 46.2642 72.1913L57.2097 79.0982C54.5383 83.3317 52.1363 88.0042 50.2467 92.7311L38.161 88.0643C36.5142 92.4063 35.2584 96.9949 34.3195 101.514L46.9117 104.079C45.9254 109.107 45.4514 114.189 45.4897 119.325L32.6604 119.301C32.7462 123.929 33.0273 128.681 33.9423 133.294L46.4488 131.231C46.9196 133.949 47.5858 136.791 48.4475 139.757C48.9657 141.967 49.8008 144.108 50.7573 146.057L38.843 150.646C40.5132 154.929 42.6956 159.266 45.121 163.218L55.9574 156.872C58.6522 161.263 61.7853 165.393 65.1613 169.137L55.8678 177.802C59.1698 181.231 62.5932 184.467 66.2594 187.319L74.1107 177.475C78.1679 180.573 82.6634 183.41 87.2063 185.739L81.7004 197.062C85.8524 199.144 90.2472 200.841 94.7635 202.346L98.3888 190.105C103.222 191.54 108.298 192.591 113.421 193.133L112.553 205.769C117.164 206.257 122.018 206.36 126.603 206.025L125.617 193.295C130.714 193.014 135.662 192.101 140.658 190.679L144.179 202.856L144.496 202.787C149.054 201.627 153.464 199.836 157.678 197.921L152.134 186.352C156.787 184.175 161.17 181.56 165.088 178.382L172.945 188.452C176.62 185.659 180.222 182.551 183.236 179.072L173.822 170.172C177.275 166.432 180.338 162.445 183.131 158.019L194.197 164.733C196.626 160.885 198.785 156.597 200.432 152.255L188.468 147.396C190.357 142.669 191.734 137.888 192.525 132.737L205.239 135.109C205.982 130.466 206.409 125.893 206.445 121.072L193.737 120.856C193.894 115.843 193.343 110.652 192.159 105.6L204.592 103.221C203.999 100.695 203.528 97.9765 202.619 95.5195C201.98 93.5016 201.414 91.7994 200.775 89.7814L188.786 94.0549C186.968 89.1408 184.59 84.6807 181.895 80.2896L192.658 73.6282C190.232 69.6762 187.173 65.8625 184.188 62.3645L174.625 70.59C171.054 66.722 167.239 63.2388 163.182 60.1405L170.643 50.0502C166.976 47.1986 162.75 44.8009 158.72 42.5266L152.897 53.9194C148.354 51.5909 143.568 49.6472 138.54 48.0884L142.313 36.4786ZM180.565 102.32C190.582 135.816 171.483 170.848 138.094 180.451C104.51 189.931 68.9698 170.464 58.8307 137.161C48.813 103.665 67.913 68.6326 101.301 59.0292C135.007 49.3566 170.547 68.8238 180.565 102.32Z" fill="#878787"/>
</g>
</svg>
