<svg width="270" height="474" viewBox="0 0 270 474" fill="none" xmlns="http://www.w3.org/2000/svg">
<g opacity="0.6">
<path d="M-24.8674 89.1773C-20.2078 104.715 -3.76591 113.63 11.6797 109.136C27.2579 104.725 36.002 88.5174 31.26 73.1104C26.6003 57.5728 10.1585 48.6581 -5.28713 53.152C-20.7327 57.6459 -29.4768 73.8539 -24.8674 89.1773ZM-4.67024 54.8193C9.96548 50.7272 25.479 59.056 29.805 73.6529C34.1311 88.2497 25.8311 103.46 11.3281 107.636C-3.30767 111.728 -18.8211 103.399 -23.1472 88.8022C-27.6883 74.2522 -19.306 58.9114 -4.67024 54.8193Z" fill="#878787"/>
<path d="M-20.6996 88.1558C-16.8075 101.383 -2.70271 109.006 10.5605 105.326C23.8237 101.645 31.2997 87.7409 27.4076 74.5133C23.5156 61.2857 9.41073 53.6633 -3.85245 57.3435C-17.1156 61.0237 -24.7243 74.8445 -20.6996 88.1558ZM-3.50082 58.8433C8.90227 55.3507 21.9963 62.5179 25.6874 74.8884C29.3786 87.2589 22.3467 100.166 9.94362 103.658C-2.45947 107.151 -15.5535 99.9838 -19.2446 87.6133C-22.8031 75.3265 -15.7713 62.4197 -3.50082 58.8433Z" fill="#878787"/>
<path d="M-12.4644 85.6847C-9.75978 94.329 -0.676756 99.3303 8.03876 96.9795C16.704 94.4145 21.6117 85.4617 19.1221 76.7706C16.4176 68.1263 7.33454 63.1249 -1.38098 65.4757C-10.1789 67.9571 -15.1689 77.0404 -12.4644 85.6847ZM-0.896736 67.0593C6.95869 64.8961 15.2459 69.3952 17.5346 77.2293C19.8232 85.0634 15.4099 93.2327 7.5545 95.396C-0.300917 97.5592 -8.58816 93.0601 -10.8768 85.226C-13.2478 77.5224 -8.83455 69.3531 -0.896736 67.0593Z" fill="#878787"/>
<path d="M-6.84139 84.1208C-5.18771 89.7285 0.762476 92.9355 6.38526 91.3717C12.008 89.8078 15.1532 83.942 13.4995 78.3343C11.8458 72.7265 5.89567 69.5195 0.272883 71.0834C-5.3499 72.6472 -8.62769 78.4293 -6.84139 84.1208Z" fill="#878787"/>
<path d="M18.5674 24.7529C15.4205 23.8625 12.3238 23.1864 9.19492 22.8552L8.25819 31.3925C4.78167 31.0245 1.27298 31.0012 -2.18547 31.1923L-3.06939 22.6015C-6.26259 22.9599 -9.32315 23.402 -12.4159 24.189L-10.1092 32.5822C-10.5392 32.6759 -10.9693 32.7697 -11.2667 32.9472C-14.2268 33.8178 -17.1367 34.9027 -19.8637 36.2856L-23.8403 28.4817C-26.6497 29.9952 -29.4591 31.5086 -31.9531 33.4037L-26.7044 40.3672C-29.4957 42.4397 -32.1042 44.8103 -34.365 47.2176L-40.918 41.4394C-42.9638 43.7998 -44.9593 46.3745 -46.6073 48.986L-39.1801 53.6727C-40.9928 56.5454 -42.6227 59.716 -43.9049 62.9234L-52.1058 59.7568C-53.2232 62.703 -54.0753 65.8167 -54.7125 68.8835L-46.1679 70.6239C-46.8372 74.0355 -47.1588 77.4839 -47.1328 80.9692L-55.8382 80.9529C-55.78 84.0933 -55.5893 87.3174 -54.9684 90.4477L-46.482 89.0477C-46.1626 90.8925 -45.7105 92.8209 -45.1258 94.833C-44.7741 96.3328 -44.2075 97.7858 -43.5584 99.1082L-51.643 102.222C-50.5097 105.128 -49.0288 108.071 -47.383 110.753L-40.0299 106.447C-38.2013 109.426 -36.0753 112.228 -33.7845 114.769L-40.0907 120.649C-37.8501 122.975 -35.5271 125.172 -33.0394 127.107L-27.7118 120.427C-24.9588 122.529 -21.9084 124.454 -18.8258 126.034L-22.5618 133.718C-19.7444 135.131 -16.7623 136.282 -13.6977 137.303L-11.2378 128.997C-7.95821 129.971 -4.51386 130.684 -1.03734 131.052L-1.62643 139.626C1.50244 139.957 4.7961 140.027 7.9069 139.8L7.238 131.162C10.6965 130.971 14.0544 130.351 17.4446 129.387L19.8337 137.65L20.0487 137.603C23.1414 136.816 26.1337 135.6 28.9933 134.301L25.2317 126.45C28.3888 124.974 31.363 123.199 34.0217 121.043L39.3528 127.876C41.8467 125.981 44.2904 123.871 46.3362 121.511L39.948 115.471C42.2913 112.934 44.3692 110.228 46.2643 107.225L53.7739 111.781C55.4218 109.17 56.8869 106.26 58.0043 103.314L49.8858 100.017C51.168 96.8092 52.1026 93.5649 52.6392 90.0696L61.2662 91.6795C61.7707 88.529 62.0602 85.4255 62.0844 82.1545L53.4614 82.0077C53.568 78.6062 53.1944 75.0841 52.3907 71.6559L60.8268 70.0416C60.425 68.3275 60.1055 66.4828 59.4886 64.8155C59.0546 63.4463 58.6708 62.2912 58.2368 60.9219L50.102 63.8218C48.8683 60.4873 47.2547 57.4608 45.4261 54.4812L52.729 49.961C51.0833 47.2794 49.0075 44.6916 46.9819 42.318L40.4929 47.8994C38.0695 45.2748 35.4812 42.9113 32.7282 40.8089L37.7905 33.962C35.3027 32.027 32.4352 30.4001 29.7002 28.8569L25.7492 36.5875C22.6666 35.0075 19.4192 33.6886 16.007 32.6308L18.5674 24.7529ZM44.5233 69.4299C51.3209 92.1588 38.3605 115.93 15.7046 122.447C-7.08401 128.879 -31.2002 115.67 -38.0802 93.0715C-44.8777 70.3426 -31.9173 46.5713 -9.2614 40.0548C13.6096 33.4914 37.7258 46.701 44.5233 69.4299Z" fill="#878787"/>
</g>
<path d="M4.03243 296.942C15.0677 334.801 54.793 356.287 92.3315 345.049C130.19 334.014 151.676 294.289 140.438 256.75C129.403 218.892 89.6778 197.406 52.1393 208.643C14.6008 219.881 -6.88472 259.606 4.03243 296.942ZM53.6069 212.704C89.1743 202.461 126.658 222.532 136.9 258.1C147.143 293.667 126.751 330.949 91.5043 341.393C55.937 351.636 18.4534 331.565 8.211 295.997C-2.55373 260.548 18.0395 222.946 53.6069 212.704Z" fill="#878787"/>
<path d="M14.1584 294.377C23.3716 326.608 57.4507 344.978 89.6821 335.765C121.913 326.552 140.284 292.473 131.071 260.241C121.857 228.01 87.7784 209.64 55.547 218.853C23.3156 228.066 4.62497 261.943 14.1584 294.377ZM56.3741 222.509C86.5162 213.769 118.152 231.045 126.892 261.187C135.633 291.329 118.357 322.964 88.2145 331.705C58.0724 340.445 26.4371 323.169 17.6965 293.027C9.27617 263.087 26.5522 231.452 56.3741 222.509Z" fill="#878787"/>
<path d="M34.174 288.201C40.5856 309.262 62.5298 321.318 83.7086 315.429C104.769 309.017 116.825 287.073 110.936 265.894C104.525 244.834 82.5804 232.777 61.4017 238.667C40.0208 244.876 27.7625 267.141 34.174 288.201ZM62.549 242.525C81.6385 237.108 101.661 247.952 107.078 267.042C112.494 286.131 101.651 306.154 82.5612 311.57C63.4717 316.987 43.449 306.143 38.0324 287.054C32.4137 268.285 43.2574 248.262 62.549 242.525Z" fill="#878787"/>
<path d="M47.8388 284.286C51.7535 297.951 66.1301 305.679 79.7943 301.764C93.4585 297.85 101.187 283.473 97.2724 269.809C93.3577 256.145 78.9811 248.416 65.3169 252.331C51.6527 256.245 43.6038 270.42 47.8388 284.286Z" fill="#878787"/>
<path d="M110.481 138.891C102.864 136.771 95.3649 135.174 87.7818 134.418L85.3637 155.28C76.9381 154.441 68.4285 154.444 60.0372 154.97L58.0405 134.009C50.2896 134.939 42.859 136.071 35.3444 138.045L40.7953 158.5C39.7507 158.736 38.706 158.972 37.9816 159.411C30.7873 161.587 23.7112 164.286 17.0734 167.709L7.56216 148.723C0.722333 152.466 -6.11746 156.21 -12.1987 160.88L0.412271 177.793C-6.39332 182.901 -12.7605 188.734 -18.2851 194.651L-34.0796 180.654C-39.0819 186.453 -43.9661 192.774 -48.0077 199.178L-30.0742 210.495C-34.5199 217.54 -38.5273 225.31 -41.692 233.163L-61.5282 225.572C-64.2888 232.785 -66.4089 240.402 -68.0067 247.901L-47.3126 252.004C-48.9943 260.346 -49.8335 268.772 -49.8301 277.281L-70.9438 277.391C-70.8565 285.058 -70.449 292.927 -68.9968 300.559L-48.39 296.996C-47.6468 301.495 -46.5834 306.195 -45.1997 311.098C-44.3725 314.755 -43.0231 318.293 -41.4715 321.511L-61.133 329.253C-58.4341 336.329 -54.8927 343.489 -50.9471 350.009L-33.0392 339.369C-28.6551 346.613 -23.5468 353.418 -18.0342 359.583L-33.4298 374.047C-28.0354 379.69 -22.4389 385.013 -16.4383 389.695L-3.40248 373.294C3.23865 378.38 10.6042 383.028 18.0536 386.833L8.86073 405.659C15.6697 409.06 22.8828 411.821 30.298 414.261L36.4067 393.937C44.3442 396.259 52.6859 397.941 61.1115 398.78L59.5359 419.726C67.1189 420.481 75.1061 420.596 82.6549 419.986L81.1805 398.907C89.5719 398.381 97.7269 396.811 105.966 394.398L111.619 414.532L112.141 414.414C119.656 412.439 126.934 409.42 133.892 406.199L124.903 387.094C132.585 383.434 139.829 379.05 146.315 373.74L159.128 390.333C165.209 385.663 171.172 380.47 176.174 374.672L160.784 360.035C166.51 353.798 171.597 347.157 176.245 339.791L194.38 350.787C198.422 344.382 202.025 337.253 204.785 330.04L185.151 322.128C188.316 314.275 190.638 306.337 192 297.793L212.896 301.576C214.174 293.875 214.929 286.292 215.044 278.305L194.132 278.094C194.449 269.787 193.603 261.193 191.712 252.836L212.201 248.75C211.256 244.572 210.513 240.073 209.045 236.012C208.016 232.676 207.105 229.863 206.075 226.527L186.296 233.747C183.361 225.626 179.499 218.264 175.115 211.02L192.905 199.858C188.959 193.338 183.969 187.055 179.097 181.294L163.263 195.033C157.43 188.666 151.193 182.939 144.552 177.853L156.947 161.048C150.946 156.366 144.019 152.443 137.412 148.722L127.697 167.665C120.248 163.86 112.394 160.695 104.136 158.171L110.481 138.891ZM172.669 247.536C188.767 302.917 156.926 361.182 101.864 377.482C46.4832 393.579 -11.7818 361.738 -28.0813 306.677C-44.1787 251.295 -12.3375 193.031 42.7235 176.731C98.3069 160.313 156.572 192.155 172.669 247.536Z" fill="#878787"/>
</svg>
