<svg width="98" height="97" viewBox="0 0 98 97" xmlns="http://www.w3.org/2000/svg">
    <path
        d="M45.8139 128.128C42.1974 126.313 38.5994 123.933 35.3024 120.997L28.5367 128.975C25.5036 126.613 22.7716 123.696 20.322 120.788L28.1806 113.976C27.9074 113.684 27.6342 113.393 27.3703 112.818C24.9207 109.91 22.7629 106.729 21.17 103.566L11.9547 108.636C10.0887 105.182 8.50506 101.737 7.2132 98.018L17.2296 94.3879C15.6645 90.3776 14.6644 86.386 14.2385 82.1303L3.73139 83.4821C3.28695 79.7914 3.13423 75.8275 2.98155 71.8636L13.4331 72.2066C13.5721 67.9695 13.9937 63.7416 14.9709 59.8148L4.86672 57.5038C5.83465 53.8595 7.09436 49.9419 8.3355 46.5893L18.1016 50.5859C19.6437 46.6776 21.7416 43.0704 24.1219 39.4724L15.5506 33.5355C17.6299 30.4932 20.2741 27.4694 22.9184 24.4456L30.5959 31.7671C32.3463 30.1278 33.8143 28.4793 35.8473 26.8494C37.2967 25.7658 38.7462 24.6823 40.1956 23.5988L34.2593 14.9206C37.4407 12.7628 40.8953 10.8967 44.3406 9.31314L48.8367 18.7923C52.5738 16.9355 56.5747 15.653 60.8489 14.6622L58.3579 4.40037C62.0672 3.39099 66.0403 2.95584 69.7218 2.79389L70.5086 13.2825C74.755 13.1391 78.9921 13.2781 83.22 13.6997L84.6929 3.28523C88.6383 3.69749 92.2826 4.66544 95.9177 5.91585L92.7592 15.9922C96.6768 17.2519 100.585 18.794 104.475 20.9011L109.583 11.7371C112.917 13.5432 116.232 15.9142 119.265 18.276L112.773 26.5462C116.079 29.1998 119.094 32.1265 121.816 35.3264L129.957 28.5241C132.407 31.4323 134.565 34.6137 136.713 38.0775L127.771 43.4396C129.91 47.1859 131.767 50.923 133.05 54.924L143.057 51.5763C144.349 55.2948 145.076 58.9948 145.793 62.9772L135.277 64.6116C135.985 68.8765 136.129 73.1228 135.99 77.36L146.432 77.9855C146.302 81.9401 145.617 85.5936 144.922 89.5297L134.535 87.2095C133.549 91.4187 132.289 95.3363 130.747 99.2446L140.504 103.524C138.971 107.149 137.165 110.484 135.076 113.808L126.213 108.145C123.833 111.743 121.189 114.766 118.253 118.063L125.638 125.658C124.17 127.307 122.429 128.663 120.688 130.02C119.521 131.113 118.072 132.196 116.914 133.007L110.686 124.602C107.213 127.033 103.466 129.172 99.7386 130.746L103.943 140.499C100.498 142.082 96.7792 143.374 93.0699 144.384L90.5789 134.122C86.5872 135.122 82.3223 135.83 78.0759 135.974L78.5803 146.453C74.6164 146.606 70.9443 146.485 66.9989 146.073L68.1893 135.649C63.9615 135.228 59.7522 134.241 55.8347 132.982L52.3937 143.049C48.7586 141.798 45.1328 140.265 41.7988 138.459L45.8139 128.128ZM107.63 114.321C129.719 96.1003 133.064 63.125 114.569 40.7441C96.3479 18.655 63.3726 15.3105 40.9918 33.8049C18.9026 52.0261 15.5582 85.0014 34.0526 107.382C52.5562 129.481 85.5315 132.825 107.63 114.321Z" />
</svg>