<svg width="247" height="222" viewBox="0 0 247 222" fill="none" xmlns="http://www.w3.org/2000/svg">
<g opacity="0.7">
<path d="M48.533 240.503C57.2412 254.189 75.4874 258.298 89.1295 249.774C102.922 241.295 106.93 223.32 98.1784 209.782C89.4702 196.097 71.224 191.988 57.5819 200.511C43.9398 209.035 39.9313 227.01 48.533 240.503ZM58.6288 201.948C71.6008 194.031 88.7943 197.829 96.9258 210.7C105.057 223.571 101.205 240.465 88.3834 248.426C75.4114 256.343 58.2179 252.545 50.0864 239.674C41.7608 226.907 45.6568 209.865 58.6288 201.948Z" fill="#878787"/>
<path d="M52.2663 238.387C59.6079 250.058 75.2537 253.559 87.0168 246.412C98.78 239.264 102.194 223.851 94.8527 212.18C87.5112 200.508 71.8654 197.008 60.1022 204.155C48.3391 211.302 44.7744 226.671 52.2663 238.387ZM60.8484 205.503C71.8348 198.77 86.3841 202.107 93.2993 213.008C100.214 223.909 96.9563 238.242 85.9699 244.975C74.9835 251.708 60.4342 248.37 53.519 237.469C46.7542 226.613 50.0123 212.28 60.8484 205.503Z" fill="#878787"/>
<path d="M59.5193 233.77C64.4721 241.353 74.5727 243.697 82.3209 239.065C89.9624 234.241 92.2513 224.291 87.4927 216.604C82.54 209.021 72.4394 206.677 64.6912 211.309C56.8993 216.089 54.5666 226.187 59.5193 233.77ZM65.5877 212.701C72.5592 208.484 81.7575 210.561 86.0897 217.477C90.4219 224.394 88.3958 233.456 81.4243 237.673C74.4529 241.89 65.2546 239.814 60.9224 232.897C56.5464 226.128 58.5725 217.067 65.5877 212.701Z" fill="#878787"/>
<path d="M64.5054 230.736C67.6213 235.683 74.2193 237.152 79.2051 234.118C84.191 231.085 85.623 224.585 82.5071 219.638C79.3912 214.691 72.7932 213.222 67.8074 216.256C62.8215 219.289 61.2391 225.745 64.5054 230.736Z" fill="#878787"/>
<path d="M72.8174 166.697C69.5469 166.695 66.3831 166.887 63.282 167.418L64.7015 175.889C61.2559 176.48 57.873 177.411 54.5968 178.535L51.4106 170.508C48.4351 171.721 45.61 172.979 42.8477 174.577L47.3494 182.027C46.961 182.234 46.5726 182.441 46.3347 182.693C43.7227 184.336 41.2174 186.171 38.9691 188.243L33.0206 181.814C30.7285 184.034 28.4363 186.254 26.5515 188.756L33.4957 194.03C31.3729 196.784 29.5071 199.774 27.9859 202.705L20.1089 198.926C18.7818 201.754 17.5614 204.774 16.6855 207.736L25.1071 210.227C24.1436 213.484 23.4371 216.978 23.0751 220.413L14.3222 219.595C14.0479 222.735 14.0743 225.963 14.2949 229.087L22.9908 228.439C23.2742 231.904 23.9022 235.31 24.8747 238.657L16.4928 241.008C17.4025 244.014 18.4627 247.065 19.9111 249.909L27.6973 246.254C28.5062 247.943 29.4655 249.676 30.5752 251.453C31.3214 252.801 32.2617 254.045 33.2458 255.141L26.3124 260.336C28.193 262.824 30.4182 265.254 32.731 267.387L38.6365 261.244C41.2063 263.614 44.014 265.733 46.9093 267.555L42.439 274.928C45.2278 276.558 48.0603 278.039 50.9804 279.225L54.2914 271.349C57.5123 272.624 60.9711 273.647 64.3672 274.329L62.8608 282.739C65.9561 283.333 69.139 283.63 72.3656 283.78L72.4748 275.117C75.8956 275.163 79.404 274.913 82.8497 274.322L84.6138 282.733C87.7149 282.201 90.9035 281.373 93.8352 280.308L90.8432 272.178C94.1195 271.054 97.1826 269.545 100.183 267.695L104.728 274.997L104.922 274.893C107.685 273.295 110.234 271.312 112.633 269.284L106.878 262.752C109.515 260.473 111.895 257.956 113.867 255.158L120.855 260.285C122.74 257.783 124.518 255.089 125.845 252.261L118.056 248.186C119.621 245.106 120.885 241.938 121.892 238.533L130.358 240.876C131.233 237.915 131.852 234.716 132.127 231.577L123.418 230.611C123.779 227.176 123.797 223.8 123.363 220.29L132.103 219.494C131.732 216.325 131.167 213.26 130.301 210.106L121.963 212.309C121.14 209.006 119.823 205.718 118.118 202.638L125.797 198.791C124.945 197.251 124.136 195.562 123.089 194.125C122.299 192.926 121.616 191.919 120.826 190.719L113.786 195.721C111.692 192.847 109.316 190.374 106.747 188.003L112.545 181.668C110.233 179.535 107.532 177.609 104.937 175.875L100.21 183.011C97.164 181.144 94.0307 179.573 90.8099 178.298L93.8201 170.333C90.9 169.147 87.6981 168.361 84.6466 167.619L82.9461 176.133C79.55 175.451 76.0663 175.064 72.4951 174.974L72.8174 166.697ZM109.942 202.635C122.662 222.659 116.653 249.059 96.6216 261.489C76.4401 273.875 49.641 267.719 36.8766 247.842C24.1559 227.818 30.1657 201.418 50.1967 188.988C70.4219 176.454 97.221 182.61 109.942 202.635Z" fill="#878787"/>
</g>
<path d="M312.327 184.527C306.266 217.946 274.163 239.91 241 233.648C207.581 227.587 185.617 195.484 191.88 162.321C197.94 128.902 230.044 106.938 263.206 113.201C296.369 119.463 318.333 151.567 312.327 184.527ZM262.313 116.81C230.928 111.224 200.618 131.775 195.031 163.16C189.445 194.545 210.252 224.653 241.381 230.442C272.766 236.028 303.076 215.477 308.662 184.092C314.707 152.762 293.698 122.397 262.313 116.81Z" fill="#878787"/>
<path d="M303.423 183.237C298.419 211.672 270.873 230.461 242.438 225.457C214.003 220.453 195.213 192.907 200.217 164.472C205.221 136.037 232.767 117.248 261.202 122.251C289.637 127.255 308.683 154.6 303.423 183.237ZM260.821 125.458C234.218 120.671 208.667 138.305 203.881 164.908C199.095 191.51 216.728 217.061 243.331 221.848C269.934 226.634 295.485 209.001 300.271 182.398C304.801 155.996 287.168 130.446 260.821 125.458Z" fill="#878787"/>
<path d="M285.724 179.74C282.119 198.355 264.402 210.649 245.732 207.502C227.117 203.897 214.824 186.18 217.971 167.51C221.576 148.895 239.293 136.601 257.962 139.748C276.834 143.152 289.329 161.125 285.724 179.74ZM257.325 143.156C240.488 140.227 224.308 151.31 221.379 168.147C218.449 184.985 229.532 201.164 246.369 204.094C263.207 207.023 279.387 195.94 282.316 179.103C285.447 162.522 274.364 146.342 257.325 143.156Z" fill="#878787"/>
<path d="M273.668 177.611C271.539 189.667 259.917 197.575 247.861 195.446C235.805 193.317 227.897 181.695 230.026 169.639C232.155 157.584 243.777 149.675 255.833 151.804C267.888 153.933 276.053 165.354 273.668 177.611Z" fill="#878787"/>
<path d="M206.98 58.6785C213.315 56.1798 219.596 54.1392 226.024 52.8128L229.965 70.4664C237.107 68.9926 244.396 68.233 251.631 67.9314L251.464 49.7971C258.186 49.8991 264.653 50.2029 271.267 51.221L268.43 69.2306C269.346 69.3394 270.262 69.4483 270.922 69.7589C277.28 70.9787 283.583 72.6565 289.576 74.9942L296.022 57.8778C302.216 60.4717 308.411 63.0655 314.038 66.521L304.751 82.1386C311.039 85.9046 317.015 90.3305 322.278 94.9038L334.553 81.4991C339.358 86.0179 344.108 90.9948 348.144 96.119L333.796 107.42C338.236 113.056 342.365 119.353 345.779 125.796L362.091 117.516C365.102 123.447 367.6 129.782 369.641 136.063L352.282 141.432C354.47 148.427 355.944 155.569 356.703 162.859L374.799 161.061C375.411 167.636 375.767 174.413 375.207 181.081L357.236 179.875C357.003 183.795 356.513 187.918 355.767 192.241C355.386 195.447 354.547 198.599 353.507 201.495L371.042 206.365C369.365 212.668 366.973 219.119 364.177 225.057L347.884 217.547C344.777 224.145 341.011 230.433 336.842 236.208L351.326 247.218C347.21 252.535 342.893 257.596 338.173 262.144L325.537 249.263C320.304 254.215 314.411 258.857 308.37 262.784L317.932 278.086C312.404 281.61 306.473 284.621 300.34 287.376L293.286 270.513C286.695 273.214 279.7 275.402 272.558 276.875L275.784 294.677C269.356 296.003 262.525 296.817 256.004 296.971L255.378 278.782C248.143 279.084 241.016 278.469 233.743 277.141L230.704 294.894L230.246 294.84C223.633 293.822 217.127 291.888 210.879 289.752L216.867 272.581C209.958 270.135 203.36 267.029 197.329 263.061L187.84 278.422C182.212 274.967 176.639 271.053 171.835 266.534L183.706 252.617C178.242 247.788 173.29 242.555 168.649 236.662L154.099 247.706C150.063 242.582 146.338 236.798 143.327 230.867L159.437 222.33C156.022 215.886 153.321 209.295 151.39 202.098L133.829 207.211C132.044 200.729 130.718 194.301 129.904 187.469L147.798 185.415C146.782 178.327 146.737 170.89 147.607 163.562L129.691 161.898C130.126 158.234 130.36 154.314 131.253 150.704C131.836 147.754 132.364 145.262 132.947 142.313L150.537 146.725C152.324 139.506 154.972 132.853 158.078 126.255L141.839 118.288C144.635 112.349 148.346 106.52 152.004 101.149L166.798 111.499C171.224 105.522 176.054 100.058 181.287 95.106L169.163 81.8216C173.884 77.2732 179.466 73.2917 184.792 69.512L194.811 84.8688C200.852 80.9417 207.295 77.5271 214.143 74.6248L206.98 58.6785ZM163.445 157.316C154.618 206.198 187.114 253.254 235.74 262.283C284.622 271.11 331.679 238.614 340.707 189.988C349.534 141.106 317.038 94.049 268.412 85.0205C219.328 75.9376 172.272 108.434 163.445 157.316Z" fill="#878787"/>
</svg>
