<svg width="115" height="115" viewBox="0 0 115 115" fill="none" xmlns="http://www.w3.org/2000/svg">
<g opacity="0.7">
<path d="M-24.3461 33.9232C-12.0277 53.2825 13.7827 59.0949 33.0804 47.0375C52.5909 35.0431 58.2611 9.61659 45.8808 -9.53325C33.5624 -28.8925 7.75197 -34.7049 -11.5458 -22.6476C-30.8435 -10.5902 -36.5137 14.8363 -24.3461 33.9232ZM-10.0648 -20.6152C8.28495 -31.8141 32.6063 -26.4422 44.1088 -8.23528C55.6113 9.97162 50.1621 33.8692 32.025 45.131C13.6752 56.33 -10.6461 50.958 -22.1487 32.7511C-33.9259 14.6907 -28.4146 -9.41627 -10.0648 -20.6152Z" fill="#878787"/>
<path d="M-19.0657 30.93C-8.68056 47.4398 13.4515 52.392 30.0913 42.2816C46.731 32.1712 51.5609 10.368 41.1757 -6.14183C30.7906 -22.6516 8.65851 -27.6038 -7.98125 -17.4934C-24.621 -7.38294 -29.6635 14.3573 -19.0657 30.93ZM-6.92578 -15.5868C8.61526 -25.1112 29.1963 -20.3901 38.9783 -4.96971C48.7603 10.4506 44.1514 30.7248 28.6104 40.2492C13.0693 49.7735 -7.5117 45.0524 -17.2937 29.632C-26.863 14.2746 -22.2541 -5.99955 -6.92578 -15.5868Z" fill="#878787"/>
<path d="M-8.80538 24.399C-1.79937 35.1263 12.4886 38.4415 23.4489 31.8897C34.2585 25.0655 37.4962 10.9909 30.7649 0.117131C23.7589 -10.6102 9.47092 -13.9254 -1.48939 -7.37357C-12.5117 -0.612315 -15.8114 13.6718 -8.80538 24.399ZM-0.221206 -5.40408C9.64039 -11.3698 22.652 -8.43218 28.7802 1.35218C34.9084 11.1365 32.0423 23.9545 22.1807 29.9203C12.3191 35.886 -0.692445 32.9484 -6.82066 23.164C-13.0108 13.5891 -10.1448 0.771111 -0.221206 -5.40408Z" fill="#878787"/>
<path d="M-1.7522 20.1075C2.65548 27.1053 11.9887 29.1827 19.0416 24.8915C26.0944 20.6003 28.1201 11.4057 23.7124 4.40792C19.3047 -2.58989 9.97147 -4.66732 2.91863 -0.376142C-4.13422 3.91503 -6.37262 13.0467 -1.7522 20.1075Z" fill="#878787"/>
<path d="M10.0054 -70.4807C5.37914 -70.4825 0.903631 -70.212 -3.48305 -69.4597L-1.47504 -57.4776C-6.34913 -56.6417 -11.1344 -55.324 -15.7689 -53.7339L-20.2759 -65.0886C-24.4849 -63.3727 -28.4813 -61.5938 -32.3887 -59.3332L-26.0209 -48.7947C-26.5702 -48.5017 -27.1196 -48.2086 -27.4562 -47.8527C-31.151 -45.5291 -34.6949 -42.9332 -37.8754 -40.002L-46.2899 -49.096C-49.5323 -45.9554 -52.7746 -42.8147 -55.4408 -39.2759L-45.6179 -31.8151C-48.6207 -27.9203 -51.2599 -23.6902 -53.4118 -19.5437L-64.5544 -24.8894C-66.4316 -20.8894 -68.158 -16.6171 -69.397 -12.4283L-57.4841 -8.90457C-58.847 -4.29693 -59.8464 0.645972 -60.3584 5.50531L-72.74 4.34834C-73.1281 8.78879 -73.0907 13.3551 -72.7786 17.7749L-60.4777 16.8582C-60.0768 21.7597 -59.1885 26.5777 -57.8128 31.3121L-69.6696 34.6379C-68.3827 38.8905 -66.8831 43.206 -64.8341 47.2285L-53.8201 42.0592C-52.6758 44.4475 -51.3188 46.8988 -49.749 49.413C-48.6935 51.3195 -47.3634 53.0795 -45.9713 54.6301L-55.7792 61.9783C-53.1189 65.4983 -49.9712 68.9348 -46.6996 71.9524L-38.3458 63.263C-34.7107 66.6158 -30.739 69.6128 -26.6433 72.1908L-32.9669 82.6195C-29.022 84.9252 -25.0152 87.0214 -20.8845 88.6987L-16.2009 77.5572C-11.6448 79.3604 -6.75195 80.8076 -1.948 81.7731L-4.07887 93.6697C0.299625 94.5093 4.80203 94.93 9.36638 95.1413L9.52072 82.8878C14.3597 82.9526 19.3227 82.5985 24.1968 81.7625L26.6922 93.661C31.0789 92.9087 35.5895 91.7375 39.7366 90.231L35.5042 78.7298C40.1387 77.1398 44.4716 75.005 48.7157 72.3884L55.1455 82.7175L55.4202 82.571C59.3277 80.3103 62.9336 77.505 66.3267 74.6367L58.1869 65.3961C61.9168 62.1719 65.283 58.6124 68.0731 54.6546L77.958 61.906C80.6242 58.3671 83.1395 54.5559 85.0167 50.5559L73.998 44.7913C76.2119 40.4353 78.0002 35.9536 79.4251 31.1365L91.3999 34.4508C92.6389 30.262 93.5144 25.738 93.9025 21.2975L81.5828 19.9311C82.0948 15.0718 82.1194 10.296 81.5058 5.33148L93.8687 4.20534C93.3439 -0.27738 92.5444 -4.61358 91.3195 -9.07563L79.5246 -5.95935C78.3616 -10.6308 76.4985 -15.2817 74.0861 -19.6394L84.9494 -25.0811C83.7431 -27.26 82.5988 -29.6484 81.1179 -31.6807C80.0005 -33.3778 79.0339 -34.8026 77.9165 -36.4997L67.9578 -29.4238C64.996 -33.4886 61.6356 -36.9879 58.0005 -40.3408L66.2035 -49.3025C62.9319 -52.3201 59.111 -55.0446 55.4408 -57.4968L48.7538 -47.4033C44.4454 -50.0443 40.0131 -52.2664 35.457 -54.0696L39.7152 -65.337C35.5845 -67.0143 31.0552 -68.1263 26.7386 -69.1753L24.3331 -57.1322C19.5291 -58.0976 14.6013 -58.6442 9.54954 -58.7719L10.0054 -70.4807ZM62.5203 -19.6441C80.5146 8.68249 72.0133 46.0263 43.6781 63.6099C15.13 81.1305 -22.7791 72.4227 -40.8353 44.3056C-58.8296 15.9791 -50.3284 -21.3648 -21.9931 -38.9483C6.61689 -56.6784 44.5261 -47.9706 62.5203 -19.6441Z" fill="#878787"/>
</g>
</svg>
