<svg width="51" height="51" viewBox="0 0 51 51" fill="none" xmlns="http://www.w3.org/2000/svg">
<g clip-path="url(#clip0)">
<path d="M50.2655 45.8468L39.6509 28.5948C39.3606 28.1232 38.8567 27.8416 38.3028 27.8416C37.7491 27.8416 37.2452 28.1233 36.9551 28.5948L35.577 30.8347C35.3626 31.1831 35.4713 31.6395 35.8198 31.8539C36.1684 32.0683 36.6246 31.9597 36.8391 31.6112L38.2172 29.3713C38.2245 29.3594 38.2467 29.3233 38.303 29.3233C38.3594 29.3233 38.3817 29.3594 38.389 29.3713L49.0036 46.6232C49.0121 46.6369 49.0346 46.6735 49.0058 46.7251C48.977 46.7767 48.934 46.7767 48.9178 46.7767H43.0393L26.5979 20.0553C26.4502 19.8152 26.2471 19.6248 26.0102 19.4953C26.0105 19.4953 26.0108 19.4955 26.011 19.4956V14.4673C26.6276 14.6345 27.2282 14.7059 27.8157 14.7059C29.5055 14.7059 31.0879 14.1186 32.6359 13.5439C34.781 12.7477 36.8071 11.9956 38.9985 12.8744C39.2811 12.9878 39.6005 12.9536 39.8527 12.783C40.1053 12.6122 40.256 12.3282 40.256 12.0234V3.65374C40.256 3.28485 40.0371 2.95335 39.6987 2.80934C36.917 1.62308 34.4784 2.52814 32.1201 3.40341C29.911 4.22344 27.8244 4.998 25.5524 3.98258C25.3231 3.8801 25.0576 3.90081 24.847 4.03732C24.6363 4.17393 24.5091 4.40788 24.5091 4.659V4.68652C24.4964 4.74166 24.4891 4.79877 24.4891 4.85775V19.4956C24.2527 19.6251 24.0497 19.8155 23.9022 20.0553L16.0965 32.7417L13.545 28.5949C13.2548 28.1233 12.7509 27.8417 12.1971 27.8417C11.6434 27.8417 11.1395 28.1233 10.8493 28.5949L0.234527 45.8468C-0.0656122 46.3345 -0.0784345 46.9481 0.200894 47.4481C0.480222 47.9481 1.00958 48.2586 1.58234 48.2586H48.9177C49.4905 48.2586 50.0198 47.9481 50.2992 47.4481C50.5786 46.9481 50.5657 46.3344 50.2655 45.8468ZM25.991 5.71092C28.3895 6.3688 30.5437 5.56919 32.6359 4.79255C34.7057 4.0242 36.6667 3.29649 38.7742 4.0388V11.2375C36.3686 10.5779 34.2121 11.3784 32.1202 12.1548C30.0539 12.9218 28.0947 13.649 25.991 12.9089V5.71092ZM9.20074 46.7768L11.7426 42.6456C11.957 42.2971 11.8483 41.8407 11.4999 41.6263C11.1513 41.412 10.695 41.5205 10.4806 41.869L7.46096 46.7768H1.58244C1.56627 46.7768 1.52326 46.7768 1.49446 46.7252C1.46566 46.6736 1.48805 46.6371 1.49663 46.6233L12.1114 29.3715C12.1187 29.3596 12.1409 29.3235 12.1972 29.3235C12.2535 29.3235 12.2757 29.3596 12.283 29.3715L15.2266 34.1555L12.2875 38.9324C12.073 39.2809 12.1817 39.7373 12.5302 39.9517C12.8789 40.1661 13.3351 40.0574 13.5495 39.709L25.1643 20.8317C25.1716 20.8199 25.1938 20.7838 25.2501 20.7838C25.3063 20.7838 25.3285 20.8199 25.3359 20.8317L41.2994 46.7768H9.20074Z" fill="#EB856B"/>
</g>
<defs>
<clipPath id="clip0">
<rect width="50.5" height="50.5" fill="white"/>
</clipPath>
</defs>
</svg>
