<svg width="208" height="255" viewBox="0 0 208 255" fill="none" xmlns="http://www.w3.org/2000/svg">
<g opacity="0.6">
<path d="M114.735 182.829C116.267 196.18 128.377 205.679 141.632 204.06C154.983 202.528 164.482 190.418 162.863 177.163C161.331 163.812 149.221 154.314 135.966 155.932C122.711 157.551 113.212 169.661 114.735 182.829ZM136.226 157.381C148.761 155.983 160.199 164.878 161.597 177.413C162.995 189.949 154.004 201.301 141.564 202.785C129.029 204.182 117.591 195.287 116.193 182.752C114.613 170.226 123.69 158.778 136.226 157.381Z" fill="#7A7A7A"/>
<path d="M118.284 182.549C119.527 193.905 129.92 202.033 141.275 200.79C152.631 199.546 160.759 189.154 159.516 177.798C158.272 166.442 147.88 158.314 136.524 159.558C125.168 160.801 116.944 171.107 118.284 182.549ZM136.592 160.833C147.219 159.629 156.853 167.249 158.058 177.876C159.263 188.503 151.643 198.137 141.016 199.341C130.389 200.546 120.755 192.926 119.55 182.299C118.441 171.759 126.061 162.124 136.592 160.833Z" fill="#7A7A7A"/>
<path d="M125.362 181.624C126.306 189.067 132.985 194.377 140.437 193.615C147.88 192.671 153.19 185.993 152.428 178.54C151.484 171.098 144.805 165.788 137.353 166.549C129.814 167.407 124.418 174.182 125.362 181.624ZM137.517 167.911C144.24 167.188 150.343 171.981 151.066 178.704C151.789 185.428 146.997 191.53 140.273 192.254C133.55 192.977 127.447 188.184 126.724 181.461C125.915 174.833 130.707 168.73 137.517 167.911Z" fill="#7A7A7A"/>
<path d="M130.177 181.094C130.707 185.909 135.092 189.331 139.907 188.801C144.722 188.271 148.143 183.885 147.613 179.071C147.083 174.256 142.698 170.834 137.883 171.364C133.068 171.894 129.551 176.193 130.177 181.094Z" fill="#7A7A7A"/>
<path d="M159.57 135.854C157.133 134.704 154.706 133.737 152.202 133.047L150.191 139.916C147.409 139.15 144.551 138.663 141.702 138.357L142.235 131.202C139.578 131.069 137.017 131.022 134.379 131.254L135.036 138.438C134.671 138.457 134.307 138.476 134.038 138.582C131.497 138.9 128.965 139.4 126.538 140.169L124.434 133.245C121.921 134.109 119.409 134.974 117.098 136.193L120.363 142.599C117.783 143.924 115.309 145.517 113.114 147.187L108.612 141.579C106.599 143.239 104.595 145.082 102.87 147.001L108.244 151.833C106.346 153.944 104.553 156.323 103.039 158.78L96.8123 155.09C95.4707 157.355 94.3211 159.792 93.3536 162.219L100.069 164.786C99.0252 167.491 98.2593 170.273 97.7717 173.132L90.6733 171.956C90.2622 174.536 89.9471 177.203 89.9965 179.85L97.1231 179.837C97.1144 181.39 97.2016 183.031 97.3848 184.757C97.4526 186.033 97.7027 187.299 98.0391 188.469L90.99 189.94C91.4901 192.472 92.2685 195.08 93.2193 197.497L99.8458 194.952C100.902 197.637 102.227 200.216 103.725 202.604L97.7228 206.578C99.2107 208.783 100.785 210.892 102.532 212.81L107.852 208.049C109.791 210.139 111.998 212.124 114.282 213.83L110.113 219.625C112.205 221.159 114.469 222.5 116.82 223.746L120.039 217.27C122.572 218.506 125.277 219.55 128.059 220.316L126.327 227.261C128.831 227.95 131.507 228.448 134.078 228.676L134.793 221.511C137.642 221.816 140.471 221.757 143.378 221.42L144.12 228.508L144.302 228.498C146.94 228.267 149.558 227.67 152.08 226.988L150.158 220.054C152.949 219.266 155.634 218.21 158.117 216.798L161.468 223.108C163.779 221.889 166.08 220.487 168.094 218.826L163.765 213.026C166.047 211.26 168.137 209.321 170.121 207.114L175.581 211.849C177.307 209.93 178.926 207.742 180.268 205.478L174.127 201.692C175.641 199.236 176.877 196.703 177.825 193.912L184.627 196.383C185.499 193.869 186.188 191.365 186.685 188.689L179.673 187.417C180.257 184.645 180.466 181.71 180.311 178.794L187.428 178.598C187.35 177.14 187.359 175.586 187.099 174.138C186.945 172.958 186.801 171.961 186.647 170.781L179.588 172.07C179.068 169.174 178.194 166.479 177.138 163.794L183.754 161.067C182.803 158.65 181.488 156.253 180.182 154.038L174.075 157.744C172.481 155.27 170.715 152.988 168.776 150.898L173.905 145.965C172.158 144.048 170.057 142.332 168.051 140.702L163.7 146.508C161.416 144.802 158.96 143.288 156.331 141.965L159.57 135.854ZM174.219 175.92C176.445 195.447 162.403 213.19 142.971 215.502C123.444 217.729 105.701 203.686 103.389 184.255C101.163 164.728 115.205 146.985 134.636 144.672C154.25 142.35 171.992 156.392 174.219 175.92Z" fill="#7A7A7A"/>
</g>
<path d="M-38.4618 132.528C-35.6346 157.161 -13.2914 174.686 11.1642 171.7C35.7969 168.873 53.3224 146.53 50.336 122.074C47.5088 97.4413 25.1657 79.9157 0.710048 82.9021C-23.7456 85.8885 -41.2712 108.232 -38.4618 132.528ZM1.18932 85.5741C24.3179 82.9954 45.4216 99.4068 48.0003 122.535C50.5789 145.664 33.9905 166.609 11.039 169.346C-12.0896 171.925 -33.1933 155.514 -35.7719 132.385C-38.6868 109.274 -21.9393 88.1527 1.18932 85.5741Z" fill="#7A7A7A"/>
<path d="M-31.9142 132.011C-29.6199 152.963 -10.4459 167.96 10.5061 165.666C31.4581 163.371 46.4548 144.197 44.1605 123.245C41.8662 102.293 22.6921 87.2966 1.74012 89.591C-19.2119 91.8853 -34.3856 110.9 -31.9142 132.011ZM1.86529 91.9446C21.4724 89.7218 39.2478 103.781 41.4706 123.388C43.6934 142.995 29.6339 160.771 10.0269 162.994C-9.58019 165.216 -27.3556 151.157 -29.5784 131.55C-31.6242 112.102 -17.5647 94.3266 1.86529 91.9446Z" fill="#7A7A7A"/>
<path d="M-18.8548 130.305C-17.1131 144.037 -4.79061 153.834 8.9592 152.429C22.6911 150.687 32.4885 138.365 31.083 124.615C29.3412 110.883 17.0188 101.086 3.26899 102.491C-10.64 104.074 -20.5966 116.573 -18.8548 130.305ZM3.57119 105.004C15.9761 103.67 27.2362 112.512 28.5702 124.917C29.9042 137.322 21.0618 148.582 8.65697 149.916C-3.7479 151.25 -15.008 142.408 -16.342 130.003C-17.8352 117.775 -8.99286 106.515 3.57119 105.004Z" fill="#7A7A7A"/>
<path d="M-9.97133 129.327C-8.99317 138.21 -0.902196 144.524 7.98117 143.546C16.8645 142.568 23.1779 134.477 22.1998 125.593C21.2216 116.71 13.1307 110.396 4.24731 111.375C-4.63606 112.353 -11.1266 120.285 -9.97133 129.327Z" fill="#7A7A7A"/>
<path d="M44.2598 45.8558C39.7636 43.7346 35.2853 41.9497 30.6657 40.678L26.9562 53.3511C21.8233 51.9381 16.5491 51.0384 11.2928 50.475L12.2767 37.2725C7.37446 37.0274 2.64932 36.9415 -2.21714 37.3689L-1.0065 50.6233C-1.67896 50.659 -2.35144 50.6948 -2.84685 50.8897C-7.53624 51.4763 -12.2077 52.3991 -16.6843 53.8173L-20.5669 41.0421C-25.2026 42.6374 -29.8384 44.2326 -34.1021 46.4825L-28.0787 58.3008C-32.8379 60.7456 -37.4022 63.6857 -41.4531 66.7672L-49.7586 56.419C-53.4733 59.4826 -57.1701 62.8824 -60.3537 66.4236L-50.4385 75.3375C-53.9404 79.2327 -57.2473 83.6234 -60.041 88.1553L-71.5301 81.3482C-74.0054 85.5261 -76.1265 90.0223 -77.9115 94.5006L-65.521 99.2366C-67.4473 104.228 -68.8602 109.361 -69.7599 114.635L-82.8569 112.466C-83.6153 117.227 -84.1966 122.147 -84.1055 127.031L-70.9566 127.006C-70.9727 129.873 -70.8118 132.899 -70.4739 136.084C-70.3487 138.438 -69.8873 140.774 -69.2667 142.933L-82.2725 145.647C-81.3498 150.319 -79.9137 155.132 -78.1593 159.59L-65.9332 154.894C-63.9838 159.848 -61.539 164.607 -58.7759 169.012L-69.8502 176.345C-67.105 180.414 -64.2006 184.305 -60.9778 187.843L-51.1607 179.06C-47.5839 182.916 -43.5115 186.577 -39.2979 189.725L-46.9903 200.418C-43.1308 203.247 -38.953 205.723 -34.616 208.021L-28.6763 196.072C-24.003 198.353 -19.0114 200.279 -13.8785 201.692L-17.0747 214.506C-12.4551 215.778 -7.51715 216.695 -2.77412 217.118L-1.45404 203.897C3.80227 204.461 9.02283 204.352 14.3847 203.729L15.7544 216.807L16.0907 216.789C20.9571 216.361 25.7878 215.262 30.4414 214.003L26.8951 201.21C32.0441 199.756 36.9982 197.806 41.5803 195.202L47.7629 206.844C52.0267 204.594 56.2725 202.008 59.9872 198.944L52.0001 188.242C56.2102 184.983 60.0662 181.406 63.7272 177.334L73.8016 186.071C76.9851 182.53 79.9737 178.493 82.449 174.315L71.1191 167.331C73.9128 162.799 76.1932 158.126 77.9424 152.975L90.492 157.534C92.0999 152.897 93.3716 148.277 94.2892 143.339L81.3514 140.992C82.4281 135.877 82.8145 130.462 82.5285 125.082L95.6594 124.721C95.5164 122.031 95.5325 119.164 95.0532 116.492C94.7689 114.316 94.5025 112.475 94.2181 110.299L81.1944 112.677C80.2359 107.333 78.6227 102.361 76.6734 97.4073L88.8816 92.3747C87.1271 87.916 84.7002 83.4931 82.2912 79.4064L71.022 86.2436C68.0818 81.6793 64.8232 77.4692 61.2463 73.6132L70.7093 64.5118C67.4865 60.9742 63.6091 57.8085 59.9088 54.802L51.8802 65.5131C47.6666 62.3653 43.1347 59.5716 38.2844 57.1321L44.2598 45.8558ZM71.288 119.779C75.3956 155.808 49.4873 188.544 13.6355 192.811C-22.3934 196.918 -55.1292 171.01 -59.396 135.158C-63.5036 99.1293 -37.5953 66.3935 -1.74353 62.1267C34.4445 57.8421 67.1804 83.7503 71.288 119.779Z" fill="#7A7A7A"/>
</svg>
