<svg width="51" height="52" viewBox="0 0 51 52" fill="none" xmlns="http://www.w3.org/2000/svg">
<g clip-path="url(#clip0)">
<path d="M48.1198 7.39678L45.9405 5.45982L48.1198 3.52325C48.4587 3.22163 48.5747 2.75152 48.4155 2.32501C48.2556 1.89811 47.8607 1.62241 47.4089 1.62241H38.3904V1.23125C38.3904 0.814558 38.0558 0.476807 37.643 0.476807C37.2301 0.476807 36.8955 0.814558 36.8955 1.23125V11.4062L30.7567 14.7708C30.7229 14.4982 30.6419 14.2304 30.5139 13.9782L29.6489 12.2738C29.0552 11.1034 27.6287 10.6396 26.47 11.2385L25.8011 11.5841C25.2393 11.8747 24.8233 12.368 24.6296 12.9744C24.4358 13.5804 24.4876 14.2264 24.7755 14.7931L25.6404 16.498C25.8424 16.8958 26.1408 17.2108 26.4918 17.4315C26.0327 18.0556 25.8148 18.823 25.5906 19.6202L25.4296 20.196C25.3171 20.597 25.5482 21.0141 25.9455 21.1272C26.0132 21.1468 26.0817 21.1558 26.149 21.1558C26.4751 21.1558 26.7747 20.939 26.8681 20.6064L27.0291 20.0318C27.3568 18.8658 27.5579 18.2414 28.1984 17.8902L29.3466 17.2607L29.4882 17.1876C29.5353 17.1633 29.5793 17.1358 29.624 17.1087L37.8076 12.6233C37.7558 13.6558 37.2052 14.6313 36.2986 15.1871L30.9769 18.4507C30.9707 18.4542 30.9645 18.4578 30.9586 18.4617L29.3023 19.4773C28.9497 19.6937 28.8373 20.1579 29.0517 20.5141C29.2536 20.8499 29.6738 20.9693 30.0166 20.8008L28.7598 24.6355L27.8412 25.0156L25.3432 26.0489L26.063 23.4804C26.1751 23.0794 25.9443 22.6624 25.5471 22.5489C25.1494 22.435 24.7366 22.6686 24.6241 23.0696L23.4868 27.1293C23.472 27.1816 23.4623 27.2389 23.4599 27.2935L23.1623 32.8122C23.1533 33.0227 23.1977 33.4205 23.1012 33.6259L19.7954 40.6457H17.3931C15.9858 40.6457 14.841 41.8011 14.841 43.2212V45.3989C14.5189 45.2501 14.1613 45.1668 13.7842 45.1668H7.68356C6.27658 45.1668 5.13185 46.3218 5.13185 47.7424V50.4444H3.33733C2.9245 50.4444 2.58987 50.7821 2.58987 51.1988C2.58987 51.6155 2.9245 51.9533 3.33733 51.9533H47.4082C47.821 51.9533 48.1556 51.6155 48.1556 51.1988C48.1556 50.7821 47.821 50.4444 47.4082 50.4444H45.4642V30.9981C45.4642 29.578 44.3195 28.4226 42.9125 28.4226H38.3904V15.2609C39.2192 14.1271 39.5262 12.641 39.1414 11.2287C39.0811 11.0068 38.9235 10.8246 38.7134 10.7346C38.6103 10.6903 38.4998 10.6706 38.3904 10.6749V9.29762H47.4086C47.8607 9.29762 48.2556 9.02192 48.4152 8.59541C48.5747 8.1689 48.4587 7.6984 48.1198 7.39678ZM26.0525 13.4378C26.1237 13.2151 26.2762 13.0337 26.4825 12.9273L27.1513 12.5817C27.2774 12.5165 27.412 12.4854 27.5451 12.4854C27.8603 12.4854 28.1649 12.6594 28.3182 12.9614L29.1836 14.6663C29.3855 15.0645 29.2548 15.5472 28.8956 15.7911L28.6521 15.9242L28.1381 16.1901C27.7128 16.41 27.1891 16.2396 26.9712 15.8099L26.1058 14.1055C26.0004 13.8973 25.9813 13.6601 26.0525 13.4378ZM24.5506 40.8778C24.2965 40.7607 24.0202 40.6842 23.73 40.6571L24.5506 39.557V40.8778ZM28.0996 34.7986C28.4591 34.3639 28.5583 33.8561 28.6385 33.4468C28.6587 33.3494 29.0275 31.3159 29.0275 31.3159C29.0275 31.3159 29.3766 31.5354 29.4131 31.5511C29.4384 31.5625 29.4563 31.5876 29.4591 31.6171L29.8657 35.7891H27.3607L28.0996 34.7986ZM32.5197 30.6345L31.8886 35.7856H31.3676L30.947 31.4694C30.8933 30.9165 30.5579 30.4338 30.0664 30.1938L29.3147 29.7127L29.8155 26.9114C29.8155 26.9114 31.9252 29.441 31.9742 29.5054C32.4108 30.0784 32.5602 30.3077 32.5197 30.6345ZM24.4459 34.2857C24.5969 33.827 24.6669 33.3601 24.6553 32.8852L24.9268 27.852L28.384 26.422L27.7556 29.9354C27.7536 29.9448 27.7517 29.9547 27.7505 29.9641L27.2307 32.8691C27.163 33.17 27.1038 33.6263 26.9179 33.8741L21.867 40.6457H21.4506L24.4459 34.2857ZM6.62677 47.742C6.62677 47.1541 7.10069 46.6757 7.68356 46.6757H13.7842C14.3671 46.6757 14.8414 47.1541 14.8414 47.742V50.4444H6.62677V47.742ZM16.3359 47.742V43.2212C16.3359 42.6329 16.8103 42.1545 17.3931 42.1545H23.4938C24.0767 42.1545 24.5506 42.6329 24.5506 43.2212V50.4444H16.3363V47.742H16.3359ZM43.9693 30.9981V50.4444H35.7551V45.9209C35.7551 45.5042 35.4204 45.1664 35.0076 45.1664C34.5944 45.1664 34.2598 45.5042 34.2598 45.9209V50.4444H26.0455V38.3643C26.0455 37.7763 26.5194 37.298 27.1023 37.298H33.203C33.7858 37.298 34.2598 37.7763 34.2598 38.3643V42.1463C34.2598 42.563 34.5944 42.9007 35.0072 42.9007C35.4204 42.9007 35.7547 42.563 35.7547 42.1463V30.9981C35.7547 30.4098 36.229 29.9315 36.8119 29.9315H37.6352C37.6375 29.9315 37.6402 29.9319 37.643 29.9319C37.6453 29.9319 37.648 29.9315 37.6504 29.9315H42.9121C43.495 29.9315 43.9693 30.4102 43.9693 30.9981ZM36.8119 28.4226C35.4049 28.4226 34.2601 29.578 34.2601 30.9981V36.0212C33.9924 35.8979 33.7006 35.8197 33.3936 35.797L34.0033 30.8202C34.1232 29.8502 33.6329 29.2073 33.159 28.5852C33.1088 28.5192 30.2034 25.0372 30.2034 25.0372L31.9859 19.5979L36.8955 16.5872V28.4226H36.8119ZM38.3904 7.78834V3.13169H46.2981L44.595 4.64529C44.3631 4.85147 44.23 5.14838 44.23 5.46021C44.23 5.77204 44.3631 6.06895 44.595 6.27513L46.2981 7.78873H38.3904V7.78834Z" fill="#EB856B"/>
</g>
<defs>
<clipPath id="clip0">
<rect width="51" height="51.4766" fill="white" transform="translate(0 0.476807)"/>
</clipPath>
</defs>
</svg>
