<svg width="51" height="51" viewBox="0 0 51 51" fill="none" xmlns="http://www.w3.org/2000/svg">
<g clip-path="url(#clip0)">
<path d="M38.8126 0H11.8126C10.4171 0 9.28138 1.1357 9.28138 2.53125C9.28138 3.9268 10.4171 5.0625 11.8126 5.0625H38.8127C40.2082 5.0625 41.3439 3.9268 41.3439 2.53125C41.3439 1.1357 40.2081 0 38.8126 0ZM38.8126 3.37497H11.8126C11.3477 3.37497 10.9689 2.99696 10.9689 2.53125C10.9689 2.06554 11.3477 1.68753 11.8126 1.68753H38.8127C39.2776 1.68753 39.6564 2.06554 39.6564 2.53125C39.6564 2.99696 39.2775 3.37497 38.8126 3.37497Z" fill="#EB856B"/>
<path d="M38.8126 45.5625H11.8126C10.4171 45.5625 9.28138 46.6982 9.28138 48.0938C9.28138 49.4893 10.4171 50.625 11.8126 50.625H38.8127C40.2082 50.625 41.3439 49.4893 41.3439 48.0938C41.3439 46.6982 40.2081 45.5625 38.8126 45.5625ZM38.8126 48.9375H11.8126C11.3477 48.9375 10.9689 48.5595 10.9689 48.0938C10.9689 47.628 11.3477 47.25 11.8126 47.25H38.8127C39.2776 47.25 39.6564 47.628 39.6564 48.0938C39.6564 48.5595 39.2775 48.9375 38.8126 48.9375Z" fill="#EB856B"/>
<path d="M31.3251 22.1804C35.6096 17.8959 37.9688 12.1997 37.9688 6.14158V4.21872C37.9688 3.75212 37.5907 3.375 37.125 3.375H13.5C13.0343 3.375 12.6562 3.75212 12.6562 4.21872V6.14158C12.6562 12.2006 15.0154 17.8959 19.2991 22.1804L20.1471 23.0284C20.7486 23.6299 21.0937 24.4619 21.0937 25.3124C21.0937 26.163 20.7486 26.9949 20.1479 27.5965L19.2999 28.4445C15.0154 32.729 12.6562 38.4243 12.6562 44.4833V46.4061C12.6562 46.8727 13.0343 47.2499 13.5 47.2499H37.1249C37.5906 47.2499 37.9687 46.8727 37.9687 46.4061V44.4833C37.9687 38.4252 35.6095 32.729 31.325 28.4445L30.477 27.5965C29.867 26.9864 29.5312 26.1756 29.5312 25.3124C29.5312 24.4492 29.867 23.6384 30.477 23.0284L31.3251 22.1804ZM29.284 21.8353C28.355 22.7635 27.8438 23.9979 27.8438 25.3124C27.8438 26.627 28.355 27.8614 29.284 28.7895L30.132 29.6375C34.0976 33.6032 36.2812 38.8757 36.2812 44.4833V45.5624H14.3438V44.4833C14.3438 38.8749 16.5274 33.6032 20.4921 29.6375L21.3401 28.7895C22.27 27.8614 22.7812 26.6261 22.7812 25.3124C22.7812 23.9988 22.27 22.7635 21.341 21.8353L20.493 20.9874C16.5274 17.0217 14.3438 11.7491 14.3438 6.14158V5.06243H36.2813V6.14158C36.2813 11.7492 34.0977 17.0217 30.1321 20.9874L29.284 21.8353Z" fill="#EB856B"/>
<path d="M32.443 14.2147C32.3578 14.0004 32.0676 13.5 31.2187 13.5C26.8346 13.5 24.8813 12.5609 24.1067 12.0007C23.1406 11.3012 21.9012 11.1181 20.7882 11.5121C19.726 11.8875 18.948 12.7228 18.6552 13.8029C18.5793 14.0839 18.5658 14.2661 18.5658 14.2661C18.5531 14.4323 18.5894 14.6121 18.6713 14.758C19.4619 16.1595 20.3739 17.6377 21.6868 18.9506L22.5339 19.7986C23.7818 21.0448 24.4686 22.7036 24.4686 24.4687C24.4686 24.9353 24.8466 25.3125 25.3123 25.3125C25.778 25.3125 26.156 24.9353 26.156 24.4687C26.156 22.7045 26.8428 21.0456 28.0899 19.7986L28.9387 18.9497C29.1472 18.7422 29.4188 18.4857 29.7175 18.2056C31.8988 16.1545 32.816 15.1563 32.443 14.2147ZM28.5601 16.9763C28.248 17.2708 27.9627 17.5391 27.7451 17.7568L26.8962 18.6056C26.2407 19.2604 25.7091 20.0062 25.3116 20.8145C24.9142 20.0062 24.3827 19.2604 23.727 18.6056L22.8799 17.7577C21.8437 16.7207 21.0852 15.5791 20.2963 14.2029C20.5047 13.4984 21.0447 13.2115 21.351 13.1026C21.9399 12.8942 22.6006 12.993 23.117 13.3676C24.1919 14.1456 26.3114 15.0627 30.3716 15.1758C29.8502 15.763 29.0318 16.5334 28.5601 16.9763Z" fill="#EB856B"/>
<path d="M34.5355 42.9654C34.3237 40.23 33.2268 39.0943 31.9578 37.778C31.7866 37.5999 31.6077 37.4152 31.4246 37.2195C30.3648 36.0871 28.868 35.4375 27.3164 35.4375H23.3077C21.7569 35.4375 20.2592 36.0872 19.1994 37.2195C19.0163 37.4152 18.8384 37.5991 18.667 37.7772C17.3971 39.0935 16.3003 40.23 16.0894 42.9663C16.0708 43.2008 16.1518 43.432 16.3113 43.605C16.4715 43.7772 16.6952 43.8751 16.9305 43.8751H33.6941C33.9287 43.8751 34.1531 43.7772 34.3134 43.6042C34.473 43.4312 34.5532 43.1991 34.5355 42.9654ZM17.8916 42.1875C18.1777 40.7144 18.8594 40.009 19.882 38.9492C20.0592 38.7653 20.2431 38.5738 20.4321 38.3721C21.1738 37.579 22.2217 37.125 23.3077 37.125H27.3164C28.4031 37.125 29.451 37.5798 30.1927 38.3713C30.3825 38.5755 30.5664 38.7653 30.7445 38.9501C31.7663 40.0099 32.4472 40.7153 32.7341 42.1875H17.8916Z" fill="#EB856B"/>
<path d="M25.2873 27C24.8216 27 24.4436 27.3771 24.4436 27.8437V28.6874C24.4436 29.154 24.8216 29.5312 25.2873 29.5312C25.753 29.5312 26.131 29.154 26.131 28.6874V27.8437C26.131 27.3771 25.753 27 25.2873 27Z" fill="#EB856B"/>
<path d="M25.2873 31.2188C24.8216 31.2188 24.4436 31.5959 24.4436 32.0625V32.9062C24.4436 33.3728 24.8216 33.7499 25.2873 33.7499C25.753 33.7499 26.131 33.3728 26.131 32.9062V32.0625C26.131 31.596 25.753 31.2188 25.2873 31.2188Z" fill="#EB856B"/>
</g>
<defs>
<clipPath id="clip0">
<rect width="50.625" height="50.625" fill="white"/>
</clipPath>
</defs>
</svg>
