<svg width="51" height="51" viewBox="0 0 51 51" fill="none" xmlns="http://www.w3.org/2000/svg">
<g clip-path="url(#clip0)">
<path d="M41.1325 13.9364H50.6247V15.5184H41.1325V13.9364Z" fill="#EB856B"/>
<path d="M39.5356 23.6489L39.5506 10.2839L19.7753 0.395508L1.08974e-05 10.2832V23.3808C-0.00771383 31.5829 4.0918 39.2447 10.9201 43.7888L19.7753 49.6901L26.597 45.1456C30.2844 49.8701 36.6554 51.5811 42.2137 49.3398C47.7721 47.0984 51.174 41.4467 50.5526 35.4855C49.9311 29.5243 45.4369 24.696 39.5356 23.6489ZM19.7753 47.7914L11.798 42.4744C5.40925 38.2227 1.57392 31.055 1.58204 23.3808V11.2611L19.7753 2.16447L37.9686 11.2611L37.9535 23.4677C37.6955 23.4527 37.4395 23.4283 37.1776 23.4283C36.903 23.4283 36.6349 23.4527 36.3646 23.4693L36.3866 12.2379L19.7753 3.9315L3.16406 12.2371V23.3808C3.15827 30.525 6.72902 37.1977 12.6759 41.1566L19.7753 45.8868L24.9501 42.4389C25.1714 42.9213 25.4213 43.3906 25.6983 43.8436L19.7753 47.7914ZM24.3584 40.9326L19.7753 43.9858L13.5542 39.8403C13.2471 39.6352 12.9497 39.4201 12.6562 39.1995V32.1295H11.0742V37.872C10.2059 37.0671 9.41182 36.1853 8.70115 35.2383V30.6417C8.70153 29.5537 9.44118 28.6054 10.496 28.3405L15.8604 26.9956C16.0327 28.7109 17.2968 30.1164 18.9843 30.4683V33.7115H20.5663V30.4683C22.2538 30.1164 23.5176 28.7109 23.6894 26.9956L27.2108 27.8801C24.0004 31.4107 22.9135 36.3839 24.3584 40.9318V40.9326ZM23.7304 16.3092L22.5439 14.7272H21.1708L21.0039 14.8102C20.0727 15.2745 19.0469 15.5167 18.0067 15.5182H14.3039C14.4642 14.5264 15.0957 13.6739 15.9983 13.2321C17.748 12.4538 19.7193 12.3294 21.5528 12.8825L21.7347 13.1452H22.9394C23.3762 13.1452 23.7304 13.4994 23.7304 13.9362V16.3092ZM18.0067 17.1002C19.2276 17.0987 20.4335 16.8287 21.5385 16.3092H21.7528L23.7304 18.9457V22.2418L21.0939 24.2193H18.4567L15.8203 22.2418V17.1002H18.0067ZM17.4023 25.4059L17.9299 25.8014H21.6208L22.1484 25.4059V26.5924C22.1484 27.9029 21.0858 28.9654 19.7753 28.9654C18.4648 28.9654 17.4023 27.9029 17.4023 26.5924V25.4059ZM28.5398 26.5835L23.7304 25.375V24.2193L25.3124 23.0328V13.9362C25.3124 12.6257 24.2499 11.5631 22.9394 11.5631H22.4133C21.2681 10.8679 18.4189 10.7269 16.4015 11.3584C14.1386 11.9139 12.5755 13.9802 12.6562 16.3092V17.1002H14.2382V23.0328L15.8203 24.2193V25.3711L10.1109 26.8067C8.35122 27.2459 7.11719 28.8279 7.11912 30.6417V32.7772C5.56027 29.8908 4.74454 26.6615 4.74609 23.3808V13.2147L19.7753 5.70008L34.8046 13.2147L34.7833 23.6562C32.4821 24.0703 30.3296 25.0799 28.5398 26.5835ZM37.1776 48.7407C30.6247 48.7407 25.3124 43.4284 25.3124 36.8755C25.3124 30.3227 30.6247 25.0104 37.1776 25.0104C43.7305 25.0104 49.0428 30.3227 49.0428 36.8755C49.0354 43.4253 43.7274 48.7334 37.1776 48.7407Z" fill="#EB856B"/>
<path d="M40.5395 29.0334L37.1777 32.3953L33.8158 29.0334L29.3355 33.5138L32.6973 36.8756L29.3355 40.2374L33.8158 44.7178L37.1777 41.356L40.5395 44.7178L45.0198 40.2374L41.658 36.8756L45.0198 33.5138L40.5395 29.0334ZM42.7827 40.2374L40.5395 42.4807L37.1777 39.1189L33.8158 42.4807L31.5726 40.2374L34.9344 36.8756L31.5726 33.5138L33.8158 31.2705L37.1777 34.6324L40.5395 31.2705L42.7827 33.5138L39.4209 36.8756L42.7827 40.2374Z" fill="#EB856B"/>
<path d="M41.1325 17.1005H47.4607V18.6825H41.1325V17.1005Z" fill="#EB856B"/>
<path d="M41.1325 20.2645H44.2966V21.8466H41.1325V20.2645Z" fill="#EB856B"/>
</g>
<defs>
<clipPath id="clip0">
<rect width="50.625" height="50.625" fill="white"/>
</clipPath>
</defs>
</svg>
