<svg width="51" height="51" viewBox="0 0 51 51" fill="none" xmlns="http://www.w3.org/2000/svg">
<g clip-path="url(#clip0)">
<path d="M20.8378 21.8992C21.099 21.9013 21.3438 22.0051 21.5271 22.1914C21.7103 22.3777 21.81 22.6242 21.8078 22.8855L23.2873 22.8978C23.2927 22.2413 23.0423 21.622 22.5819 21.154C22.2989 20.8663 21.9573 20.6573 21.5837 20.5373V18.9402H20.1042V20.5283C19.7327 20.6426 19.3914 20.8448 19.1064 21.1252C18.6384 21.5855 18.3776 22.2006 18.3722 22.8571C18.3668 23.5135 18.6173 24.1328 19.0778 24.6008C19.5381 25.0688 20.1532 25.3296 20.8096 25.3349C21.0708 25.3371 21.3156 25.4409 21.4989 25.6272C21.6821 25.8135 21.7818 26.06 21.7796 26.3214C21.7775 26.5825 21.6738 26.8273 21.4875 27.0105C21.3032 27.1917 21.06 27.2912 20.8019 27.2912C20.799 27.2912 20.7961 27.2912 20.7934 27.2912C20.2541 27.2868 19.8189 26.8443 19.8233 26.305L18.3438 26.2929C18.3384 26.9493 18.589 27.5686 19.0494 28.0366C19.3465 28.3387 19.7085 28.5539 20.1042 28.6703V30.2502H21.5837V28.6436C21.9332 28.5266 22.2543 28.3313 22.5248 28.0653C22.9929 27.605 23.2537 26.9899 23.259 26.3335C23.2644 25.677 23.014 25.0577 22.5536 24.5897C22.0933 24.1217 21.4783 23.8609 20.8217 23.8554C20.5605 23.8533 20.3156 23.7495 20.1324 23.5632C19.9493 23.3769 19.8495 23.1304 19.8516 22.8691C19.8537 22.6078 19.9575 22.363 20.1438 22.1798C20.33 21.9968 20.5765 21.8998 20.8378 21.8992Z" fill="#EB856B"/>
<path d="M27.9413 12.2661H33.9677V13.7456H27.9413V12.2661Z" fill="#EB856B"/>
<path d="M8.56842 35.4448H33.9676V36.9243H8.56842V35.4448Z" fill="#EB856B"/>
<path d="M1.91073 13.7456H26.4616V12.2661H6.34921V9.30763L33.9672 9.32637L33.9681 7.84687L4.86972 7.82715V12.2661H0.431244V36.9243H7.08885V35.4448H1.91073V13.7456Z" fill="#EB856B"/>
<path d="M33.9676 15.2251H6.78257L3.3902 18.6174V30.573L6.78257 33.9652H33.9676V32.4857H25.8826C26.8111 31.887 27.6395 31.118 28.327 30.1973L27.1417 29.3119C25.6353 31.3289 23.3295 32.4856 20.8155 32.4856C16.4647 32.4856 12.9249 28.9459 12.9249 24.595C12.9249 20.2441 16.4647 16.7044 20.8155 16.7044C25.1663 16.7044 28.7061 20.2441 28.7061 24.595C28.7061 25.8511 28.4197 27.0518 27.8547 28.1637L29.1737 28.8339C29.8451 27.5124 30.1856 26.0862 30.1856 24.595C30.1856 21.2859 28.4614 18.372 25.8641 16.7044H33.9676V15.2251H33.9676ZM11.4454 24.5952C11.4454 27.9043 13.1696 30.8183 15.7668 32.4858H7.39538L4.86979 29.9603V19.2302L7.39538 16.7046H15.7668C13.1696 18.3722 11.4454 21.2862 11.4454 24.5952Z" fill="#EB856B"/>
<path d="M47.1745 39.8834V36.9244H45.695V41.3629H47.1815L41.6714 49.0205H40.95L35.4401 41.3629H36.9266V1.47949H45.695V35.4448H47.1745V0H35.4471V39.8834H32.5529L40.1919 50.5H42.4295L50.0688 39.8834H47.1745Z" fill="#EB856B"/>
<path d="M24.9026 23.8555H26.3821V25.335H24.9026V23.8555Z" fill="#EB856B"/>
<path d="M15.249 23.8555H16.7285V25.335H15.249V23.8555Z" fill="#EB856B"/>
<path d="M42.736 2.95898H44.2155V7.39746H42.736V2.95898Z" fill="#EB856B"/>
<path d="M42.736 11.8359H44.2155V13.3154H42.736V11.8359Z" fill="#EB856B"/>
<path d="M42.736 8.87695H44.2155V10.3564H42.736V8.87695Z" fill="#EB856B"/>
<path d="M42.736 39.8833H44.2155V41.3628H42.736V39.8833Z" fill="#EB856B"/>
</g>
<defs>
<clipPath id="clip0">
<rect width="50.5" height="50.5" fill="white"/>
</clipPath>
</defs>
</svg>
