<svg width="51" height="52" viewBox="0 0 51 52" fill="none" xmlns="http://www.w3.org/2000/svg">
<path d="M46.4901 11.2809C46.4553 11.1597 46.3889 11.0502 46.2977 10.9639C46.2066 10.8775 46.0941 10.8176 45.9721 10.7902L41.6989 9.81577L40.7335 5.50255C40.706 5.37972 40.6464 5.26658 40.5609 5.17493C40.4753 5.08328 40.367 5.01649 40.2472 4.98152C40.1273 4.94656 40.0004 4.9447 39.8796 4.97615C39.7588 5.0076 39.6486 5.0712 39.5605 5.16031L34.6457 10.1218C30.4868 7.58875 25.5532 6.67977 20.7758 7.56644C15.9985 8.45311 11.7079 11.0741 8.71378 14.9348C5.71965 18.7954 4.22906 23.6287 4.52331 28.5226C4.81757 33.4165 6.87632 38.0324 10.311 41.4992C13.7458 44.9661 18.3189 47.0441 23.1674 47.3411C28.0159 47.6381 32.8044 46.1336 36.6293 43.1114C40.4542 40.0893 43.0509 35.7586 43.9293 30.9365C44.8078 26.1145 43.9072 21.1347 41.3977 16.9369L46.3144 11.9742C46.4024 11.885 46.4651 11.7737 46.496 11.6517C46.5269 11.5298 46.5249 11.4017 46.4901 11.2809ZM42.8619 27.3091C42.8613 31.4179 41.5175 35.4116 39.0387 38.6708C36.5599 41.93 33.0849 44.2725 29.1526 45.3348C25.2203 46.3971 21.0506 46.12 17.2903 44.5463C13.53 42.9726 10.3893 40.1904 8.35545 36.6312C6.32157 33.0721 5.50819 28.9349 6.04149 24.8615C6.57479 20.7882 8.42496 17.0063 11.305 14.1026C14.185 11.1988 17.9339 9.33559 21.9701 8.80184C26.0063 8.26809 30.1042 9.09369 33.6281 11.1506L31.371 13.4288C31.3516 13.4511 31.3336 13.4746 31.3172 13.4992C28.058 11.8244 24.3139 11.3779 20.7579 12.2399C17.2018 13.102 14.0669 15.216 11.9167 18.202C9.76658 21.188 8.74212 24.8503 9.0275 28.5304C9.31288 32.2106 10.8894 35.6673 13.4737 38.2793C16.0579 40.8913 19.4805 42.4873 23.1262 42.7803C26.7718 43.0734 30.4015 42.0443 33.3628 39.8781C36.324 37.7119 38.4227 34.5506 39.2816 30.9624C40.1405 27.3742 39.7032 23.5945 38.0484 20.3026C38.074 20.2843 38.0984 20.2643 38.1213 20.2427L40.3784 17.9644C42.0084 20.8037 42.8652 24.0276 42.8619 27.3091ZM36.3937 20.1852C38.106 23.1357 38.6945 26.615 38.0489 29.9718C37.4033 33.3286 35.5678 36.333 32.8861 38.4225C30.2044 40.5121 26.8602 41.5436 23.4794 41.3241C20.0986 41.1046 16.9129 39.6491 14.5185 37.23C12.1241 34.8109 10.6851 31.594 10.4709 28.1813C10.2567 24.7687 11.2819 21.3942 13.3547 18.6894C15.4274 15.9846 18.4057 14.1349 21.732 13.4865C25.0584 12.8381 28.5048 13.4353 31.4264 15.1666L32.1607 18.4498L31.4562 19.1609C29.3555 17.2989 26.6197 16.3345 23.8273 16.4716C21.0349 16.6087 18.4048 17.8365 16.493 19.8954C14.5812 21.9544 13.5376 24.683 13.5829 27.5045C13.6282 30.326 14.7588 33.0191 16.7357 35.0145C18.7125 37.0098 21.3807 38.151 24.176 38.1967C26.9714 38.2424 29.6748 37.1891 31.7146 35.2594C33.7545 33.3298 34.9709 30.675 35.1067 27.8565C35.2425 25.038 34.2871 22.2766 32.4424 20.1562L33.1468 19.4452L36.3937 20.1852ZM27.3679 27.3091C27.3703 27.9819 27.1514 28.6365 26.7455 29.1701C26.3396 29.7038 25.7697 30.0863 25.1251 30.2577C24.4806 30.4291 23.7979 30.3796 23.1841 30.1171C22.5704 29.8545 22.0605 29.3938 21.7342 28.8071C21.408 28.2204 21.2839 27.541 21.3816 26.8755C21.4792 26.2099 21.7929 25.5959 22.2736 25.1298C22.7543 24.6637 23.3747 24.3719 24.0374 24.3001C24.7002 24.2284 25.3678 24.3807 25.9355 24.7333L23.8764 26.8116C23.8098 26.8766 23.7567 26.9542 23.7202 27.0401C23.6836 27.126 23.6644 27.2183 23.6636 27.3118C23.6628 27.4052 23.6805 27.4979 23.7156 27.5844C23.7507 27.6709 23.8024 27.7495 23.8679 27.8155C23.9334 27.8816 24.0113 27.9338 24.097 27.9692C24.1827 28.0046 24.2745 28.0224 24.3671 28.0215C24.4596 28.0207 24.5511 28.0013 24.6362 27.9644C24.7213 27.9275 24.7982 27.8738 24.8625 27.8066L26.9216 25.7282C27.2132 26.203 27.3677 26.7505 27.3679 27.3091ZM26.9392 23.7202C26.0408 23.0634 24.9303 22.7724 23.8288 22.9051C22.7274 23.0379 21.7159 23.5847 20.9961 24.4365C20.2762 25.2883 19.9007 26.3826 19.9445 27.5014C19.9883 28.6202 20.4481 29.6812 21.2323 30.4731C22.0165 31.2649 23.0675 31.7295 24.1759 31.7741C25.2843 31.8188 26.3686 31.4402 27.2128 30.714C28.0571 29.9877 28.5992 28.967 28.7311 27.8553C28.8631 26.7436 28.5752 25.6226 27.9249 24.7156L31.4542 21.1532C33.0356 23.0076 33.8433 25.4085 33.7074 27.8514C33.5716 30.2943 32.5028 32.5889 30.7258 34.253C28.9487 35.9172 26.6018 36.8212 24.1781 36.7751C21.7545 36.7291 19.4429 35.7365 17.7292 34.0061C16.0155 32.2756 15.0331 29.942 14.9884 27.4957C14.9438 25.0494 15.8404 22.6808 17.4898 20.8878C19.1392 19.0948 21.413 18.017 23.8333 17.8809C26.2536 17.7447 28.632 18.5609 30.4685 20.1578L26.9392 23.7202ZM40.0254 16.33L37.4085 18.971L37.016 18.8818L37.0009 18.8781L33.5086 18.0847L32.6284 14.1503L39.6537 7.05813L40.4374 10.5594C40.4665 10.6892 40.5314 10.808 40.6246 10.9021C40.7178 10.9962 40.8356 11.0617 40.9641 11.091L44.4329 11.8821L40.0254 16.33Z" fill="#EB856B"/>
</svg>
