<svg width="51" height="51" viewBox="0 0 51 51" fill="none" xmlns="http://www.w3.org/2000/svg">
<g clip-path="url(#clip0)">
<g clip-path="url(#clip1)">
<path d="M27.1527 27.2879C27.0602 27.2678 26.9653 27.2642 26.8716 27.2782C25.9325 27.1689 25.2241 26.3744 25.2225 25.4293C25.2225 24.9764 24.8553 24.6092 24.4024 24.6092C23.9495 24.6092 23.5822 24.9764 23.5822 25.4293C23.5846 27.0075 24.6403 28.3899 26.162 28.8076V29.6278C26.162 30.0807 26.5292 30.4479 26.9822 30.4479C27.4351 30.4479 27.8023 30.0807 27.8023 29.6278V28.8573C29.5587 28.4896 30.7525 26.8538 30.5679 25.0689C30.3829 23.284 28.8791 21.9277 27.0847 21.9273C26.0563 21.9273 25.2225 21.0935 25.2225 20.0651C25.2225 19.0368 26.0563 18.203 27.0847 18.203C28.1131 18.203 28.9468 19.0368 28.9468 20.0651C28.9468 20.5181 29.314 20.8853 29.767 20.8853C30.2199 20.8853 30.5871 20.5181 30.5871 20.0651C30.5847 18.408 29.4238 16.9788 27.8023 16.6368V15.8903C27.8023 15.4374 27.4351 15.0702 26.9822 15.0702C26.5292 15.0702 26.162 15.4374 26.162 15.8903V16.6869C24.4697 17.149 23.3804 18.7921 23.6135 20.5309C23.8465 22.2697 25.3303 23.5676 27.0847 23.5672C28.0994 23.5672 28.9272 24.3797 28.9456 25.3941C28.9644 26.4084 28.1667 27.251 27.1527 27.2879Z" fill="#EB856B"/>
<path d="M15.1918 22.8103C15.1918 29.3786 20.5163 34.7031 27.0847 34.7031C33.653 34.7031 38.9776 29.3786 38.9776 22.8103C38.9776 16.2419 33.653 10.9174 27.0847 10.9174C20.5195 10.9246 15.1994 16.2451 15.1918 22.8103ZM27.0847 12.5576C32.7472 12.5576 37.3373 17.1477 37.3373 22.8103C37.3373 28.4728 32.7472 33.0629 27.0847 33.0629C21.4221 33.0629 16.8321 28.4728 16.8321 22.8103C16.8385 17.1505 21.4249 12.5641 27.0847 12.5576Z" fill="#EB856B"/>
<path d="M43.0206 36.7251L36.596 39.7606C35.709 38.1107 34.0074 37.0607 32.1349 37.0078L26.2041 36.8448C25.265 36.818 24.3435 36.5801 23.5086 36.1488L22.9051 35.8361C19.8151 34.2254 16.1321 34.2294 13.0453 35.8465L13.083 34.4793C13.0954 34.0264 12.7386 33.6491 12.2856 33.6367L5.78215 33.4577C5.32923 33.4453 4.95239 33.8021 4.93998 34.255L4.54713 48.5267C4.53471 48.9796 4.89152 49.3568 5.34445 49.3692L11.8479 49.5482H11.8704C12.3149 49.5482 12.6785 49.1946 12.6905 48.7505L12.7093 48.0677L14.3989 47.1631C15.062 46.8063 15.8373 46.7214 16.5618 46.9264L26.651 49.7581C26.6686 49.7633 26.6862 49.7673 26.7042 49.7713C27.4335 49.9239 28.1767 50.0004 28.9216 50C30.4994 50.0008 32.0588 49.6608 33.4929 49.0024C33.5281 48.9864 33.5621 48.9676 33.5946 48.9463L48.223 39.4843C48.5874 39.2484 48.7052 38.7698 48.4917 38.3918C47.4057 36.4648 44.9969 35.7307 43.0206 36.7251ZM6.20944 47.7522L6.55704 35.12L11.4206 35.2538L11.073 47.8863L6.20944 47.7522ZM32.754 47.5375C30.9724 48.3417 28.9825 48.5635 27.0675 48.1723L17.0055 45.3478C15.873 45.0278 14.6608 45.1604 13.6248 45.7174L12.7614 46.18L12.9925 37.7811C15.7284 35.9614 19.2372 35.7744 22.151 37.2925L22.7545 37.6053C23.8093 38.1499 24.9726 38.4503 26.1592 38.4847L32.0904 38.6477C33.7564 38.6957 35.1712 39.8819 35.5092 41.5142L26.6746 41.2703C26.2217 41.2579 25.8449 41.6151 25.832 42.0676C25.8196 42.5205 26.1768 42.8978 26.6294 42.9102L36.379 43.1785H36.4018C36.8459 43.1781 37.2091 42.8245 37.2211 42.3808C37.2312 42.0244 37.2047 41.6676 37.1419 41.3168L43.7314 38.2032C43.7379 38.2004 43.7443 38.1972 43.7507 38.194C44.6853 37.721 45.8154 37.8792 46.5843 38.5908L32.754 47.5375Z" fill="#EB856B"/>
<path d="M27.9048 8.61152V0.820144C27.9048 0.367223 27.5376 0 27.0847 0C26.6317 0 26.2645 0.367223 26.2645 0.820144V8.61152C26.2645 9.06444 26.6317 9.43166 27.0847 9.43166C27.5376 9.43166 27.9048 9.06444 27.9048 8.61152Z" fill="#EB856B"/>
<path d="M34.0559 8.6115V4.92085C34.0559 4.46793 33.6887 4.10071 33.2358 4.10071C32.7828 4.10071 32.4156 4.46793 32.4156 4.92085V8.6115C32.4156 9.06442 32.7828 9.43165 33.2358 9.43165C33.6887 9.43165 34.0559 9.06442 34.0559 8.6115Z" fill="#EB856B"/>
<path d="M21.7538 8.6115V4.92085C21.7538 4.46793 21.3865 4.10071 20.9336 4.10071C20.4807 4.10071 20.1135 4.46793 20.1135 4.92085V8.6115C20.1135 9.06442 20.4807 9.43165 20.9336 9.43165C21.3865 9.43165 21.7538 9.06442 21.7538 8.6115Z" fill="#EB856B"/>
</g>
</g>
<defs>
<clipPath id="clip0">
<rect width="50.5" height="50.5" fill="white"/>
</clipPath>
<clipPath id="clip1">
<rect width="50" height="50" fill="white" transform="translate(1.5)"/>
</clipPath>
</defs>
</svg>
