<svg width="51" height="52" viewBox="0 0 51 52" fill="none" xmlns="http://www.w3.org/2000/svg">
<g clip-path="url(#clip0)">
<path d="M11.9531 41.4222C11.5132 41.4222 11.1562 41.0619 11.1562 40.6179H9.5625C9.5625 41.9483 10.6351 43.0309 11.9531 43.0309V44.6395H13.5469V43.0309H15.9375V40.6179C15.9375 39.2876 14.8649 38.205 13.5469 38.205H11.9531C11.5132 38.205 11.1562 37.8446 11.1562 37.4006V36.5963H13.5469C13.9868 36.5963 14.3438 36.9566 14.3438 37.4006H15.9375C15.9375 36.0703 14.8649 34.9877 13.5469 34.9877V33.379H11.9531V34.9877H9.5625V37.4006C9.5625 38.731 10.6351 39.8136 11.9531 39.8136H13.5469C13.9868 39.8136 14.3438 40.1739 14.3438 40.6179V41.4222H11.9531Z" fill="#EB856B"/>
<path d="M12.75 46.2482C8.79511 46.2482 5.57812 43.0012 5.57812 39.0093C5.57812 37.3412 6.15506 35.7116 7.20216 34.4231L5.96939 33.4032C4.68961 34.9789 3.98438 36.9704 3.98438 39.0093C3.98438 43.8875 7.91695 47.8569 12.75 47.8569C14.7701 47.8569 16.7431 47.145 18.3042 45.8533L17.2938 44.609C16.0172 45.6659 14.4027 46.2482 12.75 46.2482Z" fill="#EB856B"/>
<path d="M7.19578 32.1653L8.20622 33.4096C9.48281 32.3527 11.0973 31.7704 12.75 31.7704C16.7049 31.7704 19.9219 35.0174 19.9219 39.0093C19.9219 40.6774 19.3449 42.307 18.2978 43.5955L19.5306 44.6154C20.8104 43.0397 21.5156 41.0482 21.5156 39.0093C21.5156 34.1311 17.583 30.1617 12.75 30.1617C10.7299 30.1617 8.75686 30.8736 7.19578 32.1653Z" fill="#EB856B"/>
<path d="M48.6094 30.1617C49.4883 30.1617 50.2031 29.4403 50.2031 28.5531V25.3358C50.2031 24.4486 49.4883 23.7272 48.6094 23.7272H35.3924L43.5094 15.5344L46.8682 18.9238L49.6254 5.00659L35.8371 7.78955L39.1951 11.179L31.0781 19.3726L25.5 13.7423L23.5763 15.684H19.125C16.873 15.684 14.8625 16.7392 13.5469 18.3833V18.0969V14.0753H17.5312C21.4861 14.0753 24.7031 10.8275 24.7031 6.83643V6.0321H19.125C16.873 6.0321 14.8625 7.08737 13.5469 8.73141V8.44507C13.5469 4.45403 10.3299 1.20618 6.375 1.20618H0.796875V2.0105C0.796875 6.00154 4.01386 9.24939 7.96875 9.24939H11.9531V13.271V13.5573C10.6375 11.9133 8.62697 10.858 6.375 10.858H0.796875V11.6624C0.796875 15.6534 4.01386 18.9012 7.96875 18.9012H11.9531V22.9229V23.7272V26.9855C5.73352 27.4021 0.796875 32.6278 0.796875 39.0093C0.796875 45.6618 6.15905 51.0741 12.75 51.0741C19.341 51.0741 24.7031 45.6618 24.7031 39.0093C24.7031 34.7399 22.4886 30.991 19.1648 28.8459L25.5 22.4515L27.9504 24.9248C27.9153 25.0567 27.8906 25.1926 27.8906 25.3358V28.5531C27.8906 29.4403 28.6054 30.1617 29.4844 30.1617H30.2812V32.2417L29.058 33.4763C28.3058 34.2356 27.8906 35.2459 27.8906 36.3204V47.0525C27.8906 49.27 29.678 51.0741 31.875 51.0741H35.0625H44.625H46.2188C48.4157 51.0741 50.2031 49.27 50.2031 47.0525V36.3204C50.2031 35.2459 49.788 34.2356 49.0357 33.4763L47.8125 32.2417V30.1617H48.6094ZM19.125 17.2926H23.0528C22.6655 20.0176 20.337 22.1185 17.5312 22.1185H13.6035C13.9915 19.3935 16.3192 17.2926 19.125 17.2926ZM19.125 7.64075H23.0528C22.6655 10.3658 20.337 12.4667 17.5312 12.4667H13.6035C13.9915 9.74163 16.3192 7.64075 19.125 7.64075ZM7.96875 7.64075C5.16295 7.64075 2.83528 5.53986 2.4472 2.81482H6.375C9.1808 2.81482 11.5085 4.91571 11.8965 7.64075H7.96875ZM7.96875 17.2926C5.16295 17.2926 2.83528 15.1917 2.4472 12.4667H6.375C9.1808 12.4667 11.5085 14.5676 11.8965 17.2926H7.96875ZM15.6076 23.7272L13.5469 25.8071V23.7272H15.6076ZM23.1094 39.0093C23.1094 44.7747 18.462 49.4655 12.75 49.4655C7.038 49.4655 2.39062 44.7747 2.39062 39.0093C2.39062 33.2439 7.038 28.5531 12.75 28.5531C18.462 28.5531 23.1094 33.2439 23.1094 39.0093ZM17.7058 28.044C16.7113 27.5839 15.6442 27.2622 14.5262 27.0933L17.8787 23.7095C21.5555 23.5301 24.5079 20.5501 24.6856 16.839L25.5 16.0169L31.0781 21.6472L41.4487 11.1798L39.07 8.77806L47.5942 7.05761L45.8888 15.6614L43.5094 13.2597L33.1388 23.7272H29.4844C29.3425 23.7272 29.2079 23.7521 29.0772 23.7875L25.5 20.1769L17.7058 28.044ZM29.4844 25.3358H48.6094L48.611 28.5531H29.4844V25.3358ZM34.2656 39.0093V37.4006C34.2656 36.9566 34.6226 36.5963 35.0625 36.5963H35.8594V38.205H37.4531V36.5963H39.0469V38.205H40.6406V36.5963H42.2344V38.205H43.8281V36.5963H44.625C45.0649 36.5963 45.4219 36.9566 45.4219 37.4006V39.0093C45.4219 39.4533 45.0649 39.8136 44.625 39.8136H43.0312H35.0625C34.6226 39.8136 34.2656 39.4533 34.2656 39.0093ZM33.4688 41.4222H34.2656V43.0309H35.8594V41.4222H37.4531V43.0309H39.0469V41.4222H40.6406V43.0309H42.2344V41.4222H43.0312C43.4711 41.4222 43.8281 41.7826 43.8281 42.2266V43.8352C43.8281 44.2792 43.4711 44.6395 43.0312 44.6395H35.0625H33.4688C33.0289 44.6395 32.6719 44.2792 32.6719 43.8352V42.2266C32.6719 41.7826 33.0289 41.4222 33.4688 41.4222ZM35.0625 49.4655C34.6226 49.4655 34.2656 49.1051 34.2656 48.6611V47.0525C34.2656 46.6085 34.6226 46.2482 35.0625 46.2482H35.8594V47.8568H37.4531V46.2482H39.0469V47.8568H40.6406V46.2482H42.2344V47.8568H43.8281V46.2482H44.625C45.0649 46.2482 45.4219 46.6085 45.4219 47.0525V48.6611C45.4219 49.1051 45.0649 49.4655 44.625 49.4655H35.0625ZM47.9089 34.6137C48.3607 35.0697 48.6094 35.6754 48.6094 36.3204V47.0525C48.6094 48.1415 47.8866 49.0528 46.9033 49.352C46.9694 49.1317 47.0156 48.9032 47.0156 48.6611V47.0525C47.0156 45.9401 46.2626 45.0103 45.2466 44.7328C45.3573 44.4545 45.4219 44.1529 45.4219 43.8352V42.2266C45.4219 41.9089 45.3573 41.6072 45.2466 41.3289C46.2626 41.0506 47.0156 40.1217 47.0156 39.0093V37.4006C47.0156 36.0703 45.943 34.9877 44.625 34.9877H35.0625C33.7445 34.9877 32.6719 36.0703 32.6719 37.4006V39.0093C32.6719 39.327 32.7364 39.6286 32.8472 39.9069C31.8312 40.1844 31.0781 41.1142 31.0781 42.2266V43.8352C31.0781 44.9476 31.8312 45.8774 32.8472 46.1549C32.7364 46.4332 32.6719 46.7348 32.6719 47.0525V48.6611C32.6719 48.9443 32.7292 49.2129 32.8185 49.4655H31.875C30.557 49.4655 29.4844 48.3828 29.4844 47.0525V36.3204C29.4844 35.6754 29.7338 35.0689 30.1848 34.6137L31.875 32.9077V30.1617H46.2188V32.9077L47.9089 34.6137Z" fill="#EB856B"/>
</g>
<defs>
<clipPath id="clip0">
<rect width="51" height="51.4766" fill="white" transform="translate(0 0.401855)"/>
</clipPath>
</defs>
</svg>
