<svg width="195" height="343" viewBox="0 0 195 343" fill="none" xmlns="http://www.w3.org/2000/svg">
<path d="M112.068 189.319C121.691 222.196 156.222 240.822 188.821 231.024C221.699 221.401 240.325 186.87 230.527 154.271C220.904 121.393 186.373 102.767 153.774 112.565C121.174 122.364 102.548 156.895 112.068 189.319ZM155.052 116.091C185.94 107.159 218.522 124.558 227.455 155.446C236.387 186.334 218.709 218.741 188.099 227.849C157.211 236.781 124.629 219.381 115.697 188.493C106.311 157.709 124.164 125.023 155.052 116.091Z" fill="#7A7A7A"/>
<path d="M120.862 187.08C128.897 215.071 158.52 230.997 186.511 222.962C214.502 214.927 230.428 185.304 222.393 157.313C214.358 129.322 184.735 113.397 156.744 121.432C128.753 129.466 112.549 158.914 120.862 187.08ZM157.466 124.607C183.642 116.985 211.141 131.962 218.764 158.138C226.386 184.315 211.409 211.813 185.232 219.436C159.056 227.058 131.557 212.081 123.935 185.904C116.591 159.903 131.568 132.405 157.466 124.607Z" fill="#7A7A7A"/>
<path d="M138.244 181.696C143.835 199.985 162.91 210.438 181.302 205.301C199.592 199.711 210.044 180.636 204.907 162.243C199.317 143.954 180.242 133.502 161.849 138.638C143.281 144.053 132.654 163.407 138.244 181.696ZM162.85 141.989C179.428 137.265 196.832 146.666 201.556 163.244C206.28 179.822 196.88 197.226 180.302 201.95C163.724 206.674 146.319 197.274 141.595 180.696C136.696 164.396 146.096 146.991 162.85 141.989Z" fill="#7A7A7A"/>
<path d="M150.111 178.282C153.525 190.149 166.022 196.849 177.888 193.435C189.755 190.021 196.455 177.524 193.041 165.657C189.627 153.791 177.13 147.091 165.264 150.505C153.397 153.919 146.419 166.24 150.111 178.282Z" fill="#7A7A7A"/>
<path d="M204.389 51.9147C197.769 50.0803 191.253 48.6995 184.665 48.0508L182.585 66.1761C175.264 65.4553 167.872 65.4665 160.583 65.9313L158.828 47.724C152.095 48.5393 145.641 49.5298 139.115 51.2524L143.87 69.0161C142.963 69.2224 142.056 69.4287 141.427 69.8103C135.179 71.7081 129.035 74.0595 123.272 77.0399L114.991 60.555C109.053 63.8137 103.115 67.0724 97.8362 71.1352L108.808 85.8154C102.901 90.2598 97.3752 95.3331 92.5816 100.478L78.8471 88.3347C74.5072 93.3769 70.2704 98.8727 66.7656 104.441L82.3557 114.254C78.5004 120.379 75.0267 127.132 72.2851 133.958L55.0458 127.382C52.6546 133.651 50.8203 140.27 49.4395 146.786L67.4207 150.331C65.9679 157.579 65.247 164.899 65.2583 172.291L46.9166 172.407C46.9999 179.067 47.3616 185.903 48.6305 192.532L66.5284 189.416C67.1785 193.324 68.1068 197.406 69.3136 201.664C70.0357 204.84 71.2115 207.912 72.5624 210.706L55.4897 217.451C57.8412 223.595 60.9246 229.812 64.3586 235.472L79.9051 226.211C83.7206 232.5 88.1649 238.407 92.9597 243.758L79.5994 256.337C84.2911 261.234 89.158 265.853 94.3754 269.914L105.684 255.654C111.458 260.066 117.861 264.096 124.336 267.395L116.368 283.758C122.287 286.706 128.556 289.097 135 291.21L140.287 273.548C147.184 275.558 154.432 277.01 161.753 277.731L160.404 295.929C166.993 296.577 173.931 296.669 180.488 296.132L179.187 277.822C186.476 277.357 193.559 275.985 200.714 273.881L205.644 291.366L206.098 291.263C212.624 289.54 218.944 286.911 224.985 284.106L217.158 267.518C223.828 264.331 230.117 260.515 235.746 255.896L246.892 270.298C252.171 266.235 257.346 261.718 261.686 256.676L248.302 243.976C253.271 238.552 257.683 232.778 261.713 226.375L277.478 235.91C280.983 230.342 284.106 224.145 286.497 217.877L269.433 211.022C272.175 204.197 274.185 197.299 275.359 189.876L293.516 193.142C294.618 186.45 295.267 179.862 295.359 172.923L277.192 172.761C277.46 165.544 276.716 158.079 275.066 150.821L292.861 147.252C292.035 143.623 291.385 139.715 290.106 136.189C289.209 133.292 288.415 130.849 287.518 127.952L270.342 134.243C267.784 127.191 264.422 120.799 260.607 114.511L276.05 104.797C272.616 99.1369 268.275 93.6834 264.037 88.6835L250.295 100.635C245.222 95.109 239.798 90.1402 234.024 85.7282L244.775 71.1175C239.558 67.056 233.537 63.6544 227.793 60.428L219.372 76.8942C212.897 73.5958 206.071 70.8541 198.895 68.6692L204.389 51.9147ZM258.518 146.235C272.555 194.33 244.951 244.976 197.135 259.189C149.04 273.227 98.3934 245.623 84.1803 197.807C70.1425 149.712 97.7468 99.0653 145.563 84.8522C193.833 70.536 244.48 98.1402 258.518 146.235Z" fill="#7A7A7A"/>
</svg>
