<svg width="51" height="51" viewBox="0 0 51 51" fill="none" xmlns="http://www.w3.org/2000/svg">
<g clip-path="url(#clip0)">
<path d="M49.781 13.2607C49.7809 13.2607 49.7809 13.2607 49.7808 13.2607L49.7792 13.2591L46.5195 12.794C46.0614 12.7288 45.7429 12.3044 45.8081 11.8463C45.8394 11.6261 45.9571 11.4275 46.1349 11.2941L48.7694 9.3182C49.1397 9.04052 49.2147 8.51534 48.937 8.14507L45.9204 4.12292C45.6427 3.75265 45.1175 3.67766 44.7473 3.95533L42.1136 5.93121C41.7449 6.21098 41.2193 6.13892 40.9395 5.77022C40.8037 5.59122 40.7454 5.36507 40.7779 5.1427L41.2438 1.88309C41.3095 1.42494 40.9914 1.00041 40.5333 0.934633C40.533 0.934633 40.5327 0.934528 40.5324 0.934528L35.5583 0.223948C35.1003 0.158169 34.6756 0.47617 34.6098 0.934318C34.6098 0.934423 34.6098 0.934423 34.6098 0.934528L34.1439 4.19415C34.0786 4.65229 33.6543 4.97082 33.1962 4.90556C32.976 4.87425 32.7774 4.75662 32.644 4.57876L30.6689 1.94426C30.3912 1.57399 29.8661 1.49899 29.4958 1.77667L26.9777 3.66624C25.8386 3.54516 24.6897 3.54516 23.5505 3.66624C16.0901 4.51896 10.2396 10.4686 9.51239 17.9424C9.48977 18.1795 9.48139 18.415 9.46966 18.6504H9.21827C8.82066 18.6512 8.47826 18.9312 8.39876 19.3208L7.81973 22.0743L5.50029 20.4746C5.16742 20.2449 4.71786 20.2859 4.43191 20.5718L1.91807 23.0857C1.63253 23.3715 1.59168 23.8205 1.82086 24.1532L3.41297 26.4685L0.658629 27.0475C0.273383 27.1319 -0.000836033 27.4735 1.91516e-06 27.8679V31.2197C-0.000207572 31.616 0.277468 31.9583 0.665333 32.04L3.41967 32.619L1.82757 34.9343C1.59839 35.267 1.63924 35.716 1.92477 36.0018L4.43861 38.5157C4.72456 38.8016 5.17412 38.8426 5.507 38.6129L7.82225 37.0166L8.40127 39.7709C8.48077 40.1605 8.82318 40.4405 9.22078 40.4413H12.5726C12.9689 40.4415 13.3112 40.1638 13.3929 39.7759L13.972 37.0216L16.2872 38.6137C16.62 38.8429 17.0689 38.802 17.3547 38.5165L18.6561 37.211V39.5991C18.6599 40.7912 19.2985 41.8909 20.332 42.485V47.1407C20.332 48.9918 21.8326 50.4925 23.6838 50.4925H27.0356C28.8867 50.4925 30.3874 48.9918 30.3874 47.1407V42.485C31.4209 41.8909 32.0595 40.7912 32.0633 39.5991V36.2825C32.086 34.887 32.816 33.5987 34.0014 32.862C34.6968 32.4109 35.3563 31.9066 35.974 31.3537L34.8561 30.1052C34.3036 30.6004 33.7133 31.0518 33.0906 31.4551C31.4267 32.4994 30.4082 34.3182 30.3874 36.2825V39.5991C30.3874 40.5248 29.6371 41.275 28.7115 41.275H22.0079C21.0823 41.275 20.332 40.5248 20.332 39.5991V36.213C20.3126 34.2858 19.3101 32.5021 17.674 31.4836C11.0325 27.3104 9.03151 18.5435 13.2047 11.902C15.794 7.7813 20.3128 5.27321 25.1795 5.25583C25.167 5.28568 25.156 5.31616 25.1468 5.34716C25.1157 5.56712 25.1733 5.79054 25.3069 5.96808L27.2819 8.60175C27.4902 8.87126 27.5102 9.24142 27.3322 9.53188C27.1608 9.82411 26.8295 9.98353 26.4942 9.93493L23.2346 9.46903C22.7765 9.40336 22.352 9.72146 22.2862 10.1795C22.2862 10.1798 22.2861 10.1801 22.2861 10.1804L21.5747 15.157C21.509 15.6151 21.8271 16.0397 22.2851 16.1055C22.2854 16.1055 22.2858 16.1056 22.2861 16.1056L25.5457 16.5715C26.0038 16.6367 26.3224 17.0611 26.2571 17.5192C26.2258 17.7394 26.1082 17.938 25.9303 18.0714L23.2966 20.0464C22.9264 20.3241 22.8514 20.8493 23.129 21.2196L26.1457 25.2417C26.4233 25.612 26.9485 25.687 27.3188 25.4093L29.9533 23.4343C30.3239 23.1571 30.8491 23.2329 31.1262 23.6035C31.2588 23.7809 31.3159 24.0036 31.2848 24.2228L30.8197 27.4824C30.754 27.9404 31.072 28.3652 31.5301 28.431C31.5302 28.431 31.5302 28.431 31.5303 28.431L36.5077 29.1424C36.5469 29.1474 36.5864 29.1499 36.6259 29.1499C37.0431 29.1504 37.397 28.844 37.4563 28.431L37.9214 25.1713C37.9866 24.7132 38.4109 24.3947 38.8691 24.4599C39.0892 24.4912 39.2878 24.6089 39.4213 24.7867L41.3972 27.4204C41.6748 27.7907 42.2 27.8657 42.5703 27.588L46.5924 24.5714C46.9627 24.2937 47.0377 23.7685 46.76 23.3982L44.785 20.7646C44.5777 20.4946 44.5577 20.1251 44.7347 19.8344C44.9024 19.5383 45.2367 19.3779 45.5727 19.4322L48.8323 19.8973C49.2903 19.9631 49.7151 19.645 49.7808 19.1869C49.7808 19.1868 49.7808 19.1868 49.7808 19.1867L50.4914 14.2093C50.5572 13.7512 50.2392 13.3265 49.781 13.2607ZM22.0079 42.9509H28.7115V44.6268H22.0079V42.9509ZM22.0079 46.3027H28.7115V47.1407C28.7115 48.0663 27.9612 48.8166 27.0356 48.8166H23.6838C22.7582 48.8166 22.0079 48.0663 22.0079 47.1407V46.3027ZM15.337 31.8523C15.7945 32.2264 16.2725 32.5748 16.769 32.8955C17.5608 33.3959 18.1568 34.1529 18.4575 35.0399L16.6601 36.8339L14.9197 35.634C14.1576 35.1088 13.114 35.3009 12.5887 36.063C12.4628 36.2458 12.3744 36.4517 12.3287 36.6688L11.8896 38.7612H9.89785L9.45876 36.6722C9.26813 35.7665 8.37938 35.1867 7.47366 35.3773C7.25653 35.423 7.0506 35.5114 6.86783 35.6373L5.12657 36.8339L3.59983 35.3105L4.79893 33.5709C5.32464 32.8091 5.13317 31.7655 4.37137 31.2398C4.18849 31.1135 3.98235 31.0249 3.7649 30.9792L1.6759 30.5392V28.5483L3.7649 28.1084C4.67031 27.9164 5.2487 27.0268 5.05671 26.1213C5.01114 25.9064 4.92389 25.7027 4.79977 25.5216L3.59983 23.777L5.12657 22.2536L6.86866 23.4535C7.63109 23.9782 8.67465 23.7855 9.19931 23.0231C9.325 22.8405 9.4132 22.6348 9.45876 22.4178L9.6054 21.7207C9.73968 22.6862 9.96205 23.6373 10.2699 24.5622C7.51273 24.8908 5.54408 27.3925 5.87276 30.1497C6.20145 32.9069 8.70314 34.8755 11.4603 34.5468C13.1201 34.3489 14.573 33.339 15.337 31.8523ZM14.0356 30.6716C13.4099 32.4109 11.4928 33.3136 9.75351 32.6879C8.01424 32.0622 7.11156 30.1451 7.7372 28.4058C8.21587 27.0753 9.47919 26.189 10.8932 26.192C10.9041 26.192 10.9142 26.192 10.9251 26.192C11.6957 27.8535 12.748 29.369 14.0356 30.6716ZM48.2357 18.1175L45.8056 17.7706C44.4312 17.5743 43.1579 18.5294 42.9616 19.9038C42.8673 20.5638 43.0391 21.2342 43.4392 21.7676L44.9115 23.7309L42.2301 25.742L40.757 23.7795C39.924 22.6687 38.3484 22.4434 37.2377 23.2763C36.7043 23.6762 36.3517 24.2717 36.2572 24.9317L35.9178 27.3651L32.6004 26.8908L32.9473 24.4608C33.1441 23.0864 32.1895 21.8127 30.8151 21.616C30.1547 21.5214 29.4839 21.6932 28.9503 22.0936L26.987 23.5658L24.9759 20.8844L26.9384 19.4113C28.0492 18.5784 28.2745 17.0027 27.4416 15.892C27.0416 15.3587 26.4462 15.006 25.7862 14.9115L23.3561 14.5646L23.8304 11.2472L26.2605 11.5941C27.6348 11.7909 28.9085 10.8362 29.1052 9.46191C29.1998 8.8015 29.028 8.13072 28.6277 7.59705L27.1504 5.63207L29.8318 3.62099L31.3049 5.5843C32.1378 6.69511 33.7135 6.92041 34.8242 6.08749C35.3575 5.68758 35.7102 5.09211 35.8047 4.43212L36.1516 2.00207L39.469 2.47551L39.1221 4.90556C38.9258 6.28001 39.8809 7.55327 41.2553 7.74956C41.9153 7.84383 42.5858 7.67205 43.1191 7.27193L45.0825 5.79965L47.0935 8.48109L45.1302 9.9542C44.0194 10.7871 43.7941 12.3628 44.627 13.4735C45.0269 14.0068 45.6224 14.3595 46.2824 14.454L48.7124 14.8009L48.2357 18.1175Z" fill="#EB856B"/>
<path d="M36.0317 7.97852C32.3295 7.97852 29.3282 10.9798 29.3282 14.6821C29.3282 18.3844 32.3295 21.3857 36.0317 21.3857C39.734 21.3857 42.7353 18.3844 42.7353 14.6821C42.7311 10.9815 39.7323 7.9826 36.0317 7.97852ZM36.0317 19.7098C33.255 19.7098 31.0041 17.4589 31.0041 14.6821C31.0041 11.9054 33.255 9.65441 36.0317 9.65441C38.8085 9.65441 41.0594 11.9054 41.0594 14.6821C41.0562 17.4575 38.8071 19.7065 36.0317 19.7098Z" fill="#EB856B"/>
</g>
<defs>
<clipPath id="clip0">
<rect width="50.5" height="50.5" fill="white"/>
</clipPath>
</defs>
</svg>
