<svg width="51" height="51" viewBox="0 0 51 51" fill="none" xmlns="http://www.w3.org/2000/svg">
<g clip-path="url(#clip0)">
<path d="M23.2453 44.9369H23.0323H15.6702C15.4932 42.9111 14.8548 42.4253 12.9513 41.2354C12.3697 40.8719 11.6466 40.4199 10.7537 39.7963C10.4249 39.5437 9.6343 38.8472 9.12538 37.6631L5.09476 28.2502C4.84114 27.6583 5.09446 27.2252 5.45803 27.0586C5.80252 26.9006 6.29077 26.9783 6.62814 27.6689C6.6314 27.6754 6.63467 27.682 6.63803 27.6884L9.24462 32.6468C9.6514 33.4209 10.1857 33.9263 10.7025 34.4152C10.8679 34.5717 11.0389 34.7335 11.2075 34.9054C11.2191 34.9172 11.231 34.9285 11.2432 34.9395L15.0747 38.3572C15.091 38.3717 15.1078 38.3855 15.1253 38.3984C16.1933 39.1941 17.2872 38.8632 17.8518 38.219C18.4375 37.5505 18.596 36.4273 17.7686 35.5707C17.3662 35.1368 17.102 34.8303 16.7964 34.4756C16.5958 34.2428 16.3685 33.9791 16.0717 33.6439C15.4902 32.9836 15.4008 32.2981 15.8384 31.855C16.2229 31.4656 16.9644 31.3292 17.7004 31.9306L21.1361 36.0701C22.2469 37.4082 22.247 39.6361 22.247 41.6016C22.247 41.8255 22.247 42.0448 22.2487 42.2582C22.2519 42.6659 22.5833 42.994 22.9902 42.994H22.9961C23.4057 42.9909 23.7351 42.6562 23.7319 42.2466C23.7302 42.037 23.7302 41.8215 23.7302 41.6015C23.7301 39.4947 23.7301 36.8727 22.2772 35.1227L18.7989 30.9318C18.7723 30.8997 18.743 30.8699 18.7113 30.8429C17.305 29.6355 15.6706 29.9139 14.7831 30.8129C13.9462 31.6604 13.6759 33.1676 14.9599 34.6257C15.2515 34.9549 15.4754 35.2148 15.6728 35.4439C15.9894 35.8112 16.2628 36.1285 16.6869 36.5854C16.6909 36.5898 16.695 36.594 16.6992 36.5983C17.0065 36.9139 16.7648 37.2089 16.7362 37.2416C16.5674 37.4343 16.3192 37.4286 16.035 37.2263L12.2488 33.849C12.0671 33.6645 11.8916 33.4986 11.7217 33.3379C11.2345 32.877 10.8497 32.513 10.5575 31.957L7.95576 27.0077C7.2037 25.4805 5.81458 25.264 4.84015 25.7107C3.84841 26.1651 3.12285 27.4145 3.73144 28.8346L7.76236 38.2481C8.393 39.7157 9.35151 40.593 9.86666 40.9853C9.87467 40.9915 9.88287 40.9974 9.89108 41.0031C10.8212 41.6534 11.5664 42.1192 12.1653 42.4934C13.7808 43.5032 14.0959 43.7004 14.1972 45.0575C13.6183 45.2965 13.2096 45.8663 13.2096 46.5303V49.0291C13.2096 49.9091 13.9245 50.625 14.8033 50.625H23.2453C24.124 50.625 24.839 49.9091 24.839 49.0291V46.5303C24.839 45.6515 24.124 44.9369 23.2453 44.9369ZM23.3558 49.029C23.3558 49.0891 23.3042 49.1418 23.2453 49.1418H14.8033C14.7445 49.1418 14.6927 49.0891 14.6927 49.029V46.5302C14.6927 46.4715 14.7444 46.4201 14.8033 46.4201H14.9715H23.0323H23.2453C23.3041 46.4201 23.3558 46.4715 23.3558 46.5302V49.029Z" fill="#EB856B"/>
<path d="M46.4136 25.71C45.4387 25.264 44.0501 25.4805 43.2997 27.0078L40.698 31.957C40.4059 32.5128 40.0212 32.8768 39.534 33.3377C39.3641 33.4983 39.1886 33.6644 39.0069 33.8489L35.2207 37.2262C34.9367 37.4284 34.6881 37.4341 34.519 37.2412C34.4903 37.2086 34.2479 36.9132 34.5545 36.5974L34.566 36.5853C35.0033 36.1141 35.2852 35.7872 35.6116 35.4087C35.8043 35.1851 36.0171 34.9384 36.2939 34.6244C37.5782 33.168 37.309 31.6607 36.4725 30.8129C35.5851 29.9138 33.9509 29.6352 32.5444 30.8427C32.5128 30.8698 32.4834 30.8997 32.4568 30.9317L28.9786 35.1224C27.5248 36.8731 27.5246 39.4945 27.5245 41.6009C27.5245 41.7577 27.5245 41.9125 27.5239 42.0644C27.5223 42.4739 27.853 42.8072 28.2625 42.8089H28.2655C28.6737 42.8089 29.0054 42.4789 29.0071 42.0702C29.0077 41.9164 29.0077 41.7598 29.0077 41.601C29.0078 39.6359 29.008 37.4086 30.1197 36.0697L33.5553 31.9304C34.2914 31.3289 35.0325 31.4653 35.4168 31.8546C35.8539 32.2977 35.7638 32.9831 35.1816 33.6433C34.9003 33.9623 34.6841 34.2129 34.4883 34.4401C34.1597 34.8212 33.8998 35.1226 33.4839 35.5709C32.6581 36.4282 32.8179 37.5512 33.4041 38.2194C33.9688 38.8631 35.063 39.1936 36.1304 38.3984C36.1479 38.3854 36.1647 38.3716 36.181 38.3572L40.0125 34.9395C40.0247 34.9285 40.0367 34.9171 40.0482 34.9054C40.2168 34.7334 40.3879 34.5717 40.5533 34.4151C41.0701 33.9263 41.6044 33.4208 42.0111 32.6469L44.6177 27.6884C44.6212 27.6818 44.6246 27.6751 44.6279 27.6683C44.9641 26.9783 45.4523 26.9011 45.7966 27.0587C46.1607 27.2254 46.4147 27.6584 46.161 28.2504L42.1274 37.6635C41.6198 38.8511 40.8284 39.5451 40.5 39.7957C39.6072 40.4199 38.8842 40.8721 38.3027 41.2358C36.4006 42.4255 35.7626 42.9112 35.5857 44.9368H28.2236H28.0106C27.1319 44.9368 26.4169 45.6515 26.4169 46.53V49.0289C26.4169 49.9089 27.1318 50.6248 28.0106 50.6248H36.4527C37.3314 50.6248 38.0463 49.9089 38.0463 49.0289V46.53C38.0463 45.866 37.6376 45.2962 37.0587 45.0573C37.16 43.7002 37.4749 43.503 39.0892 42.4933C39.6877 42.1189 40.4325 41.653 41.3622 41.0027C41.37 40.9974 41.3775 40.9918 41.3849 40.9862C41.9014 40.5949 42.8619 39.7187 43.491 38.2471L47.5243 28.8345C48.1329 27.4139 47.4063 26.1643 46.4136 25.71ZM36.5629 49.029C36.5629 49.0891 36.5112 49.1418 36.4524 49.1418H28.0103C27.9515 49.1418 27.8997 49.0891 27.8997 49.029V46.5301C27.8997 46.4715 27.9514 46.4201 28.0103 46.4201H28.2233H36.2841H36.4523C36.5111 46.4201 36.5628 46.4715 36.5628 46.5301V49.029H36.5629Z" fill="#EB856B"/>
<path d="M49.8835 9.54163H46.338C45.9284 9.54163 45.5964 9.87365 45.5964 10.2832C45.5964 10.6928 45.9284 11.0248 46.338 11.0248H49.8835C50.293 11.0248 50.6251 10.6928 50.6251 10.2832C50.6251 9.87365 50.293 9.54163 49.8835 9.54163Z" fill="#EB856B"/>
<path d="M44.8697 5.30986C45.0282 5.30986 45.188 5.25924 45.323 5.15473L48.266 2.87719C48.5899 2.62654 48.6493 2.16073 48.3986 1.83691C48.148 1.51309 47.6822 1.45366 47.3583 1.70432L44.4153 3.98175C44.0914 4.2324 44.0321 4.69821 44.2827 5.02203C44.4289 5.21089 44.6481 5.30986 44.8697 5.30986Z" fill="#EB856B"/>
<path d="M48.266 17.6863L45.323 15.4087C44.9992 15.158 44.5333 15.2174 44.2827 15.5413C44.0321 15.8652 44.0914 16.331 44.4153 16.5816L47.3583 18.8591C47.4934 18.9638 47.6531 19.0143 47.8117 19.0143C48.0333 19.0143 48.2526 18.9154 48.3987 18.7266C48.6493 18.4027 48.5899 17.937 48.266 17.6863Z" fill="#EB856B"/>
<path d="M5.02592 10.2832C5.02592 9.87365 4.69389 9.54163 4.28434 9.54163H0.741577C0.332029 9.54163 0 9.87365 0 10.2832C0 10.6928 0.332029 11.0248 0.741577 11.0248H4.28434C4.69389 11.0248 5.02592 10.6928 5.02592 10.2832Z" fill="#EB856B"/>
<path d="M2.35625 2.87727L5.29923 5.1548C5.43429 5.25941 5.59398 5.30994 5.75258 5.30994C5.97416 5.30994 6.19347 5.21106 6.33961 5.0222C6.59026 4.69828 6.53094 4.23257 6.20702 3.98192L3.26394 1.70439C2.94002 1.45364 2.47421 1.51306 2.22366 1.83698C1.97301 2.1609 2.03233 2.62661 2.35625 2.87727Z" fill="#EB856B"/>
<path d="M6.33951 15.5413C6.08885 15.2174 5.62314 15.158 5.29922 15.4087L2.35625 17.6862C2.03233 17.9368 1.97301 18.4027 2.22366 18.7265C2.3698 18.9153 2.58901 19.0142 2.81069 19.0142C2.96919 19.0142 3.12898 18.9636 3.26404 18.8591L6.20701 16.5815C6.53083 16.3309 6.59016 15.8652 6.33951 15.5413Z" fill="#EB856B"/>
<path d="M27.1189 27.0698C26.7094 27.0698 26.3773 27.4018 26.3773 27.8114C26.3773 28.2209 26.7094 28.553 27.1189 28.553H33.2879C33.9657 28.553 34.5172 28.0016 34.5172 27.3239V25.7215C34.5172 24.9266 34.3808 24.2672 34.1466 23.715H41.8673C42.5467 23.715 43.0994 23.1637 43.0994 22.486V20.8836C43.0994 17.5848 40.7622 16.6076 38.737 16.0293C38.7081 16.0188 38.6785 16.0108 38.6486 16.004C38.4356 15.9441 38.2266 15.8883 38.0245 15.8344C37.8915 15.7989 37.7591 15.7636 37.6294 15.7283C37.4342 15.6747 37.2892 15.4223 37.1797 15.1685C39.1929 13.8098 40.6944 11.469 40.6944 9.42878V7.57414C40.6944 5.2882 39.9641 3.34814 38.5823 1.96366C37.3466 0.725527 35.6834 0.0281482 33.8993 0.000166016C33.8914 6.71387e-05 33.8834 0.000166016 33.8754 0.000166016C31.2201 0.0440674 28.3043 1.67267 27.3773 5.18686C26.7229 4.97012 26.0304 4.84998 25.3179 4.83812C25.3096 4.83802 25.3015 4.83802 25.2931 4.83812C24.5803 4.84998 23.8876 4.97012 23.2331 5.18705C22.3039 1.67267 19.3887 0.0440674 16.7355 0.000166016C16.7276 0.000166016 16.7196 6.71387e-05 16.7116 0.000166016C14.9275 0.0281482 13.2643 0.725527 12.0285 1.96376C10.6467 3.34814 9.9164 5.2883 9.9164 7.57424V9.42878C9.9164 11.469 11.4178 13.8105 13.4305 15.1691C13.3217 15.4228 13.1774 15.6745 12.9828 15.7279C12.8518 15.7636 12.7194 15.7989 12.5863 15.8345C12.3948 15.8856 12.1969 15.9383 11.9955 15.9948C11.9517 16.003 11.9086 16.0153 11.8668 16.0312C9.84343 16.6098 7.51162 17.5891 7.51162 20.8837V22.4861C7.51162 23.1638 8.06305 23.7151 8.74085 23.7151H16.4644C16.2302 24.2673 16.0938 24.9268 16.0938 25.7216V27.324C16.0938 28.0017 16.6453 28.5531 17.3231 28.5531H23.7808C24.1904 28.5531 24.5224 28.221 24.5224 27.8115C24.5224 27.4019 24.1904 27.0699 23.7808 27.0699H17.577V25.7216C17.577 23.6525 18.7076 22.9479 20.6214 22.3668L24.0931 24.4039C24.5289 24.6831 24.9172 24.8227 25.3052 24.8226C25.6933 24.8226 26.0811 24.6829 26.5156 24.4036L29.9894 22.3668C31.9034 22.9479 33.034 23.6526 33.034 25.7217V27.07H27.1189V27.0698ZM39.2114 9.42868C39.2114 11.3627 37.313 13.7631 35.1486 14.566C34.2165 14.9121 33.5558 14.9121 32.6247 14.5663C32.4499 14.5012 32.2784 14.4258 32.1107 14.3428C32.1112 14.3175 32.1123 14.2919 32.1123 14.2667V12.4122C32.1123 10.3443 31.5125 8.56103 30.3753 7.21482C30.4378 7.15352 30.4961 7.09409 30.5508 7.03823C30.9338 6.64756 31.0028 6.57706 31.4179 6.68425C31.7151 6.76108 31.9696 6.8291 32.1911 6.88823C32.9796 7.09884 33.414 7.21492 33.8876 7.21492C34.3588 7.21492 34.7922 7.09914 35.5789 6.88892C35.801 6.8296 36.0563 6.76137 36.3545 6.68435C36.7703 6.57726 36.8393 6.64727 37.2218 7.03724C37.6036 7.42632 38.1503 7.98033 39.2114 8.21506V9.42868ZM36.6987 16.9113L34.3346 18.2936C34.3247 18.2994 34.3149 18.3055 34.3052 18.3117C33.9136 18.5658 33.8589 18.5657 33.4672 18.3117C33.4578 18.3056 33.4482 18.2996 33.4384 18.2939L31.3111 17.0473C31.5283 16.6548 31.7068 16.2525 31.8399 15.8495C31.9285 15.8867 32.0176 15.9228 32.1076 15.9563C32.7393 16.191 33.3128 16.3082 33.8862 16.3082C34.4596 16.3082 35.0332 16.191 35.6646 15.9564C35.7339 15.9307 35.8026 15.9029 35.8712 15.8748C36.0398 16.2367 36.292 16.6386 36.6987 16.9113ZM33.8879 1.48332C36.2561 1.52584 38.7867 3.16719 39.1634 6.65884C38.7744 6.50192 38.5387 6.26155 38.2804 5.99834C37.8367 5.54617 37.2291 4.92661 35.9835 5.24826C35.6807 5.32657 35.4214 5.39578 35.1961 5.456C34.5089 5.63951 34.164 5.73177 33.8876 5.73177C33.6087 5.73177 33.2628 5.63942 32.5739 5.45541C32.349 5.39539 32.0906 5.32637 31.789 5.24836C30.5438 4.92661 29.9357 5.54706 29.4917 6.00022C29.427 6.06627 29.3628 6.13014 29.2979 6.19253C29.121 6.05905 28.9382 5.93456 28.7496 5.81977C29.414 2.88302 31.7578 1.52346 33.8879 1.48332ZM25.3054 6.32127C27.6736 6.36616 30.2042 8.00851 30.5811 11.4969C30.1925 11.3402 29.9571 11.1002 29.6993 10.8375C29.3411 10.4723 28.876 9.99821 28.0522 9.99821C27.8565 9.99821 27.6406 10.025 27.401 10.0863C27.1017 10.1638 26.8451 10.2324 26.6217 10.2923C25.9314 10.477 25.5849 10.5697 25.3054 10.5697C25.0259 10.5697 24.6794 10.477 23.9892 10.2923C23.7657 10.2325 23.5091 10.1638 23.2078 10.0858C21.9622 9.76674 21.3548 10.3856 20.9115 10.8375C20.6537 11.1003 20.4183 11.3402 20.0297 11.4969C20.4067 8.00851 22.9372 6.36616 25.3054 6.32127ZM30.6291 13.053V14.2667C30.6291 16.2008 28.7308 18.6013 26.5658 19.4042C25.6352 19.7506 24.9756 19.7506 24.0441 19.4039C21.88 18.6013 19.9817 16.2008 19.9817 14.2667V13.053C21.0425 12.8185 21.5887 12.265 21.9702 11.8762C22.353 11.4859 22.4222 11.4156 22.8379 11.5221C23.1328 11.5984 23.3856 11.6662 23.6058 11.725C24.3957 11.9364 24.8309 12.0528 25.3054 12.0528C25.7799 12.0528 26.2151 11.9363 27.005 11.725C27.2252 11.6661 27.4779 11.5984 27.7709 11.5226C28.1889 11.4155 28.2578 11.4859 28.6406 11.8762C29.0221 12.265 29.5683 12.8184 30.6291 13.053ZM16.7228 1.48332C18.8512 1.52346 21.1941 2.88312 21.8609 5.81987C21.6725 5.93446 21.4897 6.05895 21.313 6.19234C21.2481 6.13004 21.1841 6.06627 21.1195 6.00041C20.675 5.54726 20.0667 4.92631 18.8186 5.24836C18.5193 5.32588 18.2627 5.3945 18.0391 5.45432C17.349 5.63902 17.0025 5.73167 16.723 5.73167C16.4466 5.73167 16.1017 5.63951 15.4147 5.4559C15.1892 5.39568 14.9301 5.32647 14.6258 5.24786C13.3816 4.92859 12.7742 5.54726 12.3308 5.99883C12.0724 6.26194 11.8366 6.50212 11.4472 6.65894C11.824 3.16739 14.3546 1.52574 16.7228 1.48332ZM11.3995 9.42868V8.21664C12.462 7.9823 13.0072 7.42711 13.3893 7.03803C13.7722 6.64796 13.8413 6.57796 14.2562 6.68415C14.5546 6.76127 14.81 6.8295 15.032 6.88882C15.8188 7.09894 16.2521 7.21472 16.7232 7.21472C17.1977 7.21472 17.6329 7.09834 18.4227 6.88695C18.6429 6.82802 18.8956 6.76038 19.1898 6.68425C19.6075 6.57677 19.6765 6.64717 20.0606 7.03882C20.1152 7.09449 20.1732 7.15362 20.2355 7.21472C19.0983 8.56103 18.4985 10.3442 18.4985 12.4121V14.2666C18.4985 14.2917 18.4998 14.3172 18.5002 14.3424C18.3317 14.4256 18.1594 14.5011 17.9835 14.5661C17.0529 14.9126 16.3933 14.9126 15.4618 14.5658C13.2978 13.7632 11.3995 11.3627 11.3995 9.42868ZM19.2987 17.0467L17.172 18.2941C17.1624 18.2997 17.1529 18.3056 17.1435 18.3117C16.7522 18.5657 16.6974 18.5658 16.3055 18.3117C16.2961 18.3056 16.2866 18.2997 16.277 18.2941L13.9146 16.909C14.317 16.6353 14.5704 16.231 14.7378 15.8751C14.8067 15.9033 14.8759 15.9304 14.9452 15.9561C16.2079 16.4262 17.2381 16.4262 18.4994 15.9566C18.5903 15.923 18.6805 15.8868 18.77 15.8493C18.9029 16.2523 19.0816 16.6543 19.2987 17.0467ZM21.5621 20.5659C21.4315 20.6015 21.2995 20.6367 21.1668 20.6721C20.0005 20.9833 18.6003 21.3584 17.5663 22.2318H8.99467V20.8835C8.99467 18.815 10.1252 18.1102 12.0398 17.5289L15.513 19.5652C16.3835 20.1252 17.0655 20.1253 17.9361 19.5652L20.1328 18.2768C20.6689 18.9366 21.3093 19.5313 22.0125 20.006C21.9036 20.2601 21.7587 20.5121 21.5621 20.5659ZM25.7515 23.1321C25.7419 23.1378 25.7325 23.1436 25.7231 23.1497C25.3284 23.4058 25.2813 23.4057 24.8837 23.1489C24.8748 23.1431 24.8658 23.1376 24.8566 23.1322L22.4945 21.7463C22.898 21.4723 23.1523 21.0683 23.3198 20.7121C23.3888 20.7405 23.4579 20.7684 23.5275 20.7943C24.159 21.0294 24.7323 21.1469 25.3055 21.1469C25.8785 21.1469 26.4515 21.0294 27.0823 20.7946C27.1522 20.7687 27.2217 20.7408 27.2911 20.7123C27.4586 21.0683 27.7127 21.472 28.1159 21.746L25.7515 23.1321ZM29.4441 20.6721C29.3114 20.6367 29.1794 20.6015 29.0495 20.5661C28.8522 20.5122 28.7072 20.2597 28.598 20.0053C29.3007 19.5307 29.9416 18.9373 30.4775 18.2779L32.6749 19.5654C33.1101 19.8454 33.4983 19.9853 33.8864 19.9853C34.2743 19.9853 34.6624 19.8454 35.0975 19.5656L38.5773 17.531C40.4879 18.112 41.6163 18.8173 41.6163 20.8836V22.2319H33.0446C32.0107 21.3584 30.6105 20.9833 29.4441 20.6721Z" fill="#EB856B"/>
</g>
<defs>
<clipPath id="clip0">
<rect width="50.625" height="50.625" fill="white"/>
</clipPath>
</defs>
</svg>
